<?xml version="1.0" encoding="UTF-8" standalone="no"?>
<!-- Created with Inkscape (http://www.inkscape.org/) -->

<svg
   xmlns:dc="http://purl.org/dc/elements/1.1/"
   xmlns:cc="http://creativecommons.org/ns#"
   xmlns:rdf="http://www.w3.org/1999/02/22-rdf-syntax-ns#"
   xmlns:svg="http://www.w3.org/2000/svg"
   xmlns="http://www.w3.org/2000/svg"
   xmlns:xlink="http://www.w3.org/1999/xlink"
   xmlns:sodipodi="http://sodipodi.sourceforge.net/DTD/sodipodi-0.dtd"
   xmlns:inkscape="http://www.inkscape.org/namespaces/inkscape"
   width="80"
   height="80"
   viewBox="0 0 21.166665 21.16667"
   version="1.1"
   id="svg8"
   sodipodi:docname="AB-l.svg"
   inkscape:version="0.92.1 r15371"
   inkscape:export-filename="/media/mouse/GIT/hub/kiselevnikolaygit.github.io/favicon.png"
   inkscape:export-xdpi="576"
   inkscape:export-ydpi="576">
  <defs
     id="defs2">
    <linearGradient
       inkscape:collect="always"
       id="linearGradient829">
      <stop
         style="stop-color:#ea5858;stop-opacity:1"
         offset="0"
         id="stop825" />
      <stop
         style="stop-color:#524656;stop-opacity:1"
         offset="1"
         id="stop827" />
    </linearGradient>
    <radialGradient
       inkscape:collect="always"
       xlink:href="#linearGradient829"
       id="radialGradient38"
       gradientUnits="userSpaceOnUse"
       gradientTransform="matrix(-1.8653204,4.8293194,-2.804155,-1.020805,739.56099,376.72146)"
       cx="15.544576"
       cy="234.17751"
       fx="15.544576"
       fy="234.17751"
       r="17.638889" />
  </defs>
  <sodipodi:namedview
     id="base"
     pagecolor="#000000"
     bordercolor="#000000"
     borderopacity="0.15686275"
     inkscape:pageopacity="0"
     inkscape:pageshadow="2"
     inkscape:zoom="9.0875"
     inkscape:cx="40"
     inkscape:cy="40"
     inkscape:document-units="px"
     inkscape:current-layer="layer1"
     showgrid="true"
     inkscape:showpageshadow="false"
     borderlayer="true"
     inkscape:pagecheckerboard="true"
     units="px"
     objecttolerance="20"
     inkscape:snap-path-clip="true"
     inkscape:snap-path-mask="true"
     gridtolerance="10"
     guidetolerance="10000"
     inkscape:snap-perpendicular="true"
     inkscape:snap-tangential="true"
     inkscape:snap-bbox="true"
     inkscape:bbox-paths="true"
     inkscape:bbox-nodes="true"
     inkscape:snap-bbox-edge-midpoints="true"
     inkscape:snap-bbox-midpoints="true"
     inkscape:object-paths="true"
     inkscape:snap-intersection-paths="true"
     inkscape:snap-midpoints="true"
     inkscape:snap-smooth-nodes="true"
     inkscape:snap-center="true"
     inkscape:snap-object-midpoints="true"
     inkscape:snap-text-baseline="true"
     inkscape:snap-page="true"
     inkscape:window-width="1280"
     inkscape:window-height="962"
     inkscape:window-x="0"
     inkscape:window-y="34"
     inkscape:window-maximized="1"
     showguides="false"
     fit-margin-top="0"
     fit-margin-left="0"
     fit-margin-right="0"
     fit-margin-bottom="0">
    <inkscape:grid
       type="xygrid"
       id="grid4485"
       spacingx="0.35277779"
       spacingy="0.35277779"
       dotted="false"
       units="pt"
       empspacing="10"
       originx="-25.94685"
       originy="-42.333355" />
  </sodipodi:namedview>
  <metadata
     id="metadata5">
    <rdf:RDF>
      <cc:Work
         rdf:about="">
        <dc:format>image/svg+xml</dc:format>
        <dc:type
           rdf:resource="http://purl.org/dc/dcmitype/StillImage" />
        <dc:title></dc:title>
        <dc:rights>
          <cc:Agent>
            <dc:title>Creative Commons 4.0</dc:title>
          </cc:Agent>
        </dc:rights>
        <dc:creator>
          <cc:Agent>
            <dc:title>Kiselev Nikolay</dc:title>
          </cc:Agent>
        </dc:creator>
        <cc:license
           rdf:resource="" />
      </cc:Work>
    </rdf:RDF>
  </metadata>
  <g
     inkscape:label="Layer 1"
     inkscape:groupmode="layer"
     id="layer1"
     transform="translate(-25.946854,-233.49996)">
    <circle
       cy="237.25218"
       cx="47.62513"
       id="circle821"
       style="opacity:1;fill:#ffffff;fill-opacity:1;stroke:#ffffff;stroke-width:1.76388896;stroke-linecap:round;stroke-linejoin:round;stroke-miterlimit:4;stroke-dasharray:none;stroke-dashoffset:0;stroke-opacity:1;paint-order:stroke markers fill"
       r="0" />
    <path
       style="font-style:normal;font-variant:normal;font-weight:normal;font-stretch:normal;font-size:9.87777805px;line-height:100%;font-family:aMavickFont;-inkscape-font-specification:aMavickFont;text-align:center;letter-spacing:-0.23812501px;word-spacing:0px;text-anchor:middle;fill:url(#radialGradient38);fill-opacity:1;stroke:none;stroke-width:0.26458335px;stroke-linecap:butt;stroke-linejoin:miter;stroke-opacity:1"
       d="m 36.511633,233.50014 c -0.116118,0.002 -0.230558,0.024 -0.338447,0.0655 l -1.924113,0.744 c -0.28691,0.11014 -0.501677,0.34646 -0.577287,0.63534 l -3.847692,14.85311 c -0.08185,0.3165 0.01464,0.65129 0.253835,0.88178 l 3.847691,3.71275 c 0.180024,0.17459 0.424325,0.27343 0.679572,0.274 h 3.849833 c 0.255245,-5.5e-4 0.49955,-0.0994 0.679572,-0.274 l 3.847691,-3.71275 c 0.239211,-0.23049 0.335679,-0.56528 0.253835,-0.88178 l -3.847692,-14.8531 c -0.07573,-0.28899 -0.290697,-0.52535 -0.577823,-0.63534 l -1.923577,-0.744 c -0.119333,-0.0459 -0.246961,-0.068 -0.375398,-0.0655 z m 0.01928,1.92786 1.110126,0.42789 3.595998,13.88241 -3.180972,3.06962 h -3.052983 l -3.179902,-3.06962 3.597606,-13.88241 z m -7.697525,0.6577 c -0.498273,0 -0.996331,0.12442 -1.442147,0.37278 -0.891634,0.49675 -1.444289,1.41794 -1.44429,2.4114 -0.0075,0.51262 0.417155,0.93417 0.9484,0.94158 0.542722,0.008 0.985067,-0.41787 0.97732,-0.94158 0,-0.33313 0.180826,-0.63776 0.479823,-0.80432 0.298988,-0.16659 0.663335,-0.16659 0.962324,0 0.298996,0.16656 0.48143,0.47119 0.48143,0.80432 -0.02594,1.26242 1.950074,1.26242 1.924113,0 0,-0.99346 -0.552656,-1.91465 -1.44429,-2.4114 -0.445816,-0.24836 -0.944416,-0.37278 -1.442683,-0.37278 z m 15.392907,0 c -0.498268,0 -0.996328,0.12442 -1.442148,0.37278 -0.891635,0.49675 -1.444291,1.41794 -1.444291,2.4114 -0.0075,0.51261 0.416624,0.93417 0.947867,0.94158 0.542063,0.007 0.983437,-0.41853 0.975712,-0.94158 0,-0.33313 0.182438,-0.63776 0.48143,-0.80432 0.298994,-0.16659 0.663865,-0.16659 0.962859,0 0.29899,0.16656 0.48143,0.47119 0.48143,0.80432 -0.02606,1.26252 1.95019,1.26252 1.924112,0 0,-0.99346 -0.552655,-1.91465 -1.444288,-2.4114 -0.44582,-0.24836 -0.944418,-0.37278 -1.442683,-0.37278 z m -7.696454,9.72461 c -0.673826,0 -1.347529,0.16797 -1.950353,0.50379 -1.20565,0.67168 -1.949283,1.91655 -1.949283,3.25991 -0.0076,0.51177 0.41536,0.93297 0.945723,0.94157 0.542947,0.008 0.985616,-0.41765 0.977856,-0.94157 0,-0.68303 0.376095,-1.31133 0.989099,-1.65283 0.613006,-0.34151 1.363587,-0.34151 1.976594,0 0.613006,0.3415 0.986423,0.9698 0.986423,1.65283 5.77e-4,1.23841 1.926923,1.23841 1.926255,0 0,-1.34336 -0.745778,-2.58823 -1.951424,-3.25991 -0.602824,-0.33582 -1.277062,-0.50379 -1.95089,-0.50379 z"
       id="path32"
       inkscape:connector-curvature="0" />
  </g>
</svg>
