<?xml version="1.0" encoding="UTF-8" standalone="no"?>
<!-- Created with Inkscape (http://www.inkscape.org/) -->

<svg
   xmlns:osb="http://www.openswatchbook.org/uri/2009/osb"
   xmlns:dc="http://purl.org/dc/elements/1.1/"
   xmlns:cc="http://creativecommons.org/ns#"
   xmlns:rdf="http://www.w3.org/1999/02/22-rdf-syntax-ns#"
   xmlns:svg="http://www.w3.org/2000/svg"
   xmlns="http://www.w3.org/2000/svg"
   xmlns:xlink="http://www.w3.org/1999/xlink"
   xmlns:sodipodi="http://sodipodi.sourceforge.net/DTD/sodipodi-0.dtd"
   xmlns:inkscape="http://www.inkscape.org/namespaces/inkscape"
   width="150pt"
   height="150pt"
   viewBox="0 0 52.916668 52.916666"
   version="1.1"
   id="svg79"
   sodipodi:docname="AB.svg"
   inkscape:version="0.92.1 r15371">
  <defs
     id="defs73">
    <pattern
       inkscape:collect="always"
       xlink:href="#Wavywhite"
       id="pattern6160"
       patternTransform="translate(-3.1402038,0.64996107)" />
    <pattern
       inkscape:isstock="true"
       inkscape:stockid="Wavy white"
       id="Wavywhite"
       height="5.1805778"
       width="30.066020"
       patternUnits="userSpaceOnUse"
       inkscape:collect="always">
      <path
         id="path5927"
         d="M 7.597,0.061 C 5.079,-0.187 2.656,0.302 -0.01,1.788 L -0.01,3.061 C 2.773,1.431 5.173,1.052 7.472,1.280 C 9.770,1.508 11.969,2.361 14.253,3.218 C 18.820,4.931 23.804,6.676 30.066,3.061 L 30.062,1.788 C 23.622,5.497 19.246,3.770 14.691,2.061 C 12.413,1.207 10.115,0.311 7.597,0.061 z "
         style="fill:white;stroke:none;" />
    </pattern>
    <linearGradient
       id="linearGradient6085"
       osb:paint="solid">
      <stop
         style="stop-color:#ffffff;stop-opacity:1;"
         offset="0"
         id="stop6083" />
    </linearGradient>
  </defs>
  <sodipodi:namedview
     id="base"
     pagecolor="#ffffff"
     bordercolor="#666666"
     borderopacity="1.0"
     inkscape:pageopacity="0.0"
     inkscape:pageshadow="2"
     inkscape:zoom="0.4458291"
     inkscape:cx="-333.36679"
     inkscape:cy="11.105603"
     inkscape:document-units="mm"
     inkscape:current-layer="layer1"
     showgrid="false"
     units="pt"
     inkscape:pagecheckerboard="true"
     showborder="false"
     inkscape:window-width="1366"
     inkscape:window-height="706"
     inkscape:window-x="0"
     inkscape:window-y="34"
     inkscape:window-maximized="1"
     showguides="false">
    <inkscape:grid
       type="xygrid"
       id="grid81"
       units="pt"
       spacingx="0.35277778"
       spacingy="0.35277778" />
  </sodipodi:namedview>
  <metadata
     id="metadata76">
    <rdf:RDF>
      <cc:Work
         rdf:about="">
        <dc:format>image/svg+xml</dc:format>
        <dc:type
           rdf:resource="http://purl.org/dc/dcmitype/StillImage" />
        <dc:title></dc:title>
        <cc:license
           rdf:resource="http://artlibre.org/licence/lal" />
      </cc:Work>
      <cc:License
         rdf:about="http://artlibre.org/licence/lal">
        <cc:permits
           rdf:resource="http://creativecommons.org/ns#Reproduction" />
        <cc:permits
           rdf:resource="http://creativecommons.org/ns#Distribution" />
        <cc:permits
           rdf:resource="http://creativecommons.org/ns#DerivativeWorks" />
        <cc:requires
           rdf:resource="http://creativecommons.org/ns#ShareAlike" />
        <cc:requires
           rdf:resource="http://creativecommons.org/ns#Notice" />
        <cc:requires
           rdf:resource="http://creativecommons.org/ns#Attribution" />
      </cc:License>
    </rdf:RDF>
  </metadata>
  <g
     inkscape:label="Layer 1"
     inkscape:groupmode="layer"
     id="layer1"
     transform="translate(0,-244.08334)">
    <path
       style="fill:url(#pattern6160);fill-opacity:1;stroke:none;stroke-width:0.70555556;stroke-linejoin:round;stroke-miterlimit:4;stroke-dasharray:none;stroke-opacity:1;paint-order:markers stroke fill"
       d="m -91.340251,153.76401 -7.039876,1.59337 c -8.338623,2.08567 -16.867303,3.79518 -25.005283,6.48173 -6.01331,3.78131 -10.21869,10.05583 -16.36084,13.51042 -3.92543,0.11181 -4.6881,-5.03204 -7.71929,-6.77959 -6.37064,-6.24029 -16.1739,-8.35172 -24.56584,-5.50471 -9.38255,3.43446 -16.83901,13.25508 -15.60337,23.38321 6.11334,7.2339 13.72035,13.25239 19.32135,20.85375 -5.46823,40.89202 -13.44369,81.54638 -19.21438,122.35514 5.02161,8.1324 12.20055,14.81734 18.28922,22.17475 24.49346,27.18423 48.87734,54.49084 74.183219,80.92247 1.498832,1.65378 4.582787,4.70782 6.328662,1.49267 31.007251,-33.42406 61.727917,-67.12718 91.978064,-101.23534 3.5206728,-3.73945 0.016794,-9.08102 0.080563,-13.54487 -5.7539815,-37.49539 -12.6550246,-74.8339 -18.26321,-112.33154 6.5582701,-6.84227 13.7825389,-13.2647 19.9313799,-20.36522 1.1722822,-12.9805 -10.4139614,-25.28137 -23.4961279,-24.92421 -7.961619,-0.13422 -15.430391,3.94603 -20.02389,10.37899 -1.452685,1.13907 -2.642411,4.42044 -4.608441,4.25866 -6.080882,-4.26336 -10.880864,-10.98457 -17.095188,-15.14071 -10.379248,-2.46882 -20.704693,-5.36863 -31.117113,-7.57764 z m 0.352708,44.8179 c 4.854621,0.60199 10.325902,2.07674 13.625846,5.86051 7.634687,28.25458 14.576438,56.92587 20.917252,85.50203 -6.899713,8.29037 -14.898343,15.47235 -22.440874,23.18091 h -25.077551 c -7.5177,-7.68685 -15.56419,-14.90753 -22.44665,-23.18695 6.30556,-28.68358 13.34311,-57.25952 21.04735,-85.60004 2.42279,-3.25387 7.185784,-3.71397 10.786759,-5.18962 1.170851,-0.3133 2.370621,-0.56394 3.587876,-0.5684 z m -0.699645,8.25996 c -3.962155,0.36924 -7.81417,2.96671 -7.889862,7.30035 -6.12162,24.12818 -12.21228,48.26622 -18.31524,72.39911 1.96153,4.33339 6.77953,7.16027 9.85872,10.90242 3.85803,2.85013 6.32043,9.22828 11.957664,8.05182 4.522391,-0.29987 9.284212,0.60199 13.660538,-0.4319 5.688568,-5.96682 12.012706,-11.52231 17.317799,-17.73708 -1.996777,-11.14164 -5.537238,-22.34304 -8.124041,-33.50797 -3.843854,-14.47002 -7.026528,-29.16941 -11.260908,-43.50585 -1.476562,-2.24187 -4.636239,-3.32523 -7.20467,-3.46934 z m -41.363232,5.53379 c 8.21639,-0.34465 16.05723,7.96074 14.1607,16.11214 -2.17894,4.26829 -8.65538,1.63588 -7.92167,-2.8564 -1.1542,-5.02983 -8.69147,-7.19965 -11.37077,-2.23786 -1.54166,2.31731 -0.7737,7.05441 -4.67494,6.99937 -3.1199,0.7743 -4.94891,-2.29964 -4.29042,-5.05063 0.47734,-7.30708 6.73514,-13.09756 14.0971,-12.96662 z m 83.322043,0.0226 c 8.51643,-0.29988 16.886483,8.98032 13.085206,17.28883 -1.681463,1.7903 -5.684933,1.53742 -6.328662,-1.27557 -0.538652,-3.87732 -3.027496,-8.58064 -7.612315,-7.87528 -3.652145,0.73628 -5.548573,4.35018 -6.051112,7.70765 -1.602802,3.95341 -8.753544,2.41355 -7.545823,-2.27546 0.196937,-7.53174 6.906976,-13.86601 14.452706,-13.57083 z m -41.507797,54.07259 c 10.917398,-0.41177 20.524772,10.06746 19.555531,20.78728 -0.984526,4.27074 -8.452257,3.36039 -8.00551,-1.32482 0.243122,-9.42184 -12.870651,-15.08924 -19.500598,-8.31767 -3.172179,2.68139 -3.676319,6.85345 -4.637349,10.54949 -1.71908,3.51301 -8.27305,1.82387 -7.52559,-2.33028 0.46597,-7.59642 4.79778,-15.30183 12.353754,-17.80331 2.453322,-1.01377 5.103833,-1.55757 7.759762,-1.56203 z"
       id="path6036"
       inkscape:connector-curvature="0" />
  </g>
</svg>
