<?xml version="1.0" encoding="UTF-8" standalone="no"?>
<!-- Created with Inkscape (http://www.inkscape.org/) -->

<svg
   xmlns:dc="http://purl.org/dc/elements/1.1/"
   xmlns:cc="http://creativecommons.org/ns#"
   xmlns:rdf="http://www.w3.org/1999/02/22-rdf-syntax-ns#"
   xmlns:svg="http://www.w3.org/2000/svg"
   xmlns="http://www.w3.org/2000/svg"
   xmlns:xlink="http://www.w3.org/1999/xlink"
   xmlns:sodipodi="http://sodipodi.sourceforge.net/DTD/sodipodi-0.dtd"
   xmlns:inkscape="http://www.inkscape.org/namespaces/inkscape"
   width="100pt"
   height="200pt"
   viewBox="0 0 35.277776 70.555558"
   version="1.1"
   id="svg8"
   sodipodi:docname="AB.svg"
   inkscape:version="0.92.1 r15371">
  <defs
     id="defs2">
    <linearGradient
       inkscape:collect="always"
       id="linearGradient829">
      <stop
         style="stop-color:#ea5858;stop-opacity:1"
         offset="0"
         id="stop825" />
      <stop
         style="stop-color:#524656;stop-opacity:1"
         offset="1"
         id="stop827" />
    </linearGradient>
    <radialGradient
       inkscape:collect="always"
       xlink:href="#linearGradient829"
       id="radialGradient831"
       cx="15.544576"
       cy="234.17751"
       fx="15.544576"
       fy="234.17751"
       r="17.63889"
       gradientTransform="matrix(-1.8000002,4.8,-2.7059584,-1.0146076,714.57149,375.31763)"
       gradientUnits="userSpaceOnUse" />
  </defs>
  <sodipodi:namedview
     id="base"
     pagecolor="#000000"
     bordercolor="#000000"
     borderopacity="0.15686275"
     inkscape:pageopacity="0"
     inkscape:pageshadow="2"
     inkscape:zoom="1.363125"
     inkscape:cx="120.54207"
     inkscape:cy="118.42023"
     inkscape:document-units="px"
     inkscape:current-layer="layer1"
     showgrid="true"
     inkscape:showpageshadow="false"
     borderlayer="true"
     inkscape:pagecheckerboard="true"
     units="pt"
     objecttolerance="20"
     inkscape:snap-path-clip="true"
     inkscape:snap-path-mask="true"
     gridtolerance="10"
     guidetolerance="10000"
     inkscape:snap-perpendicular="true"
     inkscape:snap-tangential="true"
     inkscape:snap-bbox="true"
     inkscape:bbox-paths="true"
     inkscape:bbox-nodes="true"
     inkscape:snap-bbox-edge-midpoints="true"
     inkscape:snap-bbox-midpoints="true"
     inkscape:object-paths="true"
     inkscape:snap-intersection-paths="true"
     inkscape:snap-midpoints="true"
     inkscape:snap-smooth-nodes="true"
     inkscape:snap-center="true"
     inkscape:snap-object-midpoints="true"
     inkscape:snap-text-baseline="true"
     inkscape:snap-page="true"
     inkscape:window-width="1280"
     inkscape:window-height="962"
     inkscape:window-x="0"
     inkscape:window-y="34"
     inkscape:window-maximized="1"
     showguides="false"
     fit-margin-top="0"
     fit-margin-left="0"
     fit-margin-right="0"
     fit-margin-bottom="0">
    <inkscape:grid
       type="xygrid"
       id="grid4485"
       spacingx="0.35277779"
       spacingy="0.35277779"
       dotted="false"
       units="pt"
       empspacing="10"
       originx="-18.520524"
       originy="-1.5571881" />
  </sodipodi:namedview>
  <metadata
     id="metadata5">
    <rdf:RDF>
      <cc:Work
         rdf:about="">
        <dc:format>image/svg+xml</dc:format>
        <dc:type
           rdf:resource="http://purl.org/dc/dcmitype/StillImage" />
        <dc:title></dc:title>
        <dc:rights>
          <cc:Agent>
            <dc:title>Creative Commons 4.0</dc:title>
          </cc:Agent>
        </dc:rights>
        <dc:creator>
          <cc:Agent>
            <dc:title>Kiselev Nikolay</dc:title>
          </cc:Agent>
        </dc:creator>
        <cc:license
           rdf:resource="" />
      </cc:Work>
    </rdf:RDF>
  </metadata>
  <g
     inkscape:label="Layer 1"
     inkscape:groupmode="layer"
     id="layer1"
     transform="translate(-18.520525,-224.88724)">
    <circle
       cy="237.25218"
       cx="47.62513"
       id="circle821"
       style="opacity:1;fill:#ffffff;fill-opacity:1;stroke:#ffffff;stroke-width:1.76388896;stroke-linecap:round;stroke-linejoin:round;stroke-miterlimit:4;stroke-dasharray:none;stroke-dashoffset:0;stroke-opacity:1;paint-order:stroke markers fill"
       r="0" />
    <path
       style="font-style:normal;font-variant:normal;font-weight:normal;font-stretch:normal;font-size:9.87777805px;line-height:100%;font-family:aMavickFont;-inkscape-font-specification:aMavickFont;text-align:center;letter-spacing:-0.23812501px;word-spacing:0px;text-anchor:middle;fill:url(#radialGradient831);fill-opacity:1;stroke:none;stroke-width:0.26458335px;stroke-linecap:butt;stroke-linejoin:miter;stroke-opacity:1"
       d="m 36.115127,224.88818 c -0.0632,0.003 -0.125894,0.0127 -0.187123,0.0287 l -5.569027,1.42022 c -0.161143,0.041 -0.308242,0.12428 -0.425919,0.24112 l -2.516887,2.50149 c -0.390819,-0.8896 -1.059246,-1.6513 -1.932134,-2.15224 -0.717467,-0.41172 -1.5193,-0.61686 -2.321062,-0.61686 -0.801764,0 -1.603597,0.20514 -2.321064,0.61686 -1.434776,0.8234 -2.321093,2.34804 -2.321062,3.9947 -10e-7,0.24449 0.09762,0.47898 0.271435,0.65199 l 3.375794,3.35514 -3.634718,21.67538 c -0.04691,0.27757 0.03621,0.56125 0.225742,0.7704 l 16.710348,18.45324 c 0.368764,0.40674 1.010709,0.40674 1.379472,0 L 53.55927,257.37508 c 0.189723,-0.20905 0.273049,-0.49274 0.226286,-0.7704 l -3.634719,-21.67538 3.375797,-3.35514 c 0.17381,-0.17301 0.271434,-0.4075 0.271434,-0.65199 -1.13e-4,-1.64679 -0.886026,-3.17146 -2.321063,-3.9947 -0.717381,-0.41159 -1.519425,-0.61686 -2.321062,-0.61686 -0.80164,0 -1.602049,0.20527 -2.319432,0.61686 -0.873383,0.50104 -1.542474,1.2627 -1.933767,2.15278 l -2.516887,-2.50203 c -0.117677,-0.11684 -0.264776,-0.20012 -0.425916,-0.24112 l -5.56903,-1.42022 c -0.08997,-0.0232 -0.182931,-0.0328 -0.275784,-0.0287 z m 0.04515,1.87382 5.09252,1.29967 3.531367,3.50921 c 8.35e-4,0.001 0.0017,0.002 0.0028,0.003 l 3.503623,3.48165 v 5.5e-4 l 3.589508,21.41371 -15.721435,17.36171 -15.719802,-17.36171 3.589569,-21.41426 3.503625,-3.48165 c 8.35e-4,-0.001 0.0017,-0.002 0.0028,-0.003 l 3.531367,-3.50921 z m -12.9973,1.39157 c 0.480542,0 0.960471,0.12433 1.391985,0.37195 0.768815,0.44123 1.210749,1.23145 1.311479,2.09494 l -2.704552,2.68746 -2.704552,-2.688 c 0.100914,-0.8633 0.543329,-1.65324 1.312023,-2.0944 0.431511,-0.24762 0.913074,-0.37195 1.393617,-0.37195 z m 25.992968,0 c 0.480464,0 0.962159,0.12441 1.393615,0.37195 0.768835,0.44106 1.211018,1.23104 1.312024,2.0944 l -2.704553,2.688 -2.704551,-2.68746 c 0.100819,-0.86355 0.542525,-1.6538 1.311479,-2.09494 0.431458,-0.24754 0.911519,-0.37195 1.391986,-0.37195 z m -13.014163,4.81213 c -0.112052,0.002 -0.222808,0.0242 -0.326919,0.0654 l -1.856522,0.73957 c -0.276863,0.10947 -0.484049,0.34433 -0.557012,0.63146 l -3.713048,14.76291 c -0.07898,0.31458 0.01396,0.64727 0.244779,0.87636 l 3.713048,3.69033 c 0.17372,0.17353 0.409704,0.27136 0.656012,0.27193 h 3.71468 c 0.246307,-5.5e-4 0.482294,-0.0984 0.656012,-0.27193 l 3.713047,-3.69033 c 0.230834,-0.22909 0.32376,-0.56178 0.244782,-0.87636 l -3.713048,-14.76291 c -0.07308,-0.28724 -0.280483,-0.52214 -0.557555,-0.63146 l -1.855982,-0.73957 c -0.115154,-0.0456 -0.238334,-0.0679 -0.362274,-0.0654 z m 0.01849,1.91652 1.07105,0.42494 3.470444,13.79844 -3.069549,3.05076 h -2.946065 l -3.069003,-3.05076 3.472073,-13.79844 z m -7.427727,0.65362 c -0.480824,0 -0.961781,0.12348 -1.391986,0.37033 -0.86041,0.49373 -1.393616,1.40917 -1.393617,2.3966 -0.0072,0.50951 0.402294,0.92847 0.914936,0.93583 0.523716,0.008 0.950696,-0.4153 0.94322,-0.93583 0,-0.33111 0.174381,-0.63349 0.462908,-0.79904 0.288518,-0.16557 0.640557,-0.16557 0.929076,0 0.288526,0.16555 0.464539,0.46793 0.464539,0.79904 -0.02503,1.25476 1.881576,1.25476 1.856525,0 0,-0.98743 -0.533207,-1.90287 -1.393618,-2.3966 -0.430205,-0.24685 -0.911165,-0.37033 -1.391983,-0.37033 z m 14.853823,0 c -0.480819,0 -0.961778,0.12348 -1.391986,0.37033 -0.860411,0.49373 -1.393615,1.40917 -1.393615,2.3966 -0.0072,0.5095 0.402293,0.92847 0.914932,0.93583 0.523081,0.007 0.949045,-0.41595 0.94159,-0.93583 0,-0.33111 0.176018,-0.63349 0.464539,-0.79904 0.288524,-0.16557 0.640555,-0.16557 0.929079,0 0.28852,0.16555 0.464539,0.46793 0.464539,0.79904 -0.02515,1.25486 1.881686,1.25486 1.856523,0 0,-0.98743 -0.533206,-1.90287 -1.393616,-2.3966 -0.430208,-0.24685 -0.911168,-0.37033 -1.391985,-0.37033 z m -7.427185,9.66534 c -0.65023,0 -1.300374,0.16683 -1.882089,0.50062 -1.16343,0.6676 -1.881003,1.90533 -1.881003,3.24053 -0.0073,0.50867 0.40097,0.92727 0.912761,0.93582 0.523934,0.008 0.951253,-0.41508 0.943764,-0.93582 0,-0.67888 0.362562,-1.30354 0.9541,-1.64297 0.59154,-0.33944 1.316115,-0.33944 1.907656,0 0.59154,0.33943 0.951924,0.96409 0.951924,1.64297 5.57e-4,1.2309 1.859344,1.2309 1.8587,0 0,-1.3352 -0.719751,-2.57293 -1.883178,-3.24053 -0.581715,-0.33379 -1.232404,-0.50062 -1.882635,-0.50062 z m -10.275881,33.60379 c -0.492151,0 -0.849238,0.2997 -1.07105,0.89907 l -1.601409,4.30934 c -0.04159,0.124 -0.06255,0.25809 -0.06255,0.40277 0,0.19289 0.0629,0.35174 0.187665,0.47575 0.12477,0.11712 0.28405,0.17516 0.478138,0.17516 0.318859,0 0.543893,-0.20282 0.675594,-0.60929 l 0.249676,-0.76498 h 2.173107 l 0.229004,0.71308 c 0.138635,0.44091 0.384634,0.66119 0.738152,0.66119 0.194088,0 0.356769,-0.0547 0.488472,-0.16489 0.138634,-0.11713 0.207792,-0.27205 0.207792,-0.46494 0,-0.062 -0.01022,-0.1279 -0.03101,-0.19679 -0.01386,-0.0689 -0.03823,-0.14779 -0.07289,-0.23733 l -1.549189,-4.40233 c -0.194087,-0.53048 -0.540419,-0.79581 -1.039501,-0.79581 z m 20.378247,0 c -0.464425,0 -0.696264,0.33069 -0.696264,0.99205 v 4.31962 c 0,0.33068 0.06235,0.56163 0.187119,0.69254 0.131703,0.12401 0.384508,0.18598 0.75882,0.18598 h 1.632414 c 0.665443,0 0.998162,-0.21351 0.998162,-0.64064 0,-0.43403 -0.332719,-0.65146 -0.998162,-0.65146 h -1.185282 v -3.90604 c 0,-0.66136 -0.232385,-0.99205 -0.696807,-0.99205 z m -15.763319,0.0827 c -0.395108,0 -0.655263,0.0794 -0.780034,0.23787 -0.12477,0.15158 -0.187122,0.39607 -0.187122,0.73364 v 4.22662 c 0,0.65449 0.232382,0.98124 0.696811,0.98124 0.464422,0 0.696264,-0.32675 0.696264,-0.98124 v -1.50889 l 1.632411,2.04628 c 0.131706,0.15156 0.253004,0.27212 0.363907,0.36168 0.117841,0.0826 0.246489,0.1238 0.385123,0.1238 0.194089,0 0.353369,-0.0619 0.478136,-0.18598 0.124771,-0.13088 0.187123,-0.28582 0.187123,-0.46494 0,-0.22046 -0.135456,-0.48579 -0.405791,-0.7958 l -1.102056,-1.21966 c 0.464423,-0.0757 0.821508,-0.2583 1.071049,-0.54765 0.256474,-0.29624 0.384578,-0.66466 0.384578,-1.10558 0,-0.56492 -0.200666,-1.02293 -0.602703,-1.37428 -0.395111,-0.35136 -0.973823,-0.52711 -1.736311,-0.52711 z m 5.628864,0 c -0.665446,0 -0.998162,0.21689 -0.998162,0.65091 0,0.42714 0.332716,0.64065 0.998162,0.64065 h 0.52002 v 3.90657 c 0,0.65449 0.232386,0.98124 0.696811,0.98124 0.464419,0 0.696264,-0.32675 0.696264,-0.98124 v -3.90657 h 0.520021 c 0.665444,0 0.998161,-0.21351 0.998161,-0.64065 0,-0.43402 -0.332717,-0.65091 -0.998161,-0.65091 z m 5.57773,0 c -0.395107,0 -0.655263,0.0794 -0.780033,0.23787 -0.124771,0.15158 -0.187123,0.39607 -0.187123,0.73364 v 4.25744 c 0,0.33068 0.06236,0.56163 0.187123,0.69254 0.131702,0.12401 0.38505,0.18598 0.759362,0.18598 h 1.632415 c 0.665442,0 0.998158,-0.21351 0.998158,-0.64064 0,-0.43403 -0.332716,-0.65146 -0.998158,-0.65146 h -1.185282 v -1.14667 h 0.987826 c 0.658508,0 0.987825,-0.21351 0.987825,-0.64065 0,-0.42713 -0.329317,-0.64118 -0.987825,-0.64118 h -0.987826 v -1.09531 h 1.143397 c 0.665443,0 0.998159,-0.21351 0.998159,-0.64065 0,-0.43402 -0.332716,-0.65091 -0.998159,-0.65091 z m -10.780675,1.28131 h 0.665801 c 0.284202,0 0.499025,0.0654 0.644588,0.19624 0.152502,0.12401 0.228464,0.29976 0.228464,0.52711 0,0.24113 -0.07597,0.43041 -0.228464,0.56821 -0.152493,0.13088 -0.374671,0.19678 -0.665801,0.19678 h -0.644588 z m -5.082732,0.14488 h 0.02067 l 0.676138,2.14954 h -1.393613 z m 13.51569,8.82521 c -0.49215,0 -0.849237,0.2997 -1.07105,0.89906 l -1.600866,4.30881 c -0.04159,0.124 -0.06255,0.25863 -0.06255,0.4033 0,0.1929 0.06235,0.35121 0.187122,0.47521 0.12477,0.11712 0.284051,0.17571 0.478139,0.17571 0.318858,0 0.544434,-0.20336 0.676136,-0.60983 l 0.249675,-0.76445 h 2.173108 l 0.228462,0.71309 c 0.138634,0.44091 0.384633,0.66119 0.738149,0.66119 0.194088,0 0.357314,-0.0552 0.489017,-0.16543 0.138634,-0.11712 0.207791,-0.27204 0.207793,-0.46494 -2e-6,-0.062 -0.01019,-0.12737 -0.03101,-0.19625 -0.01387,-0.0689 -0.03822,-0.14833 -0.07289,-0.23788 l -1.549189,-4.40179 c -0.194088,-0.53047 -0.540964,-0.7958 -1.040046,-0.7958 z m -15.230785,0.0827 c -0.395106,0 -0.655262,0.0789 -0.780034,0.23734 -0.12477,0.15157 -0.187121,0.39606 -0.187121,0.73363 v 4.25799 c 0,0.33068 0.06235,0.5611 0.187121,0.692 0.131703,0.124 0.385052,0.18597 0.759363,0.18597 h 1.382739 c 0.713964,0 1.258099,-0.16506 1.632414,-0.49575 0.374312,-0.33757 0.561362,-0.78543 0.561362,-1.34346 0,-0.37891 -0.07937,-0.67185 -0.238797,-0.87852 -0.15943,-0.21357 -0.419586,-0.37865 -0.780033,-0.49575 v -0.0211 c 0.29113,-0.14466 0.484991,-0.33057 0.582033,-0.55792 0.09705,-0.22735 0.145781,-0.49269 0.145781,-0.79581 0,-0.46158 -0.197263,-0.83001 -0.59237,-1.10558 -0.388174,-0.27556 -0.897733,-0.41304 -1.528517,-0.41304 z m 7.274331,0 c -0.395105,0 -0.65472,0.0789 -0.779488,0.23734 -0.124773,0.15157 -0.187123,0.39606 -0.187123,0.73363 v 4.25799 c 0,0.33068 0.06235,0.5611 0.187123,0.692 0.131701,0.124 0.384508,0.18597 0.758819,0.18597 h 1.632413 c 0.665444,0 0.998162,-0.21351 0.998162,-0.64064 0,-0.43403 -0.332718,-0.65092 -0.998162,-0.65092 h -1.185282 v -1.14721 h 0.987826 c 0.658511,0 0.987824,-0.2135 0.987824,-0.64064 0,-0.42713 -0.329313,-0.64064 -0.987824,-0.64064 h -0.987826 v -1.09531 h 1.143943 c 0.665439,0 0.998159,-0.21352 0.998159,-0.64065 0,-0.43403 -0.33272,-0.65092 -0.998159,-0.65092 z m 14.297356,0 c -0.395107,0 -0.654717,0.0789 -0.77949,0.23734 -0.124771,0.15157 -0.18712,0.39606 -0.18712,0.73363 v 4.22663 c 0,0.65448 0.231839,0.98178 0.696264,0.98178 0.464423,0 0.696808,-0.3273 0.696808,-0.98178 v -1.50835 l 1.632414,2.04573 c 0.131703,0.15157 0.253001,0.27212 0.363907,0.36168 0.117839,0.0827 0.245944,0.12435 0.384578,0.12435 0.194088,0 0.353911,-0.0619 0.478682,-0.18598 0.12477,-0.13091 0.18712,-0.28636 0.18712,-0.46548 0,-0.22046 -0.135454,-0.48525 -0.405792,-0.79526 l -1.102055,-1.21966 c 0.464424,-0.0757 0.82151,-0.2583 1.071052,-0.54765 0.256467,-0.29624 0.384574,-0.66467 0.384574,-1.10559 0,-0.56491 -0.201208,-1.02345 -0.603246,-1.37481 -0.395108,-0.35135 -0.973823,-0.52658 -1.736311,-0.52658 z m -21.145225,1.1883 h 0.602704 c 0.547604,0 0.821374,0.19605 0.821374,0.58875 0,0.22045 -0.0584,0.3793 -0.176241,0.47575 -0.11784,0.0895 -0.333208,0.13408 -0.645133,0.13408 h -0.602704 z m 21.571687,0.093 h 0.665258 c 0.284202,0 0.499568,0.0654 0.645135,0.19625 0.152495,0.124 0.228461,0.29976 0.228461,0.52711 0,0.24112 -0.07597,0.43043 -0.228461,0.5682 -0.1525,0.13091 -0.374669,0.19625 -0.665805,0.19625 h -0.644588 z m -6.808703,0.14435 h 0.02067 l 0.675597,2.14954 H 38.61896 Z m -14.762984,2.04628 h 0.675594 c 0.374311,0 0.631066,0.0586 0.769699,0.1757 0.138634,0.11023 0.207791,0.30291 0.207791,0.57847 0,0.22046 -0.06915,0.38945 -0.207791,0.50657 -0.138633,0.11712 -0.38858,0.1757 -0.749029,0.1757 h -0.696264 z"
       id="path3495"
       inkscape:connector-curvature="0"
       sodipodi:nodetypes="ccccccsccccccccccccccsccccccccccccccccccccscccccsscccccsccccccccccccccccccccccccscccccccccsscccccccccsscccccccccssccscsccccscscccsssscsssscssscsssscccscscccscssssscssscssssscsscssssccsssccsssscscscscccccccsccscsccccscccccsscsscsscsccccscssscsscssssccsssccssssscsssscccscscccscsscsscscccscscsccccccccscscscc" />
  </g>
</svg>
