<?xml version="1.0" encoding="UTF-8" standalone="no"?>
<!-- Created with Inkscape (http://www.inkscape.org/) -->

<svg
   xmlns:osb="http://www.openswatchbook.org/uri/2009/osb"
   xmlns:dc="http://purl.org/dc/elements/1.1/"
   xmlns:cc="http://creativecommons.org/ns#"
   xmlns:rdf="http://www.w3.org/1999/02/22-rdf-syntax-ns#"
   xmlns:svg="http://www.w3.org/2000/svg"
   xmlns="http://www.w3.org/2000/svg"
   xmlns:sodipodi="http://sodipodi.sourceforge.net/DTD/sodipodi-0.dtd"
   xmlns:inkscape="http://www.inkscape.org/namespaces/inkscape"
   width="420pt"
   height="420pt"
   viewBox="0 0 148.16668 148.16666"
   version="1.1"
   id="svg79"
   sodipodi:docname="AB.svg"
   inkscape:version="0.92.1 r15371"
   inkscape:export-filename="/home/kn/git/artelbear.github.io/favicon.png"
   inkscape:export-xdpi="72"
   inkscape:export-ydpi="72">
  <defs
     id="defs73">
    <linearGradient
       id="linearGradient6085"
       osb:paint="solid">
      <stop
         style="stop-color:#ffffff;stop-opacity:1;"
         offset="0"
         id="stop6083" />
    </linearGradient>
    <meshgradient
       inkscape:collect="always"
       id="meshgradient4541"
       gradientUnits="userSpaceOnUse"
       x="-41.486668"
       y="134.17264">
      <meshrow
         id="meshrow6092">
        <meshpatch
           id="meshpatch6094">
          <stop
             path="c 49.3889,-3.66457e-06  190.8,22.771  220.847,-4.67894"
             style="stop-color:#549359;stop-opacity:1"
             id="stop6096" />
          <stop
             path="c -32.4397,41.9027  -13.1,145.88  -38.678,155.342"
             style="stop-color:#ffd44f;stop-opacity:1"
             id="stop6098" />
          <stop
             path="c -1.97557,23.401  -143.694,32.1352  -131.947,1.56017"
             style="stop-color:#f1a165;stop-opacity:1"
             id="stop6100" />
          <stop
             path="c -29.0062,5.82831  5.61834,-148.057  -50.2216,-152.223"
             style="stop-color:#5b9b9e;stop-opacity:1"
             id="stop6102" />
        </meshpatch>
      </meshrow>
    </meshgradient>
  </defs>
  <sodipodi:namedview
     id="base"
     pagecolor="#ffffff"
     bordercolor="#666666"
     borderopacity="1.0"
     inkscape:pageopacity="0.0"
     inkscape:pageshadow="2"
     inkscape:zoom="0.84821429"
     inkscape:cx="315.95789"
     inkscape:cy="264.64465"
     inkscape:document-units="mm"
     inkscape:current-layer="layer1"
     showgrid="false"
     units="pt"
     inkscape:pagecheckerboard="true"
     showborder="false"
     inkscape:window-width="1366"
     inkscape:window-height="706"
     inkscape:window-x="0"
     inkscape:window-y="34"
     inkscape:window-maximized="1"
     showguides="false"
     inkscape:snap-to-guides="false"
     inkscape:measure-start="0,0"
     inkscape:measure-end="0,0">
    <inkscape:grid
       type="xygrid"
       id="grid81"
       units="pt"
       spacingx="0.35277778"
       spacingy="0.35277778" />
  </sodipodi:namedview>
  <metadata
     id="metadata76">
    <rdf:RDF>
      <cc:Work
         rdf:about="">
        <dc:format>image/svg+xml</dc:format>
        <dc:type
           rdf:resource="http://purl.org/dc/dcmitype/StillImage" />
        <dc:title />
        <cc:license
           rdf:resource="http://artlibre.org/licence/lal" />
      </cc:Work>
      <cc:License
         rdf:about="http://artlibre.org/licence/lal">
        <cc:permits
           rdf:resource="http://creativecommons.org/ns#Reproduction" />
        <cc:permits
           rdf:resource="http://creativecommons.org/ns#Distribution" />
        <cc:permits
           rdf:resource="http://creativecommons.org/ns#DerivativeWorks" />
        <cc:requires
           rdf:resource="http://creativecommons.org/ns#ShareAlike" />
        <cc:requires
           rdf:resource="http://creativecommons.org/ns#Notice" />
        <cc:requires
           rdf:resource="http://creativecommons.org/ns#Attribution" />
      </cc:License>
    </rdf:RDF>
  </metadata>
  <g
     inkscape:label="Layer 1"
     inkscape:groupmode="layer"
     id="layer1"
     transform="translate(0,-148.83334)">
    <rect
       style="fill:url(#meshgradient4541);fill-opacity:1;stroke:none;stroke-width:3.52777743;stroke-linejoin:round;stroke-miterlimit:4;stroke-dasharray:none;stroke-opacity:1;paint-order:markers stroke fill"
       id="rect5269"
       width="148.16667"
       height="148.16667"
       x="-2.8455811e-06"
       y="148.83334"
       rx="38.805557"
       inkscape:export-filename="/home/kn/git/artelbear.github.io/rect5269.png"
       inkscape:export-xdpi="72"
       inkscape:export-ydpi="72" />
    <path
       style="fill:#ffffff;fill-opacity:1;stroke:#ffffff;stroke-width:0.70555556;stroke-linejoin:round;stroke-miterlimit:4;stroke-dasharray:none;stroke-opacity:1;paint-order:markers stroke fill"
       d="m 32.216772,194.02191 c -0.612688,0.003 -1.217148,0.12793 -1.8065,0.28587 -1.812512,0.7445 -4.209598,0.97723 -5.429097,2.61886 -3.877858,14.29839 -7.420404,28.71538 -10.594249,43.18684 3.464214,4.17715 7.514364,7.81976 11.298337,11.69795 H 38.30814 c 3.796462,-3.88912 7.822707,-7.51185 11.295596,-11.69451 -3.191585,-14.41727 -6.68559,-28.88302 -10.528433,-43.13805 -1.660986,-1.90897 -4.41501,-2.65249 -6.858531,-2.95627 z m 42.121962,0 c -0.612689,0.003 -1.21715,0.12793 -1.806503,0.28587 -1.812511,0.7445 -4.209599,0.97723 -5.429095,2.61886 -3.87786,14.29839 -7.420402,28.71538 -10.594253,43.18684 3.464219,4.17715 7.514364,7.81976 11.298339,11.69795 h 12.622876 c 3.796464,-3.88912 7.822709,-7.51185 11.295598,-11.69451 -3.191585,-14.41727 -6.685591,-28.88302 -10.528434,-43.13805 -1.660984,-1.90897 -4.415009,-2.65249 -6.858528,-2.95627 z m 42.121966,0 c -0.61269,0.003 -1.21647,0.12793 -1.80582,0.28587 -1.81251,0.7445 -4.21028,0.97723 -5.42978,2.61886 -3.87786,14.29839 -7.4204,28.71538 -10.594257,43.18684 3.464227,4.17715 7.515057,7.81976 11.299027,11.69795 h 12.62219 c 3.79647,-3.88912 7.82271,-7.51185 11.2956,-11.69451 -3.19159,-14.41727 -6.68559,-28.88302 -10.52843,-43.13805 -1.66099,-1.90897 -4.41501,-2.65249 -6.85853,-2.95627 z m -84.596315,4.16779 v 6.7e-4 c 1.292794,0.0726 2.883491,0.61921 3.626712,1.75027 2.131326,7.23303 3.732917,14.64898 5.667681,21.94938 1.302046,5.63295 3.084423,11.28492 4.089477,16.90614 -2.670273,3.13545 -5.853829,5.93812 -8.717135,8.94851 -2.202782,0.52161 -4.59936,0.0666 -6.875669,0.21785 -2.837457,0.59354 -4.077472,-2.62469 -6.019382,-4.06265 -1.549869,-1.888 -3.9742,-3.31461 -4.961533,-5.50091 3.071869,-12.17552 6.137043,-24.35347 9.218292,-36.52664 0.03812,-2.18642 1.977236,-3.49633 3.971557,-3.68262 z m 42.12196,0 v 6.7e-4 c 1.292792,0.0726 2.88349,0.61921 3.626711,1.75027 2.131325,7.23303 3.732918,14.64898 5.667681,21.94938 1.302047,5.63295 3.084422,11.28492 4.089478,16.90614 -2.670273,3.13545 -5.853829,5.93812 -8.717137,8.94851 -2.202782,0.52161 -4.59936,0.0666 -6.875669,0.21785 -2.837458,0.59354 -4.077472,-2.62469 -6.019382,-4.06265 -1.549868,-1.888 -3.974201,-3.31461 -4.961531,-5.50091 3.071866,-12.17552 6.137042,-24.35347 9.218292,-36.52664 0.03811,-2.18642 1.977236,-3.49633 3.971557,-3.68262 z m 42.121965,0 v 6.7e-4 c 1.29279,0.0726 2.88349,0.61921 3.62671,1.75027 2.13133,7.23303 3.73292,14.64898 5.66768,21.94938 1.30205,5.63295 3.08442,11.28492 4.08948,16.90614 -2.67027,3.13545 -5.85383,5.93812 -8.71714,8.94851 -2.20278,0.52161 -4.59936,0.0666 -6.87567,0.21785 -2.83745,0.59354 -4.07747,-2.62469 -6.01938,-4.06265 -1.54987,-1.888 -3.9742,-3.31461 -4.96153,-5.50091 3.07187,-12.17552 6.13704,-24.35347 9.21829,-36.52664 0.0381,-2.18642 1.97724,-3.49633 3.97156,-3.68262 z m -104.676914,2.78721 v 6.9e-4 c -0.128727,-0.001 -0.258111,-0.001 -0.387352,0.003 -3.7055727,-0.0661 -6.8547787,2.85541 -7.0950547,6.542 -0.331439,1.38791 0.589194,2.93871 2.159574,2.54808 1.963653,0.0278 1.576932,-2.36163 2.352906,-3.53075 1.348609,-2.50334 5.1422537,-1.40928 5.7232107,1.12836 -0.369308,2.26646 2.890568,3.59514 3.987327,1.44171 0.924758,-3.98402 -2.750106,-8.04129 -6.740611,-8.13284 z m 84.243917,0 v 6.9e-4 c -0.128727,-0.001 -0.258109,-0.001 -0.387349,0.003 -3.705579,-0.0661 -6.854781,2.85541 -7.095055,6.542 -0.33144,1.38791 0.589191,2.93871 2.159572,2.54808 1.963656,0.0278 1.576934,-2.36163 2.352908,-3.53075 1.348608,-2.50334 5.142252,-1.40928 5.723209,1.12836 -0.369308,2.26646 2.890572,3.59514 3.987332,1.44171 0.92476,-3.98402 -2.750108,-8.04129 -6.740617,-8.13284 z m -43.046118,0.0145 c -3.651195,0.0557 -6.823386,3.16939 -6.919546,6.85055 -0.6079,2.3657 2.991343,3.14219 3.798106,1.14761 0.252934,-1.69389 1.207056,-3.51663 3.045339,-3.88811 2.307718,-0.35589 3.56057,2.01711 3.831701,3.97331 0.324017,1.41924 2.338854,1.54642 3.185201,0.6432 1.913333,-4.19183 -2.299006,-8.87377 -6.585671,-8.72244 -0.118698,-0.003 -0.237347,-0.007 -0.35513,-0.003 z m 84.243925,0 c -3.65119,0.0557 -6.82339,3.16939 -6.91955,6.85055 -0.6079,2.3657 2.99135,3.14219 3.79811,1.14761 0.25293,-1.69389 1.20706,-3.51663 3.04535,-3.88811 2.30772,-0.35589 3.56124,2.01711 3.83238,3.97331 0.32402,1.41924 2.33817,1.54642 3.18451,0.6432 1.91335,-4.19183 -2.29898,-8.87377 -6.58567,-8.72244 -0.11874,-0.003 -0.23734,-0.007 -0.35513,-0.003 z M 32.604811,228.27128 v 0.001 c -0.170295,-0.003 -0.341776,-0.001 -0.5135,0.003 v -6.9e-4 c -1.336837,0.001 -2.670885,0.27673 -3.905741,0.7882 -3.803221,1.26204 -5.983646,5.14894 -6.218199,8.98152 -0.376221,2.09584 2.923226,2.94815 3.788507,1.17576 0.48373,-1.86473 0.737018,-3.9694 2.33371,-5.32225 3.337122,-3.41637 9.937836,-0.55757 9.815432,4.19595 -0.224873,2.36379 3.533595,2.82332 4.029147,0.66865 0.472611,-5.23937 -4.050241,-10.36493 -9.329356,-10.49127 z m 42.121957,0 v 0.001 c -0.170292,-0.003 -0.341775,-0.001 -0.513498,0.003 v -6.9e-4 c -1.336836,0.001 -2.670884,0.27673 -3.905742,0.7882 -3.803219,1.26204 -5.983645,5.14894 -6.218198,8.98152 -0.376218,2.09584 2.923226,2.94815 3.788509,1.17576 0.483729,-1.86473 0.737015,-3.9694 2.333708,-5.32225 3.337122,-3.41637 9.937837,-0.55757 9.81543,4.19595 -0.224871,2.36379 3.533597,2.82332 4.029148,0.66865 0.472612,-5.23937 -4.050241,-10.36493 -9.329357,-10.49127 z m 42.121962,0 v 0.001 c -0.17029,-0.003 -0.34177,-0.001 -0.5135,0.003 v -6.9e-4 c -1.33683,0.001 -2.67088,0.27673 -3.90574,0.7882 -3.80322,1.26204 -5.98364,5.14894 -6.21819,8.98152 -0.37622,2.09584 2.92322,2.94815 3.7885,1.17576 0.48373,-1.86473 0.73702,-3.9694 2.33371,-5.32225 3.33712,-3.41637 9.93784,-0.55757 9.81543,4.19595 -0.22487,2.36379 3.5336,2.82332 4.02915,0.66865 0.47261,-5.23937 -4.05024,-10.36493 -9.32936,-10.49127 z"
       id="rect5242"
       inkscape:connector-curvature="0" />
  </g>
</svg>
