<?xml version="1.0" encoding="UTF-8" standalone="no"?>
<!-- Created with Inkscape (http://www.inkscape.org/) -->

<svg
   xmlns:osb="http://www.openswatchbook.org/uri/2009/osb"
   xmlns:dc="http://purl.org/dc/elements/1.1/"
   xmlns:cc="http://creativecommons.org/ns#"
   xmlns:rdf="http://www.w3.org/1999/02/22-rdf-syntax-ns#"
   xmlns:svg="http://www.w3.org/2000/svg"
   xmlns="http://www.w3.org/2000/svg"
   xmlns:sodipodi="http://sodipodi.sourceforge.net/DTD/sodipodi-0.dtd"
   xmlns:inkscape="http://www.inkscape.org/namespaces/inkscape"
   width="420pt"
   height="420pt"
   viewBox="0 0 148.16668 148.16666"
   version="1.1"
   id="svg79"
   sodipodi:docname="AB.svg"
   inkscape:version="0.92.1 r15371"
   inkscape:export-filename="/home/kn/git/artelbear.github.io/favicon.png"
   inkscape:export-xdpi="78.860001"
   inkscape:export-ydpi="78.860001">
  <defs
     id="defs73">
    <marker
       inkscape:stockid="Arrow1Lstart"
       orient="auto"
       refY="0.0"
       refX="0.0"
       id="Arrow1Lstart"
       style="overflow:visible"
       inkscape:isstock="true">
      <path
         id="path4493"
         d="M 0.0,0.0 L 5.0,-5.0 L -12.5,0.0 L 5.0,5.0 L 0.0,0.0 z "
         style="fill-rule:evenodd;stroke:#57b2df;stroke-width:1pt;stroke-opacity:1;fill:#57b2df;fill-opacity:1"
         transform="scale(0.8) translate(12.5,0)" />
    </marker>
    <linearGradient
       id="linearGradient6085"
       osb:paint="solid">
      <stop
         style="stop-color:#ffffff;stop-opacity:1;"
         offset="0"
         id="stop6083" />
    </linearGradient>
  </defs>
  <sodipodi:namedview
     id="base"
     pagecolor="#ffffff"
     bordercolor="#666666"
     borderopacity="1.0"
     inkscape:pageopacity="0.0"
     inkscape:pageshadow="2"
     inkscape:zoom="0.84821429"
     inkscape:cx="317.13684"
     inkscape:cy="327.15789"
     inkscape:document-units="mm"
     inkscape:current-layer="layer1"
     showgrid="false"
     units="pt"
     inkscape:pagecheckerboard="true"
     showborder="true"
     inkscape:window-width="1366"
     inkscape:window-height="706"
     inkscape:window-x="0"
     inkscape:window-y="34"
     inkscape:window-maximized="1"
     showguides="false"
     inkscape:snap-to-guides="false"
     inkscape:measure-start="0,0"
     inkscape:measure-end="0,0">
    <inkscape:grid
       type="xygrid"
       id="grid81"
       units="pt"
       spacingx="0.35277778"
       spacingy="0.35277778" />
  </sodipodi:namedview>
  <metadata
     id="metadata76">
    <rdf:RDF>
      <cc:Work
         rdf:about="">
        <dc:format>image/svg+xml</dc:format>
        <dc:type
           rdf:resource="http://purl.org/dc/dcmitype/StillImage" />
        <dc:title></dc:title>
        <cc:license
           rdf:resource="http://artlibre.org/licence/lal" />
      </cc:Work>
      <cc:License
         rdf:about="http://artlibre.org/licence/lal">
        <cc:permits
           rdf:resource="http://creativecommons.org/ns#Reproduction" />
        <cc:permits
           rdf:resource="http://creativecommons.org/ns#Distribution" />
        <cc:permits
           rdf:resource="http://creativecommons.org/ns#DerivativeWorks" />
        <cc:requires
           rdf:resource="http://creativecommons.org/ns#ShareAlike" />
        <cc:requires
           rdf:resource="http://creativecommons.org/ns#Notice" />
        <cc:requires
           rdf:resource="http://creativecommons.org/ns#Attribution" />
      </cc:License>
    </rdf:RDF>
  </metadata>
  <g
     inkscape:label="Layer 1"
     inkscape:groupmode="layer"
     id="layer1"
     transform="translate(0,-148.83334)">
    <path
       style="fill:#57b2df;fill-opacity:1;stroke:#57b2df;stroke-width:2.46944444;stroke-linejoin:round;stroke-miterlimit:4;stroke-dasharray:none;stroke-opacity:1;paint-order:markers stroke fill"
       d="m 74.563401,165.12715 c -1.225378,0.006 -2.4343,0.25586 -3.613006,0.57174 -3.625022,1.489 -8.419198,1.95446 -10.85819,5.23772 -7.75572,28.59678 -14.840804,57.43076 -21.188506,86.37368 6.928438,8.3543 15.028728,15.63952 22.596678,23.3959 h 25.245752 c 7.592928,-7.77824 15.645421,-15.0237 22.591191,-23.38902 -6.38317,-28.83454 -13.371177,-57.76604 -21.056863,-86.2761 -3.321968,-3.81794 -8.830018,-5.30498 -13.717056,-5.91254 z m -0.704778,8.33558 v 0.001 c 2.585584,0.1452 5.76698,1.23842 7.253422,3.50054 4.26265,14.46606 7.465836,29.29796 11.335362,43.89876 2.604094,11.2659 6.168844,22.56984 8.178953,33.81228 -5.340543,6.2709 -11.707655,11.87624 -17.434271,17.89702 -4.405564,1.04322 -9.19872,0.1332 -13.751338,0.4357 -5.674916,1.18708 -8.154944,-5.24938 -12.038764,-8.1253 -3.099736,-3.776 -7.948402,-6.62922 -9.923062,-11.00182 6.143732,-24.35104 12.274084,-48.70694 18.436584,-73.05328 0.07622,-4.37284 3.954472,-6.99266 7.943114,-7.36524 z m 43.377937,5.57442 v 0.001 c -0.25745,-0.002 -0.51622,-0.002 -0.7747,0.006 -7.41116,-0.1322 -13.70956,5.71082 -14.19011,13.084 -0.66288,2.77582 1.17838,5.87742 4.31914,5.09616 3.92732,0.0556 3.15387,-4.72326 4.70582,-7.0615 2.69722,-5.00668 10.2845,-2.81856 11.44642,2.25672 -0.73862,4.53292 5.78114,7.19028 7.97466,2.88342 1.84952,-7.96804 -5.50021,-16.08258 -13.48123,-16.26568 z m -86.092237,0.029 c -7.30239,0.1114 -13.646772,6.33878 -13.839092,13.7011 -1.2158,4.7314 5.982686,6.28438 7.596212,2.29522 0.505868,-3.38778 2.414112,-7.03326 6.090678,-7.77622 4.615436,-0.71178 7.12114,4.03422 7.663402,7.94662 0.648034,2.83848 4.677708,3.09284 6.370402,1.2864 3.826666,-8.38366 -4.598012,-17.74754 -13.171342,-17.44488 -0.237396,-0.006 -0.474694,-0.014 -0.71026,-0.006 z m 44.195146,54.55974 v 0.002 c -0.340584,-0.006 -0.68355,-0.002 -1.026996,0.006 v -0.001 c -2.673672,0.002 -5.341768,0.55346 -7.811484,1.5764 -7.606438,2.52408 -11.96729,10.29788 -12.436396,17.96304 -0.752436,4.19168 5.846452,5.8963 7.577018,2.35152 0.967458,-3.72946 1.47403,-7.9388 4.667416,-10.6445 6.674244,-6.83274 19.875674,-1.11514 19.63086,8.3919 -0.449742,4.72758 7.067194,5.64664 8.058296,1.3373 0.945224,-10.47874 -8.100482,-20.72986 -18.658714,-20.98254 z"
       id="rect5242"
       inkscape:connector-curvature="0"
       sodipodi:nodetypes="cccccccccccccccccccccccccccccccccccccccccccccccccccc"
       inkscape:export-filename="/home/kn/git/artelbear.github.io/rect5242.png"
       inkscape:export-xdpi="72"
       inkscape:export-ydpi="72" />
  </g>
</svg>
