<?xml version="1.0" encoding="UTF-8" standalone="no"?>
<!-- Created with Inkscape (http://www.inkscape.org/) -->

<svg
   xmlns:dc="http://purl.org/dc/elements/1.1/"
   xmlns:cc="http://creativecommons.org/ns#"
   xmlns:rdf="http://www.w3.org/1999/02/22-rdf-syntax-ns#"
   xmlns:svg="http://www.w3.org/2000/svg"
   xmlns="http://www.w3.org/2000/svg"
   xmlns:sodipodi="http://sodipodi.sourceforge.net/DTD/sodipodi-0.dtd"
   xmlns:inkscape="http://www.inkscape.org/namespaces/inkscape"
   width="400"
   height="400"
   viewBox="0 0 105.83333 105.83334"
   version="1.1"
   id="svg8"
   inkscape:version="0.92.1 r15371"
   sodipodi:docname="Andrey.svg">
  <defs
     id="defs2" />
  <sodipodi:namedview
     id="base"
     pagecolor="#ffffff"
     bordercolor="#666666"
     borderopacity="1.0"
     inkscape:pageopacity="0.0"
     inkscape:pageshadow="2"
     inkscape:zoom="1.8175"
     inkscape:cx="200"
     inkscape:cy="200"
     inkscape:document-units="mm"
     inkscape:current-layer="layer1"
     showgrid="true"
     fit-margin-top="0"
     fit-margin-left="0"
     fit-margin-right="0"
     fit-margin-bottom="0"
     inkscape:snap-global="true"
     units="px"
     inkscape:snap-bbox="true"
     inkscape:bbox-paths="true"
     inkscape:bbox-nodes="true"
     inkscape:snap-bbox-edge-midpoints="true"
     inkscape:snap-bbox-midpoints="true"
     inkscape:snap-intersection-paths="true"
     inkscape:object-paths="true"
     inkscape:snap-smooth-nodes="true"
     inkscape:snap-midpoints="true"
     inkscape:snap-object-midpoints="true"
     inkscape:snap-center="true"
     inkscape:snap-text-baseline="true"
     inkscape:snap-page="true"
     inkscape:snap-nodes="true"
     inkscape:window-width="1280"
     inkscape:window-height="967"
     inkscape:window-x="0"
     inkscape:window-y="31"
     inkscape:window-maximized="1">
    <inkscape:grid
       type="xygrid"
       id="grid4499"
       originx="0"
       originy="0"
       spacingx="2.6458334"
       spacingy="2.6458334" />
  </sodipodi:namedview>
  <metadata
     id="metadata5">
    <rdf:RDF>
      <cc:Work
         rdf:about="">
        <dc:format>image/svg+xml</dc:format>
        <dc:type
           rdf:resource="http://purl.org/dc/dcmitype/StillImage" />
        <dc:title></dc:title>
      </cc:Work>
    </rdf:RDF>
  </metadata>
  <g
     inkscape:label="Layer 1"
     inkscape:groupmode="layer"
     id="layer1"
     transform="translate(-102.93765,-76.837554)">
    <path
       style="fill:#e6e6e6;fill-rule:evenodd;stroke:#b3b3b3;stroke-width:0.26458332px;stroke-linecap:butt;stroke-linejoin:miter;stroke-opacity:1"
       d="m 153.20848,98.004219 2.64584,-2.645837 2.64583,2.645834 v 55.562504 h 23.81251 l 2.64583,2.64584 -2.64583,2.64583 h -50.27084 l -2.64584,-2.64584 2.64584,-2.64583 h 21.16667 z"
       id="path4578"
       inkscape:connector-curvature="0"
       sodipodi:nodetypes="cccccccccccc" />
    <path
       style="fill:#e6e6e6;fill-rule:evenodd;stroke:#b3b3b3;stroke-width:0.99999994px;stroke-linecap:butt;stroke-linejoin:miter;stroke-opacity:1"
       d="M 120 150 L 100 170 L 100 230 L 120 250 L 140 250 L 150 240 L 150 250 L 170 250 L 170 150 L 150 150 L 150 160 L 140 150 L 120 150 z M 130 170 L 140 180 L 140 220 L 130 230 L 120 220 L 120 180 L 130 170 z "
       transform="matrix(0.26458333,0,0,0.26458333,102.93765,76.837554)"
       id="path4580" />
    <path
       style="fill:#e6e6e6;fill-rule:evenodd;stroke:#b3b3b3;stroke-width:0.26458332px;stroke-linecap:butt;stroke-linejoin:miter;stroke-opacity:1"
       d="m 179.66683,142.98339 2.64583,-2.64583 v -2.64584 l -2.64584,-2.64583 -7.93749,0 v -15.875 l -2.64583,-2.64583 h -2.64584 l -2.64583,2.64583 -1e-5,21.16667 2.64584,2.64583 z"
       id="path4582"
       inkscape:connector-curvature="0"
       sodipodi:nodetypes="cccccccccccc" />
    <path
       style="fill:#e6e6e6;fill-rule:evenodd;stroke:#b3b3b3;stroke-width:0.26458332px;stroke-linecap:butt;stroke-linejoin:miter;stroke-opacity:1"
       d="m 118.81265,98.004216 2.64583,-2.645831 2.64584,2.645831 v 58.208344 l -2.64584,2.64583 -2.64583,-2.64583 z"
       id="path4584"
       inkscape:connector-curvature="0"
       sodipodi:nodetypes="ccccccc" />
    <path
       style="fill:#e6e6e6;fill-rule:evenodd;stroke:#b3b3b3;stroke-width:0.26458332px;stroke-linecap:butt;stroke-linejoin:miter;stroke-opacity:1"
       d="m 187.60432,98.004219 0,58.208341 2.64583,2.64583 2.64584,-2.64583 0,-58.208341 -2.64584,-2.645831 z"
       id="path4586"
       inkscape:connector-curvature="0"
       sodipodi:nodetypes="ccccccc" />
    <path
       style="fill:#e6e6e6;fill-rule:evenodd;stroke:#b3b3b3;stroke-width:0.99999994px;stroke-linecap:butt;stroke-linejoin:miter;stroke-opacity:1"
       d="M 0 0 L 30 80 L 0 390 L 10 400 L 100 350 L 300 350 L 390 400 L 400 390 L 370 80 L 400 0 L 300 50 L 100 50 L 0 0 z M 20 20 L 100 60 L 300 60 L 380 20 L 360 80 L 388.46094 383.58984 L 310 340 L 90 340 L 11.539062 383.58984 L 40 80 L 20 20 z "
       transform="matrix(0.26458333,0,0,0.26458333,102.93765,76.837554)"
       id="path4588" />
  </g>
</svg>
