<?xml version="1.0" encoding="UTF-8" standalone="no"?>
<!-- Created with Inkscape (http://www.inkscape.org/) -->

<svg
   xmlns:dc="http://purl.org/dc/elements/1.1/"
   xmlns:cc="http://creativecommons.org/ns#"
   xmlns:rdf="http://www.w3.org/1999/02/22-rdf-syntax-ns#"
   xmlns:svg="http://www.w3.org/2000/svg"
   xmlns="http://www.w3.org/2000/svg"
   xmlns:sodipodi="http://sodipodi.sourceforge.net/DTD/sodipodi-0.dtd"
   xmlns:inkscape="http://www.inkscape.org/namespaces/inkscape"
   width="1000"
   height="1000"
   viewBox="0 0 264.58333 264.58334"
   version="1.1"
   id="svg4636"
   sodipodi:docname="AtomLabs.svg"
   inkscape:version="0.92.1 r15371"
   inkscape:export-filename="/home/mouse/KISELNIK/Documents/merch/AtomLabs.png"
   inkscape:export-xdpi="211.19998"
   inkscape:export-ydpi="211.19998">
  <defs
     id="defs4630" />
  <sodipodi:namedview
     id="base"
     pagecolor="#ffffff"
     bordercolor="#666666"
     borderopacity="1.0"
     inkscape:pageopacity="0.0"
     inkscape:pageshadow="2"
     inkscape:zoom="0.727"
     inkscape:cx="500"
     inkscape:cy="500"
     inkscape:document-units="mm"
     inkscape:current-layer="layer1"
     showgrid="true"
     units="px"
     inkscape:snap-bbox="true"
     inkscape:bbox-paths="true"
     inkscape:bbox-nodes="true"
     inkscape:snap-bbox-edge-midpoints="true"
     inkscape:snap-bbox-midpoints="true"
     inkscape:object-paths="true"
     inkscape:snap-intersection-paths="true"
     inkscape:snap-smooth-nodes="true"
     inkscape:snap-midpoints="true"
     inkscape:snap-object-midpoints="true"
     inkscape:snap-center="true"
     inkscape:snap-text-baseline="true"
     inkscape:snap-page="true"
     inkscape:window-width="1280"
     inkscape:window-height="967"
     inkscape:window-x="0"
     inkscape:window-y="31"
     inkscape:window-maximized="1"
     inkscape:snap-global="true"
     inkscape:snap-nodes="false"
     inkscape:snap-others="false"
     inkscape:snap-grids="true"
     inkscape:snap-to-guides="true"
     inkscape:object-nodes="true">
    <inkscape:grid
       type="xygrid"
       id="grid5181"
       spacingx="2.6458333"
       spacingy="2.6458333" />
  </sodipodi:namedview>
  <metadata
     id="metadata4633">
    <rdf:RDF>
      <cc:Work
         rdf:about="">
        <dc:format>image/svg+xml</dc:format>
        <dc:type
           rdf:resource="http://purl.org/dc/dcmitype/StillImage" />
        <dc:title></dc:title>
      </cc:Work>
    </rdf:RDF>
  </metadata>
  <g
     inkscape:label="Layer 1"
     inkscape:groupmode="layer"
     id="layer1"
     transform="translate(0,-32.41665)">
    <g
       id="g4551">
      <circle
         r="132.29167"
         cy="164.70831"
         cx="132.29167"
         id="path5643"
         style="opacity:1;fill:#0e0b09;fill-opacity:1;stroke:none;stroke-width:1.32291663;stroke-linecap:round;stroke-linejoin:round;stroke-miterlimit:4;stroke-dasharray:none;stroke-dashoffset:0;stroke-opacity:1" />
      <path
         inkscape:connector-curvature="0"
         id="ellipse5496"
         d="m 129.68315,62.102958 c -1.05945,-0.01441 -1.61733,0.726783 0.18557,2.977786 0.249,-0.02971 0.47689,-0.06297 0.68607,-0.101028 4.05329,-0.729728 0.89411,-2.85276 -0.87164,-2.876758 z m 9.69469,0.193813 c -2.18706,0.03929 -4.8298,1.466091 0.37113,3.020052 2.75532,-2.241967 1.32992,-3.050613 -0.37113,-3.020052 z m -16.57035,0.190717 c -2.07814,0.03874 -6.50661,2.920115 -0.50566,3.078817 2.03776,-2.339454 1.59421,-3.099112 0.50566,-3.078817 z m 23.95271,0.782463 c -0.86511,0.0419 -1.20537,0.778848 0.34123,2.866446 0.49871,-0.01541 0.91731,-0.05266 1.2639,-0.109276 3.25067,-0.526773 0.22593,-2.671538 -1.42575,-2.756655 -0.0619,-0.0032 -0.12171,-0.0033 -0.17938,-5.28e-4 z m -32.68504,0.524216 c -0.0466,-0.0018 -0.0942,-5.28e-4 -0.14278,0.0036 -1.70954,0.144595 -4.54026,3.912495 0.12061,2.990155 0.21869,-0.0431 0.45394,-0.09629 0.70669,-0.16082 0.46416,-2.073997 0.0139,-2.803986 -0.68452,-2.832946 z m 42.53281,1.228846 c -2.29502,-0.02891 -5.23004,1.311266 0.0345,3.021601 3.14833,-2.148285 1.75048,-2.99911 -0.0345,-3.021601 z m -50.89505,0.832462 c -0.62267,0.0097 -1.49681,0.180849 -2.68397,0.582979 -0.13469,2.391344 0.71476,2.984014 1.6644,2.762327 1.69776,-0.394896 3.71783,-3.387395 1.01957,-3.345306 z m 58.17071,1.241218 c -0.6975,0.0091 -1.05915,0.762448 -0.27422,2.972632 1.10016,0.243354 1.83872,0.269131 2.30254,0.157213 1.85952,-0.45164 -0.69674,-3.147131 -2.02832,-3.129845 z m -66.335007,1.165958 c -0.611413,-7.6e-5 -1.528097,0.29097 -2.839129,1.028336 0.2058,2.444631 0.956124,3.143819 1.741725,2.988611 1.568793,-0.308221 3.281022,-4.01667 1.097404,-4.016947 z m 36.176217,0.426798 c -1.65756,0.07729 -4.48615,2.749103 -0.2268,2.781398 0.20941,0.0016 0.43632,-0.0031 0.68092,-0.01494 0.96142,-2.135317 0.41413,-2.806934 -0.45412,-2.766449 z m -8.79006,0.26546 c -0.42696,0.0026 -0.92824,0.03713 -1.51235,0.109793 -0.57634,2.174421 0.0932,2.878974 1.00875,2.855623 1.82537,-0.04693 4.63086,-2.990704 0.5036,-2.965416 z m 16.81983,0.171132 c -2.09647,0.02837 -5.40466,1.62257 -0.43711,2.781912 2.73854,-2.087804 1.87153,-2.801323 0.43711,-2.781912 z m -24.28518,0.535042 c -0.54537,0.01029 -1.27852,0.146258 -2.23965,0.453601 -0.27316,2.287769 0.28452,3.072533 1.03658,3.078817 1.62164,0.01428 4.1481,-3.587932 1.20307,-3.532418 z m 30.90672,0.417518 c -0.73159,0.02512 -1.06498,0.742705 -0.006,2.815419 0.23449,0.01969 0.45043,0.03141 0.64999,0.0366 4.06016,0.100345 1.09607,-2.71705 -0.49278,-2.847891 -0.052,-0.0043 -0.10277,-0.0058 -0.15154,-0.0041 z m 23.04808,0.200514 c -1.22025,0.01926 -1.6211,0.847935 1.17266,3.2484 0.27598,-0.0403 0.52676,-0.08637 0.75463,-0.133503 4.41577,-0.931382 0.10646,-3.147029 -1.92729,-3.114897 z m -61.76807,1.055653 c -0.57897,-0.01182 -1.40274,0.142674 -2.53347,0.539167 -0.0371,2.09788 0.61047,2.782904 1.37369,2.74944 1.58474,-0.06954 3.66865,-3.237408 1.15978,-3.288607 z m -19.962564,0.384015 c -0.620621,-0.03754 -1.602856,0.271118 -3.061805,1.145856 0.411279,2.195826 1.233916,2.771492 2.022647,2.572639 1.511858,-0.380721 2.901019,-3.60587 1.039158,-3.718495 z m 66.921594,0.325252 c -1.68996,0.02549 -2.94211,0.924741 0.79999,2.936035 3.59295,-1.871433 1.1153,-2.964939 -0.79999,-2.936035 z m -54.68159,1.523687 c -0.0686,-0.0032 -0.14136,-0.0032 -0.21855,5.28e-4 -0.57004,0.0274 -1.37759,0.248218 -2.482434,0.749471 0.09612,1.997705 0.707079,2.677603 1.402554,2.666453 1.51342,-0.02402 3.42613,-3.318509 1.29843,-3.416439 z m 62.06498,0.842253 c -0.63263,0.04425 -0.88835,0.74826 0.0252,2.715422 0.4617,0.08079 0.85337,0.124582 1.18297,0.138657 3.39906,0.143498 0.18356,-2.951432 -1.20822,-2.854079 z m 16.86106,0.15773 c -1.83227,0.0058 -4.0443,1.492387 0.29433,3.233969 l 0.0309,0.01752 c 2.29535,-2.364388 1.09984,-3.255977 -0.32526,-3.251493 z m -98.982413,1.153589 c -0.608098,-0.0078 -1.556961,0.3715 -2.949951,1.384515 0.52875,2.062712 1.311929,2.639911 2.035017,2.479856 1.499059,-0.33317 2.739232,-3.840891 0.914934,-3.864371 z m 12.438459,0.728854 c -0.590519,0.0011 -1.482063,0.279698 -2.762328,0.992253 0.289598,1.857073 0.922625,2.513779 1.586573,2.523153 1.55613,0.02082 3.284751,-3.518929 1.175755,-3.515406 z m 77.578644,1.317505 c -1.7977,-0.05042 -3.22088,0.776781 0.54535,2.917994 4.01043,-1.676443 1.49203,-2.860849 -0.54535,-2.917994 z m 15.23171,1.161321 c -0.94777,0.04394 -1.39173,0.744888 0.20257,2.6314 l 0.55102,0.518033 c 4.29494,-1.037221 1.23447,-3.07603 -0.55772,-3.149433 -0.0672,-0.0027 -0.13269,-0.0029 -0.19587,0 z m -100.149927,1.04122 c -0.0568,-0.0033 -0.116937,-0.0027 -0.180408,0.0016 -0.56871,0.0382 -1.40959,0.389939 -2.595835,1.229877 0.431535,1.728007 1.049889,2.370696 1.652551,2.406148 1.489993,0.08773 2.884563,-3.535094 1.123692,-3.637572 z m -12.47093,0.380407 c -0.621965,0.03449 -1.565167,0.498173 -2.916448,1.661313 0.700347,1.874592 1.501519,2.424471 2.19584,2.2912 1.562296,-0.299568 2.586501,-4.055996 0.720608,-3.952513 z m 104.604487,0.818543 c -0.55249,0.01737 -0.9201,0.71397 -0.6438,2.697378 0.96606,0.431976 1.64026,0.596463 2.08811,0.580403 1.88159,-0.06665 -0.22883,-3.316011 -1.44431,-3.277781 z m 14.62812,2.341715 c -1.18942,0.04512 -1.56616,1.003673 1.31132,3.680867 l 5.2e-4,0.0016 c 0.007,-0.0031 0.0121,-0.0051 0.0191,-0.0072 l 1.46905,-2.743254 c -0.7921,-0.566134 -1.98614,-0.962814 -2.79995,-0.931944 z M 79.973135,84.125281 c -0.579973,-7.92e-4 -1.482622,0.399773 -2.802017,1.468018 0.564115,1.65353 1.242541,2.225672 1.861826,2.20409 1.517248,-0.05329 2.680108,-3.669793 0.940191,-3.672108 z m 105.374585,1.379361 c -0.92764,-0.05053 -1.20817,0.734988 0.73143,3.243761 0.2615,0.01441 0.50082,0.02058 0.71957,0.01958 4.45034,-0.02272 0.31993,-3.166888 -1.451,-3.263348 z M 67.502717,85.617526 c -0.600041,0.01433 -1.502704,0.529154 -2.776758,1.891722 0.820694,1.709614 1.603497,2.247702 2.239655,2.155636 1.493617,-0.216607 2.179596,-3.905048 0.653082,-4.04375 -0.03733,-0.0034 -0.07597,-0.0046 -0.115979,-0.0036 z m 5.713825,3.244792 c -0.567115,0.02035 -1.426048,0.483787 -2.649956,1.685026 0.646279,1.540414 1.309556,2.113264 1.886051,2.131408 1.544183,0.04881 2.465253,-3.877501 0.763905,-3.816434 z m 119.691878,2.341716 c -1.55095,-0.04627 -3.01931,0.943065 0.23556,3.096855 l 0.0237,0.02011 c 2.92516,-1.988613 1.29167,-3.070689 -0.25927,-3.116961 z m -131.748383,0.23711 c -0.611012,0.007 -1.531866,0.584415 -2.822119,2.15615 0.942993,1.603484 1.772837,2.055734 2.41388,1.899452 1.505482,-0.365179 1.969714,-4.073554 0.408239,-4.055602 z m 5.991657,2.715934 c -0.564825,0.0094 -1.455827,0.525778 -2.761813,1.916464 0.616391,1.332532 1.238582,1.851024 1.787086,1.886051 1.546611,0.09875 2.505632,-3.64355 1.083486,-3.797876 -0.03478,-0.0038 -0.07111,-0.0053 -0.108759,-0.0046 z m 130.992726,2.289653 c -0.70107,0.02333 -1.01941,0.668062 -0.033,2.478826 l 0.40927,0.580404 c 4.56204,-0.155728 1.16606,-3.110564 -0.37628,-3.05923 z M 55.124568,97.825575 c -0.601983,0.0189 -1.466199,0.650393 -2.612329,2.355115 1.004419,1.4679 1.819148,1.92318 2.424188,1.81801 1.553396,-0.26864 1.726539,-4.221419 0.188141,-4.173125 z m 5.079298,2.917475 c -1.102859,0.0334 -1.862771,0.74602 -0.0933,2.55048 l 0.298964,0.367 c 3.750336,-1.56459 1.406206,-2.96634 -0.205668,-2.91748 z m 143.108504,1.16596 c -0.85767,0.0349 -1.07917,0.96647 0.83607,3.65716 l 5.3e-4,5.3e-4 c 0.007,-10e-4 0.0116,-0.002 0.0186,-0.002 l 1.87111,-2.24533 c -0.71721,-0.77382 -1.96948,-1.4411 -2.72625,-1.41028 z m -153.336172,2.74893 c -0.04405,-0.004 -0.08973,-0.003 -0.13711,0.002 -0.59333,0.0564 -1.448808,0.76388 -2.583466,2.60976 0.928648,1.25748 1.688929,1.66435 2.268522,1.58296 1.583118,-0.22164 1.817478,-4.08409 0.452054,-4.19427 z m 6.060211,1.55152 c -0.560327,0.009 -1.377416,0.63367 -2.468517,2.35924 0.807653,1.11987 1.479822,1.55374 2.008216,1.57059 1.645736,0.0513 1.89225,-3.95201 0.460301,-3.92983 z m -11.302393,6.74113 c -1.537372,-0.0291 -3.140428,0.91687 -0.39278,2.76593 l 0.390716,0.31855 c 3.011131,-2.05154 1.539435,-3.05541 0.0021,-3.08448 z m 6.101962,0.18969 c -0.04133,-0.003 -0.08328,-0.003 -0.125771,5.2e-4 -0.532012,0.048 -1.149688,0.67693 -1.727294,2.33347 l 0.338142,0.61906 c 0.720665,0.45787 1.278831,0.63893 1.699971,0.63195 1.792008,-0.0316 1.096251,-3.4809 -0.185048,-3.58499 z m -9.929222,6.4736 c -0.612513,-0.0218 -1.40458,0.74807 -2.257693,3.00769 1.082514,0.99469 1.877437,1.30385 2.431918,1.20719 1.652266,-0.28649 1.173308,-4.16699 -0.174225,-4.21488 z m 6.183406,0.30051 c -0.04398,-0.003 -0.08858,-0.002 -0.134018,0.004 -0.568989,0.0681 -1.248304,0.82588 -1.92729,2.80408 1.003251,0.94731 1.748056,1.31877 2.278316,1.32575 1.778936,0.0253 1.146241,-4.03769 -0.217008,-4.13344 z m -3.387575,7.43287 c -0.604321,-0.0324 -1.336364,0.71729 -2.008731,2.96542 0.931147,0.70334 1.633135,0.97823 2.145842,0.97524 1.903427,-0.0129 1.1924,-3.86929 -0.137111,-3.94066 z m -6.870506,0.62319 c -0.610732,0.0341 -1.208435,0.77929 -1.482966,2.83655 l 0.485044,0.57319 c 0.849806,0.32332 1.470973,0.39147 1.908731,0.29432 1.838605,-0.41188 0.4328,-3.77909 -0.910809,-3.70406 z m 183.358369,68.93599 c -0.32993,0.44077 -0.64854,1.1676 -0.9206,2.2876 1.00268,0.66897 1.74027,0.9292 2.26388,0.92421 1.48468,-0.0153 1.24637,-2.16724 0.4438,-3.21181 z m 6.74422,0 c -0.11543,0.35684 -0.22288,0.76915 -0.31803,1.25359 1.22847,0.73617 2.0851,0.96111 2.65304,0.87473 0.94911,-0.145 1.09011,-1.1623 0.81133,-2.12832 z m -1.19483,6.11331 c -0.60222,-0.0213 -1.40505,0.76507 -2.31284,3.07005 1.03541,1.01242 1.80806,1.32643 2.35666,1.22678 1.63479,-0.29457 1.28109,-4.25004 -0.0438,-4.29683 z m -7.62719,0.69844 c -0.57754,0.0429 -1.30106,0.79317 -2.0644,2.82573 0.96446,0.86314 1.69057,1.18175 2.21543,1.1608 1.73848,-0.07 1.27094,-3.87126 -0.0376,-3.98601 -0.0372,-0.003 -0.0749,-0.003 -0.1134,-5.3e-4 z m 3.79633,7.23906 c -0.63088,-0.0385 -1.44797,0.67502 -2.34275,2.79841 1.20508,1.15493 2.06854,1.48837 2.64996,1.35925 1.56775,-0.34994 1.08072,-4.07304 -0.30721,-4.15766 z m -7.67204,0.16597 c -0.58036,0.0403 -1.29369,0.70933 -2.04378,2.49945 0.99107,0.90916 1.73648,1.27915 2.27522,1.30668 1.86577,0.0958 1.2517,-3.90908 -0.23144,-3.80613 z m -3.94478,6.78546 c -0.55613,0.0128 -1.38938,0.65132 -2.53347,2.40512 0.76097,1.12731 1.41252,1.56165 1.93606,1.57471 1.63053,0.0401 2.01863,-4.01251 0.59741,-3.97983 z m 7.34575,0.52525 c -0.0445,-0.003 -0.0903,-0.003 -0.13762,0.002 -0.59278,0.0595 -1.40732,0.76352 -2.42883,2.59223 1.0146,1.23464 1.80505,1.63107 2.38244,1.54688 1.57703,-0.22893 1.56363,-4.04142 0.18401,-4.14117 z m -12.37763,6.04423 c -0.57243,-0.0155 -1.40118,0.5515 -2.50357,2.15718 0.89011,1.29044 1.62161,1.76101 2.1809,1.75204 1.57703,-0.0265 1.78554,-3.86961 0.32267,-3.90922 z m 6.78391,1.25617 c -0.56269,0.0343 -1.27083,0.62005 -2.05873,2.16388 l 0.25206,0.70669 c 0.95926,0.77375 1.67112,0.99443 2.17213,0.88813 1.56022,-0.3321 1.07252,-3.84637 -0.36546,-3.7587 z m -152.302687,1.31286 c -0.834868,0.006 -1.141678,0.80425 0.521641,3.17676 4.590639,-0.31451 1.0722,-3.1886 -0.521641,-3.17676 z m 140.120927,3.49891 c -0.56026,0.0123 -1.4111,0.53288 -2.61645,1.92884 0.69976,1.32781 1.35197,1.84208 1.89894,1.8742 1.5423,0.0906 2.24812,-3.65225 0.82575,-3.79891 -0.0348,-0.004 -0.0709,-0.005 -0.10824,-0.004 z m 7.18442,1.47627 c -0.5973,0.001 -1.49328,0.61768 -2.74274,2.30924 0.93407,1.74994 1.74906,2.24837 2.3747,2.08656 1.46905,-0.38005 1.89448,-4.39861 0.36804,-4.3958 z m -141.165239,0.48195 c -0.534582,0.0352 -0.908466,0.74549 -0.762875,2.69016 1.143913,0.69711 1.915416,0.98421 2.406147,1.00256 1.821846,0.0682 -0.233421,-3.56844 -1.534513,-3.69117 -0.03696,-0.003 -0.07312,-0.004 -0.108759,-0.002 z m 127.506699,3.72056 c -0.51312,0.0324 -1.21615,0.4783 -2.12007,1.60822 l 0.0969,0.69741 c 0.73635,0.89345 1.35036,1.23133 1.83142,1.22833 1.56348,-0.011 1.73109,-3.63128 0.19175,-3.53396 z m -121.805246,1.88554 c -0.935251,-0.0422 -1.289129,0.72428 0.543806,3.15201 5.146169,-0.0437 1.24167,-3.07153 -0.543806,-3.15201 z m 129.336566,0.1768 c -0.60702,0.0228 -1.51592,0.55513 -2.7948,1.94739 0.84327,1.71345 1.63946,2.24455 2.28244,2.14275 1.50971,-0.23916 2.17562,-3.96938 0.62988,-4.08808 -0.0378,-0.003 -0.077,-0.004 -0.11752,-0.002 z m -13.33329,2.76593 c -0.56743,0.006 -1.45614,0.45008 -2.76233,1.62317 0.52815,1.78656 1.18346,2.39904 1.78966,2.36852 1.48518,-0.0748 2.67496,-4.00875 0.97267,-3.99169 z M 78.748926,242.5624 c -0.561385,0.0343 -1.003569,0.77392 -0.993282,2.80305 1.144869,0.73226 1.93061,1.03534 2.442229,1.05669 1.899397,0.0793 0.01613,-3.72325 -1.335029,-3.85716 -0.03839,-0.004 -0.07649,-0.005 -0.113918,-0.003 z m 115.452774,1.35669 c -0.6041,0.0369 -1.50312,0.50809 -2.76955,1.68708 0.76144,1.89054 1.56458,2.44235 2.23502,2.30563 1.50852,-0.30773 2.3468,-4.10356 0.53453,-3.99271 z m -123.39646,0.90617 c -1.113967,0.0417 -1.564686,0.89089 0.921121,3.23706 4.270671,-1.18766 1.168579,-3.13688 -0.690197,-3.235 -0.07949,-0.004 -0.156658,-0.005 -0.230924,-0.002 z m 110.06626,0.83864 c -0.57071,-0.0478 -1.48419,0.28874 -2.84944,1.27369 0.45161,1.73579 1.08405,2.37513 1.69482,2.40306 1.49641,0.0685 2.86675,-3.5335 1.15462,-3.67675 z m -95.670101,1.66544 c -0.871243,-0.0228 -1.198308,0.68373 0.516486,2.8716 4.79313,-0.12685 1.146801,-2.82819 -0.516486,-2.8716 z m 102.033401,1.58709 c -0.61069,0.003 -1.54675,0.40187 -2.90202,1.44379 0.61783,2.05915 1.42863,2.62358 2.14739,2.44893 1.49045,-0.36203 2.58669,-3.90314 0.75463,-3.89272 z m -108.912154,0.29278 c -0.04604,-0.002 -0.09079,-5.3e-4 -0.134018,0.004 -0.628755,0.0687 -0.938845,0.86115 -0.331953,2.99119 1.342532,0.48171 2.208965,0.61545 2.724696,0.52937 1.854835,-0.30966 -0.831432,-3.46512 -2.258725,-3.52468 z m 95.165464,0.36236 c -0.57123,0.008 -1.42403,0.30185 -2.63861,1.04122 0.34276,1.88324 0.97691,2.5433 1.61956,2.54429 1.50618,0.002 3.05917,-3.61463 1.01905,-3.58551 z m -79.549221,1.73348 c -1.760083,-0.001 -4.166425,1.66799 0.223191,2.96232 l 0.09845,0.0402 c 1.784474,-2.21912 0.882621,-3.00177 -0.321641,-3.00253 z m 72.194191,1.53142 c -0.57577,-0.0295 -1.45048,0.19236 -2.71387,0.80668 0.17874,2.01117 0.81755,2.68388 1.51183,2.65924 1.49959,-0.0532 3.25837,-3.36067 1.20204,-3.46592 z m 13.75287,0.3304 c -0.60992,-0.0429 -1.5911,0.31494 -3.06593,1.33606 0.37526,2.26982 1.11829,2.94122 1.85615,2.80769 1.53004,-0.27692 3.03955,-4.01504 1.20978,-4.14375 z m -94.375791,0.667 c -1.211866,0.0333 -1.696769,0.86313 0.956686,3.19634 5.102533,-1.09472 1.063082,-3.25174 -0.956686,-3.19634 z m 15.377071,0.48762 c -1.454219,-0.0267 -2.693841,0.72454 -0.10773,2.46027 l 0.62061,0.32474 c 3.05892,-1.7257 1.13523,-2.75472 -0.51288,-2.78501 z m 57.41402,1.00514 c -0.5788,0.006 -1.41482,0.21093 -2.57728,0.70618 -0.0843,2.15907 0.47218,2.91721 1.17627,2.93397 1.58158,0.0376 3.90912,-3.66654 1.40101,-3.64015 z m -48.8554,1.06648 c -1.75017,0.06 -4.38855,2.4636 0.49999,2.98706 l 0.051,0.0124 c 1.09787,-2.1693 0.52607,-2.94622 -0.38453,-2.99789 -0.0543,-0.003 -0.11004,-0.003 -0.1665,-0.002 z m -15.535828,0.54638 c -0.04737,-0.002 -0.09372,-10e-4 -0.138657,0.004 -0.653579,0.0683 -1.029795,0.90375 -0.554115,3.15871 1.35108,0.51822 2.236028,0.6652 2.774182,0.57783 1.935487,-0.3146 -0.612991,-3.66744 -2.08141,-3.74015 z m 77.939978,0.0732 c -0.61515,-0.001 -1.53185,0.26824 -2.83707,0.95359 0.25318,2.28139 1.01997,2.93518 1.8077,2.79274 1.57262,-0.28439 3.22631,-3.74156 1.02937,-3.74633 z m -21.74089,0.33762 c -0.54452,0.001 -1.27236,0.11728 -2.22264,0.39123 -0.19876,2.14667 0.38292,2.89334 1.13452,2.91129 1.62059,0.0388 4.02852,-3.3087 1.08812,-3.30252 z m -32.57112,0.59071 c -0.0985,-0.003 -0.19984,-0.002 -0.30257,0.001 -2.11329,0.0715 -4.91544,1.4386 -0.1866,2.79789 2.8661,-1.99241 1.96711,-2.75693 0.48917,-2.79892 z m 24.20631,0.65309 c -0.48877,-0.005 -1.09823,0.0492 -1.84843,0.17989 -0.48965,2.28203 0.17864,2.9895 1.06339,2.92985 1.70311,-0.1149 4.20642,-3.07245 0.78504,-3.10974 z m -8.61378,0.42421 c -0.36156,0.003 -0.78597,0.0376 -1.28142,0.11083 -0.51349,2.17884 0.0445,2.88501 0.82009,2.86078 1.54619,-0.0484 3.95644,-3.00003 0.46133,-2.97161 z m -8.44213,0.0283 c -1.31756,0.0311 -2.34767,0.77256 -0.36185,2.52264 l 1.0706,0.24588 c 3.15445,-1.67424 0.98526,-2.80846 -0.70875,-2.76852 z m 39.01689,1.04019 c -0.0731,-0.003 -0.15034,-0.003 -0.23195,5.3e-4 -0.60267,0.0249 -1.44109,0.22383 -2.57264,0.66958 -0.0212,2.48501 0.8277,3.07928 1.7376,2.82727 1.57566,-0.4364 3.33301,-3.41021 1.06699,-3.49736 z m -62.03507,0.43711 c -1.1246,0.0544 -1.57428,0.82488 0.88864,2.91284 4.7349,-1.10514 0.98569,-3.0036 -0.88864,-2.91284 z m 53.18573,1.82884 c -0.52946,-0.009 -1.26909,0.1352 -2.2711,0.5005 -0.0682,2.38249 0.66538,2.99942 1.46905,2.80769 1.43643,-0.3426 3.09639,-3.26822 0.80205,-3.30819 z m -42.92559,0.42009 c -1.86599,-0.0672 -5.05955,2.64193 0.30721,3.09325 l 0.11134,0.0211 c 1.17196,-2.28222 0.55887,-3.07918 -0.41855,-3.11438 z m 34.0814,1.42369 c -1.73355,0.0138 -3.71963,1.11581 -0.74895,2.8149 l 1.16905,0.0268 c 2.44227,-2.01897 1.10951,-2.85387 -0.4201,-2.84171 z m -25.81916,0.20979 c -1.83124,-0.0531 -4.19774,1.15622 -0.51443,2.66285 l 0.717,0.20566 c 2.32238,-2.0225 1.22172,-2.8272 -0.20257,-2.86851 z m 17.91569,0.21855 c -2.11339,-0.0683 -6.70733,2.61188 -0.6134,3.08243 2.14699,-2.25673 1.72041,-3.04663 0.6134,-3.08243 z m -9.04419,0.12887 c -1.82866,-0.0348 -4.9029,3.60278 0.73195,3.05923 l 0.0551,0.002 c 0.61815,-2.27083 0.0441,-3.04548 -0.7871,-3.06129 z"
         style="color:#000000;font-style:normal;font-variant:normal;font-weight:normal;font-stretch:normal;font-size:medium;line-height:normal;font-family:sans-serif;font-variant-ligatures:normal;font-variant-position:normal;font-variant-caps:normal;font-variant-numeric:normal;font-variant-alternates:normal;font-feature-settings:normal;text-indent:0;text-align:start;text-decoration:none;text-decoration-line:none;text-decoration-style:solid;text-decoration-color:#000000;letter-spacing:normal;word-spacing:normal;text-transform:none;writing-mode:lr-tb;direction:ltr;text-orientation:mixed;dominant-baseline:auto;baseline-shift:baseline;text-anchor:start;white-space:normal;shape-padding:0;clip-rule:nonzero;display:inline;overflow:visible;visibility:visible;opacity:1;isolation:auto;mix-blend-mode:normal;color-interpolation:sRGB;color-interpolation-filters:linearRGB;solid-color:#000000;solid-opacity:1;vector-effect:none;fill:#e5dfda;fill-opacity:1;fill-rule:nonzero;stroke:#e5dfda;stroke-width:2.64583373;stroke-linecap:round;stroke-linejoin:round;stroke-miterlimit:4;stroke-dasharray:none;stroke-dashoffset:0;stroke-opacity:1;color-rendering:auto;image-rendering:auto;shape-rendering:auto;text-rendering:auto;enable-background:accumulate" />
      <g
         style="stroke-width:1.12546575"
         transform="matrix(-0.89885173,0,0,0.87830889,111.03385,20.61588)"
         id="g5487">
        <path
           style="fill:none;fill-opacity:1;stroke:#d25045;stroke-width:5.95559072;stroke-miterlimit:4;stroke-dasharray:none;stroke-opacity:1"
           d="m 70.203308,131.6353 v 2.01825 2.01825 h 1.24349 c 1.15022,0 1.26113,0.0946 1.47277,1.26141 0.12582,0.69377 0.23058,5.24001 0.23282,10.10307 l 0.004,8.84168 -9.72534,13.19087 c -7.83899,10.63217 -9.81653,13.54107 -10.19679,14.99626 -1.32901,5.08571 1.61483,10.49741 6.94997,12.77698 l 2.08405,0.89086 16.68104,0.0454 v 0.003 l 0.425299,-0.001 0.425352,0.001 v -0.003 l 16.68105,-0.0454 2.08475,-0.89086 c 5.335171,-2.27957 8.278981,-7.69127 6.949971,-12.77698 -0.38027,-1.45519 -2.35851,-4.36409 -10.197501,-14.99626 l -9.725332,-13.19087 0.004,-8.84168 c 0.003,-4.86306 0.106982,-9.4093 0.232849,-10.10307 0.211601,-1.16683 0.321803,-1.26141 1.472042,-1.26141 h 1.243488 v -2.01825 -2.01825 l -9.170987,0.13338 z"
           id="path5372"
           inkscape:connector-curvature="0" />
        <path
           inkscape:connector-curvature="0"
           style="opacity:1;fill:#e5dfda;fill-opacity:1;stroke:none;stroke-width:5.95559072;stroke-linejoin:round;stroke-miterlimit:4;stroke-dasharray:none;stroke-dashoffset:0;stroke-opacity:1"
           d="m 70.203467,131.6354 v 2.01796 2.01848 h 1.243335 c 1.150218,0 1.261136,0.0946 1.472776,1.26143 0.12582,0.69377 0.230823,5.2402 0.233061,10.10325 l 0.0036,8.84133 -9.724988,13.19092 c -7.838987,10.63217 -9.816531,13.54131 -10.196793,14.9965 -1.32901,5.08571 1.614824,10.49743 6.949964,12.777 l 2.083594,0.8909 16.681151,0.045 v 0.003 l 0.425299,-0.001 h 5.08e-4 v -66.01145 h -5.29e-4 z"
           id="rect5450" />
        <path
           id="path5460"
           d="m 88.546671,131.63543 v 2.01796 2.01848 h -1.243335 c -1.150218,0 -1.261136,0.0946 -1.472777,1.26143 -0.125819,0.69377 -0.230822,5.2402 -0.23306,10.10325 l -0.0036,8.84133 9.724988,13.19092 c 7.838983,10.63217 9.816533,13.54131 10.196793,14.9965 1.32901,5.08571 -1.61482,10.49743 -6.949964,12.777 l -2.083594,0.8909 -16.681151,0.045 v 0.003 l -0.425299,-0.001 h -5.16e-4 v -66.01148 h 5.16e-4 z"
           style="opacity:1;fill:#d25045;fill-opacity:1;stroke:none;stroke-width:5.95559072;stroke-linejoin:round;stroke-miterlimit:4;stroke-dasharray:none;stroke-dashoffset:0;stroke-opacity:1"
           inkscape:connector-curvature="0" />
      </g>
      <g
         style="stroke-width:1.1254406"
         transform="matrix(0.89823538,0,0,-0.87895105,94.214308,310.03647)"
         id="g5492">
        <path
           style="fill:none;fill-opacity:1;stroke:#9fc8b8;stroke-width:5.95545626;stroke-miterlimit:4;stroke-dasharray:none;stroke-opacity:1"
           d="m 139.71114,197.43461 c -4.04828,-0.88315 -8.60878,-3.18825 -12.24306,-6.18824 -3.41167,-2.81621 -6.48659,-7.6882 -7.73193,-12.25075 -0.89533,-3.2801 -0.89823,-8.55014 -0.006,-11.84992 0.8846,-3.27343 3.14552,-7.4178 5.41852,-9.93238 3.0476,-3.37148 7.96827,-6.49639 11.95361,-7.59121 l 1.31,-0.35988 0.0972,-5.71338 c 0.0534,-3.14235 0.008,-6.2918 -0.10118,-6.99877 -0.18934,-1.22724 -0.24886,-1.2854 -1.31538,-1.2854 h -1.11708 v -1.81469 -1.81469 h 9.42065 9.42067 v 1.81469 1.81469 h -1.09637 c -0.96805,0 -1.12013,0.11065 -1.29939,0.94514 -0.11174,0.51985 -0.20305,3.63045 -0.20305,6.91248 v 5.96733 l 2.3512,0.80821 c 5.23516,1.79953 9.83553,5.20874 13.06634,9.68311 3.37835,4.67872 4.60417,8.86509 4.29899,14.68183 -0.22133,4.21857 -0.77784,6.26379 -2.67942,9.84723 -3.20786,6.0451 -8.69419,10.43649 -15.90012,12.72685 -2.2467,0.7141 -3.21498,0.83936 -7.14671,0.92449 -3.10979,0.0673 -5.16425,-0.036 -6.497,-0.32674 z"
           id="path5374"
           inkscape:connector-curvature="0" />
        <path
           inkscape:connector-curvature="0"
           style="opacity:1;fill:#e5dfda;fill-opacity:1;stroke:none;stroke-width:5.95545626;stroke-linejoin:round;stroke-miterlimit:4;stroke-dasharray:none;stroke-dashoffset:0;stroke-opacity:1"
           d="m 135.97568,131.6354 v 1.81436 1.81488 h 1.11724 c 1.06652,0 1.12583,0.0579 1.31517,1.28519 0.10918,0.70697 0.15468,3.8567 0.10128,6.99905 l -0.0971,5.71335 -1.31,0.35967 c -3.98534,1.09482 -8.90619,4.21978 -11.95379,7.59127 -2.273,2.51458 -4.53367,6.65929 -5.41827,9.93272 -0.89223,3.29978 -0.88913,8.56982 0.006,11.84992 1.24534,4.56255 4.32016,9.43421 7.73183,12.25042 3.63428,2.99999 8.1949,5.3051 12.24318,6.18825 h 5.3e-4 c 1.23019,0.26837 3.08656,0.37524 5.80894,0.33745 V 131.6354 h -0.12454 z"
           id="rect5452" />
        <path
           id="path5462"
           d="m 155.06613,131.63637 v 1.81436 1.81488 h -1.11724 c -1.06652,0 -1.12583,0.0579 -1.31517,1.28519 -0.10918,0.70697 -0.15468,3.8567 -0.10128,6.99905 l 0.0971,5.71335 1.31,0.35967 c 3.98534,1.09482 8.90619,4.21978 11.95379,7.59127 2.273,2.51458 4.53367,6.65929 5.41827,9.93272 0.89223,3.29978 0.88913,8.56982 -0.006,11.84992 -1.24534,4.56255 -4.32016,9.43421 -7.73183,12.25042 -3.63428,2.99999 -8.1949,5.3051 -12.24318,6.18825 h -5.1e-4 c -1.23019,0.26837 -3.08657,0.37524 -5.80895,0.33745 v -66.13653 h 0.12454 z"
           style="opacity:1;fill:#9fc8b8;fill-opacity:1;stroke:none;stroke-width:5.95545626;stroke-linejoin:round;stroke-miterlimit:4;stroke-dasharray:none;stroke-dashoffset:0;stroke-opacity:1"
           inkscape:connector-curvature="0" />
      </g>
      <path
         id="ellipse4608"
         d="M 134.9375,111.8857 V 217.49269 A 52.916663,52.916666 0 0 0 185.20833,164.70831 52.916663,52.916666 0 0 0 134.9375,111.8857 Z"
         style="opacity:1;fill:#ecb84e;fill-opacity:1;stroke:#d25045;stroke-width:5.29166603;stroke-linecap:square;stroke-linejoin:miter;stroke-miterlimit:4;stroke-dasharray:none;stroke-dashoffset:0;stroke-opacity:1"
         inkscape:connector-curvature="0" />
      <path
         id="path5494"
         d="m 129.64583,111.85728 c -27.99563,1.37879 -50.270831,24.51334 -50.270831,52.85103 0,28.3377 22.275201,51.47225 50.270831,52.85104 z"
         style="opacity:1;fill:#ecb84e;fill-opacity:1;stroke:#9fc8b8;stroke-width:5.29200029;stroke-linecap:round;stroke-linejoin:miter;stroke-miterlimit:4;stroke-dasharray:none;stroke-dashoffset:0;stroke-opacity:1"
         inkscape:connector-curvature="0" />
      <path
         inkscape:connector-curvature="0"
         id="path4616"
         d="m 132.29166,113.11457 c -28.49442,0 -51.59373,23.09932 -51.59373,51.59373 0,28.49445 23.09931,51.59377 51.59373,51.59377 a 51.593731,51.593734 0 0 0 51.59376,-51.59377 51.593731,51.593734 0 0 0 -51.59376,-51.59373 z"
         style="opacity:1;fill:#ecb84e;fill-opacity:1;stroke:#0e0b09;stroke-width:2.64583325;stroke-linejoin:miter;stroke-miterlimit:4;stroke-dasharray:none;stroke-dashoffset:0;stroke-opacity:1" />
      <g
         id="flowRoot4515"
         style="font-style:normal;font-weight:normal;font-size:96px;line-height:100%;font-family:sans-serif;text-align:center;letter-spacing:0px;word-spacing:0px;text-anchor:middle;fill:#0e0b09;fill-opacity:1;stroke:none;stroke-width:3;stroke-linecap:butt;stroke-linejoin:miter;stroke-miterlimit:4;stroke-dasharray:none;stroke-opacity:1"
         transform="matrix(0.26458333,0,0,0.26458333,0.7715928,43.440409)"
         aria-label="Atom Labs.">
        <path
           id="path4502"
           style="font-style:normal;font-variant:normal;font-weight:normal;font-stretch:normal;font-size:160px;line-height:100%;font-family:'Yanone Kaffeesatz';-inkscape-font-specification:'Yanone Kaffeesatz';text-align:center;text-anchor:middle;fill:#0e0b09;fill-opacity:1;stroke:none;stroke-width:3;stroke-miterlimit:4;stroke-dasharray:none;stroke-opacity:1"
           d="m 438.80375,423.3754 q 0.32,1.44 -0.8,2.08 -1.12,0.64 -4.8,0.64 -4.32,0 -7.68,-0.32 l -6.72,-28.48 h -27.84 l -6.24,26.24 q -0.48,1.44 -1.6,2.08 -0.96,0.48 -4.48,0.48 -3.36,0 -8,-0.48 l 28.64,-110.08 q 0.48,-2.24 4.8,-2.24 3.68,0 6.08,0.48 z m -22.88,-37.76 -5.44,-23.04 q -4.64,-19.52 -5.6,-30.88 -1.76,14.24 -5.76,30.88 l -5.44,23.04 z" />
        <path
           id="path4504"
           style="font-style:normal;font-variant:normal;font-weight:normal;font-stretch:normal;font-size:160px;line-height:100%;font-family:'Yanone Kaffeesatz';-inkscape-font-specification:'Yanone Kaffeesatz';text-align:center;text-anchor:middle;fill:#0e0b09;fill-opacity:1;stroke:none;stroke-width:3;stroke-miterlimit:4;stroke-dasharray:none;stroke-opacity:1"
           d="m 464.27625,427.3754 q -6.56,0 -9.92,-2.72 -3.2,-2.88 -4.32,-7.84 -0.96,-5.12 -0.96,-13.28 v -46.72 h -10.88 q 0,-4.32 0.16,-6.88 0.16,-2.72 0.64,-3.36 0.64,-0.8 1.92,-0.8 h 8.16 v -24.32 q 0,-2.24 0.96,-3.04 1.12,-0.96 3.36,-1.12 2.4,-0.32 8.48,-0.32 v 28.8 h 16.64 q 0,4.32 -0.16,7.04 -0.16,2.72 -0.8,3.36 -0.48,0.64 -1.76,0.64 h -13.92 v 46.72 q 0,6.56 0.96,9.76 1.12,3.04 4.96,3.04 2.56,0 4.48,-0.48 1.92,-0.64 4.8,-1.92 0.96,3.2 0.96,6.4 0,3.84 -4,5.44 -4,1.6 -9.76,1.6 z" />
        <path
           id="path4506"
           style="font-style:normal;font-variant:normal;font-weight:normal;font-stretch:normal;font-size:160px;line-height:100%;font-family:'Yanone Kaffeesatz';-inkscape-font-specification:'Yanone Kaffeesatz';text-align:center;text-anchor:middle;fill:#0e0b09;fill-opacity:1;stroke:none;stroke-width:3;stroke-miterlimit:4;stroke-dasharray:none;stroke-opacity:1"
           d="m 508.97125,427.3754 q -8.96,0 -14.24,-3.04 -5.28,-3.04 -8.16,-12 -2.72,-9.12 -2.72,-26.56 0,-41.6 26.72,-41.6 8.8,0 14.08,3.68 5.28,3.52 8,12.64 2.72,8.96 2.72,24.96 0,21.76 -6.72,31.84 -6.56,10.08 -19.68,10.08 z m 0.32,-10.88 q 5.76,0 8.8,-6.72 3.2,-6.72 3.2,-24.32 0,-12.48 -1.28,-19.04 -1.12,-6.56 -3.52,-8.96 -2.4,-2.4 -6.4,-2.4 -5.92,0 -9.12,6.72 -3.04,6.72 -3.04,24.32 0,12.8 1.28,19.36 1.28,6.56 3.68,8.8 2.4,2.24 6.4,2.24 z" />
        <path
           id="path4508"
           style="font-style:normal;font-variant:normal;font-weight:normal;font-stretch:normal;font-size:160px;line-height:100%;font-family:'Yanone Kaffeesatz';-inkscape-font-specification:'Yanone Kaffeesatz';text-align:center;text-anchor:middle;fill:#0e0b09;fill-opacity:1;stroke:none;stroke-width:3;stroke-miterlimit:4;stroke-dasharray:none;stroke-opacity:1"
           d="m 605.44375,344.1754 q 7.68,0 11.52,2.56 4,2.56 5.28,7.36 1.28,4.64 1.28,12.64 v 56.48 q 0,1.44 -0.64,1.92 -0.64,0.48 -3.84,0.64 -3.2,0 -8.48,0 v -59.2 q 0,-6.24 -1.6,-8.64 -1.44,-2.4 -6.24,-2.4 -5.92,0 -10.88,3.04 v 64.64 q 0,1.44 -0.64,1.92 -0.48,0.48 -3.52,0.64 -3.04,0 -8.48,0 h -0.16 v -59.52 q 0,-4.48 -0.48,-6.56 -0.48,-2.24 -2.24,-3.2 -1.6,-1.12 -5.28,-1.12 -5.76,0 -10.88,2.88 v 64.96 q 0,1.44 -0.64,1.92 -0.64,0.48 -3.84,0.64 -3.2,0 -8.48,0 v -76.32 q 11.68,-5.28 24.16,-5.28 9.92,0 14.56,4.96 4,-2.24 9.28,-3.52 5.44,-1.44 10.24,-1.44 z" />
        <path
           id="path4510"
           style="font-style:normal;font-variant:normal;font-weight:normal;font-stretch:normal;font-size:160px;line-height:100%;font-family:'Yanone Kaffeesatz';-inkscape-font-specification:'Yanone Kaffeesatz';text-align:center;text-anchor:middle;fill:#0e0b09;fill-opacity:1;stroke:none;stroke-width:3;stroke-miterlimit:4;stroke-dasharray:none;stroke-opacity:1"
           d="m 380.4775,477.4554 q 0,-2.08 0.64,-2.72 0.64,-0.64 2.88,-0.8 2.24,-0.16 9.44,-0.16 v 99.84 h 27.52 v 9.6 q 0,1.44 -0.64,2.08 -0.64,0.48 -1.92,0.48 h -37.92 z" />
        <path
           id="path4512"
           style="font-style:normal;font-variant:normal;font-weight:normal;font-stretch:normal;font-size:160px;line-height:100%;font-family:'Yanone Kaffeesatz';-inkscape-font-specification:'Yanone Kaffeesatz';text-align:center;text-anchor:middle;fill:#0e0b09;fill-opacity:1;stroke:none;stroke-width:3;stroke-miterlimit:4;stroke-dasharray:none;stroke-opacity:1"
           d="m 450.31,587.3754 q -10.24,0 -16.16,-4.8 -5.76,-4.96 -5.76,-19.52 0,-15.2 5.76,-20.64 5.92,-5.6 15.68,-5.6 7.52,0 11.68,2.08 v -12.64 q 0,-5.44 -2.4,-7.52 -2.4,-2.08 -7.52,-2.08 -5.76,0 -11.68,1.12 -5.92,0.96 -9.6,2.56 -1.76,-3.36 -1.76,-7.52 0,-3.2 1.76,-4.32 2.4,-1.6 9.28,-2.88 6.88,-1.44 15.2,-1.44 10.4,0 15.04,4.48 4.64,4.48 4.64,15.04 v 8.48 q 0,35.2 -0.96,49.76 -3.84,2.4 -9.76,3.84 -5.92,1.6 -13.44,1.6 z m 2.24,-10.88 q 2.56,0 4.96,-0.8 2.4,-0.8 3.52,-1.76 0.48,-5.44 0.48,-25.92 -3.04,-1.6 -7.52,-1.6 -5.76,0 -8.96,3.36 -3.2,3.36 -3.2,12.96 0,8.16 2.56,11.04 2.72,2.72 8.16,2.72 z" />
        <path
           id="path4514"
           style="font-style:normal;font-variant:normal;font-weight:normal;font-stretch:normal;font-size:160px;line-height:100%;font-family:'Yanone Kaffeesatz';-inkscape-font-specification:'Yanone Kaffeesatz';text-align:center;text-anchor:middle;fill:#0e0b09;fill-opacity:1;stroke:none;stroke-width:3;stroke-miterlimit:4;stroke-dasharray:none;stroke-opacity:1"
           d="m 506.5525,587.3754 q -12.8,0 -18.56,-4.8 v -108.48 q 0,-3.04 0.96,-4.16 0.96,-1.28 3.36,-1.44 2.4,-0.32 8.48,-0.32 v 41.6 q 7.2,-5.6 17.12,-5.6 9.92,0 14.72,7.2 4.96,7.2 4.96,24.32 0,30.88 -8.96,41.28 -8.8,10.4 -22.08,10.4 z m 1.76,-11.36 q 5.92,0 10.4,-7.84 4.48,-8 4.48,-29.76 0,-12.48 -2.72,-17.44 -2.72,-5.12 -8.48,-5.12 -6.72,0 -11.2,4.48 v 53.44 q 2.56,2.24 7.52,2.24 z" />
        <path
           id="path4516"
           style="font-style:normal;font-variant:normal;font-weight:normal;font-stretch:normal;font-size:160px;line-height:100%;font-family:'Yanone Kaffeesatz';-inkscape-font-specification:'Yanone Kaffeesatz';text-align:center;text-anchor:middle;fill:#0e0b09;fill-opacity:1;stroke:none;stroke-width:3;stroke-miterlimit:4;stroke-dasharray:none;stroke-opacity:1"
           d="m 566.195,587.3754 q -8.8,0 -14.24,-2.08 -5.28,-2.08 -5.28,-5.92 0,-3.84 2.4,-7.52 6.56,3.84 15.84,3.84 6.24,0 9.6,-2.4 3.52,-2.56 3.52,-7.36 0,-3.52 -1.44,-6.56 -1.44,-3.04 -4.96,-6.08 l -15.52,-13.28 q -9.28,-7.52 -9.28,-16.96 0,-8.8 6.56,-13.76 6.72,-5.12 19.68,-5.12 10.88,0 15.36,2.88 4.64,2.88 4.64,6.08 0,1.44 -0.8,3.36 -0.8,1.76 -1.92,3.2 -7.04,-4.32 -15.84,-4.32 -5.76,0 -9.28,2.08 -3.36,2.08 -3.36,5.76 0,2.4 1.28,4.64 1.28,2.08 5.12,5.28 l 14.88,12 q 5.28,5.12 7.36,9.6 2.24,4.48 2.24,10.4 0,10.56 -7.2,16.48 -7.04,5.76 -19.36,5.76 z" />
        <path
           id="path4518"
           style="font-style:normal;font-variant:normal;font-weight:normal;font-stretch:normal;font-size:160px;line-height:100%;font-family:'Yanone Kaffeesatz';-inkscape-font-specification:'Yanone Kaffeesatz';text-align:center;text-anchor:middle;fill:#0e0b09;fill-opacity:1;stroke:none;stroke-width:3;stroke-miterlimit:4;stroke-dasharray:none;stroke-opacity:1"
           d="m 612.0675,586.7354 q -4.8,0 -6.88,-2.24 -2.08,-2.4 -2.08,-6.88 0,-3.84 2.4,-6.4 2.56,-2.72 6.56,-2.72 8.8,0 8.8,9.12 0,4 -2.4,6.56 -2.4,2.56 -6.4,2.56 z" />
      </g>
      <path
         style="opacity:1;fill:none;fill-opacity:1;stroke:#e5dfda;stroke-width:2.64583302;stroke-linejoin:miter;stroke-miterlimit:4;stroke-dasharray:none;stroke-dashoffset:0;stroke-opacity:1"
         d="m 132.29165,105.10396 c -32.918532,0 -59.60432,26.68578 -59.60432,59.60433 0,32.91853 26.685788,59.60432 59.60432,59.60432 a 59.604296,59.604302 0 0 0 59.60433,-59.60432 59.604296,59.604302 0 0 0 -59.60433,-59.60433 z"
         id="path4734"
         inkscape:connector-curvature="0" />
    </g>
  </g>
</svg>
