<?xml version="1.0" encoding="UTF-8" standalone="no"?>
<!-- Created with Inkscape (http://www.inkscape.org/) -->

<svg
   xmlns:dc="http://purl.org/dc/elements/1.1/"
   xmlns:cc="http://creativecommons.org/ns#"
   xmlns:rdf="http://www.w3.org/1999/02/22-rdf-syntax-ns#"
   xmlns:svg="http://www.w3.org/2000/svg"
   xmlns="http://www.w3.org/2000/svg"
   xmlns:sodipodi="http://sodipodi.sourceforge.net/DTD/sodipodi-0.dtd"
   xmlns:inkscape="http://www.inkscape.org/namespaces/inkscape"
   width="489.32153"
   height="430.32095"
   viewBox="0 0 142.61005 207.78769"
   version="1.1"
   id="svg8"
   sodipodi:docname="Bexolder.svg"
   inkscape:version="0.92.1 r15371"
   inkscape:export-filename="/media/mouse/GIT/hub/Bexolder/lg.png"
   inkscape:export-xdpi="51.009403"
   inkscape:export-ydpi="51.009403">
  <defs
     id="defs2" />
  <sodipodi:namedview
     id="base"
     pagecolor="#ffffff"
     bordercolor="#666666"
     borderopacity="1.0"
     inkscape:pageopacity="0"
     inkscape:pageshadow="2"
     inkscape:zoom="0.74385159"
     inkscape:cx="563.07283"
     inkscape:cy="253.00757"
     inkscape:document-units="px"
     inkscape:current-layer="layer1"
     showgrid="true"
     inkscape:showpageshadow="false"
     borderlayer="true"
     inkscape:pagecheckerboard="true"
     units="px"
     objecttolerance="20"
     inkscape:snap-path-clip="true"
     inkscape:snap-path-mask="true"
     gridtolerance="10"
     guidetolerance="10000"
     inkscape:snap-perpendicular="true"
     inkscape:snap-tangential="true"
     inkscape:snap-bbox="true"
     inkscape:bbox-paths="true"
     inkscape:bbox-nodes="true"
     inkscape:snap-bbox-edge-midpoints="true"
     inkscape:snap-bbox-midpoints="true"
     inkscape:object-paths="true"
     inkscape:snap-intersection-paths="true"
     inkscape:snap-midpoints="true"
     inkscape:snap-smooth-nodes="true"
     inkscape:snap-center="true"
     inkscape:snap-object-midpoints="true"
     inkscape:snap-text-baseline="true"
     inkscape:snap-page="true"
     inkscape:window-width="1280"
     inkscape:window-height="972"
     inkscape:window-x="0"
     inkscape:window-y="0"
     inkscape:window-maximized="1"
     fit-margin-top="0"
     fit-margin-left="0"
     fit-margin-right="0"
     fit-margin-bottom="0">
    <inkscape:grid
       type="xygrid"
       id="grid4485"
       spacingx="2.6458333"
       spacingy="2.6458333"
       dotted="true"
       originx="-199.54051"
       originy="-259.05526" />
  </sodipodi:namedview>
  <metadata
     id="metadata5">
    <rdf:RDF>
      <cc:Work
         rdf:about="">
        <dc:format>image/svg+xml</dc:format>
        <dc:type
           rdf:resource="http://purl.org/dc/dcmitype/StillImage" />
        <dc:title></dc:title>
        <dc:rights>
          <cc:Agent>
            <dc:title>Creative Commons 4.0</dc:title>
          </cc:Agent>
        </dc:rights>
        <dc:creator>
          <cc:Agent>
            <dc:title>Kiselev Nikolay</dc:title>
          </cc:Agent>
        </dc:creator>
        <cc:license
           rdf:resource="http://creativecommons.org/licenses/by/4.0/" />
      </cc:Work>
      <cc:License
         rdf:about="http://creativecommons.org/licenses/by/4.0/">
        <cc:permits
           rdf:resource="http://creativecommons.org/ns#Reproduction" />
        <cc:permits
           rdf:resource="http://creativecommons.org/ns#Distribution" />
        <cc:requires
           rdf:resource="http://creativecommons.org/ns#Notice" />
        <cc:requires
           rdf:resource="http://creativecommons.org/ns#Attribution" />
        <cc:permits
           rdf:resource="http://creativecommons.org/ns#DerivativeWorks" />
      </cc:License>
    </rdf:RDF>
  </metadata>
  <g
     inkscape:label="Layer 1"
     inkscape:groupmode="layer"
     id="layer1"
     transform="translate(-330.5998,169.843)">
    <g
       id="g1097">
      <g
         transform="matrix(18.063663,6.2141395,-6.2141395,18.063663,-1869.3523,694.90478)"
         id="g1023"
         style="font-style:normal;font-weight:normal;font-size:7.08204603px;line-height:125%;font-family:sans-serif;letter-spacing:0px;word-spacing:0px;fill:none;fill-opacity:1;stroke:#484c44;stroke-width:0.96954262;stroke-linecap:butt;stroke-linejoin:miter;stroke-miterlimit:4;stroke-dasharray:none;stroke-opacity:1;paint-order:stroke markers fill"
         aria-label="BXR">
        <path
           inkscape:connector-curvature="0"
           id="path1017"
           d="m 93.840912,-76.176195 c 0.0028,-0.701881 0.666423,-1.251521 0.45348,-1.99682 0.107138,-0.717158 -0.412439,-2.027405 0.762417,-1.680331 0.891722,-0.15529 2.118502,0.16426 2.04547,1.284231 0.292383,0.8515 -0.506896,1.62725 -0.180782,2.379977 0.325023,0.704643 0.289613,1.717903 -0.125093,2.393503 -0.615955,0.481758 -1.60611,0.532141 -2.305894,0.293737 -0.482216,-0.587971 -0.116948,-1.399714 -0.17024,-2.091265 -0.0085,-0.280166 -0.05275,-0.793105 -0.479358,-0.583032 z m 1.428166,0 c 0,0.614377 0,1.228753 0,1.84313 0.952912,0.187318 1.253899,-1.481471 0.383504,-1.772683 -0.12036,-0.05157 -0.252346,-0.07846 -0.383504,-0.07045 z m 0,-2.762966 c 0,0.614377 0,1.228753 0,1.84313 1.136331,0.121674 1.240383,-2.052634 0,-1.84313 z"
           style="font-style:normal;font-variant:normal;font-weight:normal;font-stretch:normal;font-family:'Astakhov First Two Stripes';-inkscape-font-specification:'Astakhov First Two Stripes';fill:none;fill-opacity:1;stroke:#484c44;stroke-width:0.96954262;stroke-miterlimit:4;stroke-dasharray:none;stroke-opacity:1;paint-order:stroke markers fill" />
        <path
           inkscape:connector-curvature="0"
           id="path1019"
           d="m 100.93679,-79.855539 c -0.37462,1.073142 -0.74924,2.146284 -1.12386,3.219426 0.41381,1.18841 0.82762,2.376819 1.24143,3.565229 -1.02164,0.1477 -1.404857,-0.969996 -1.56288,-1.757542 -0.340391,-0.530405 -0.421863,0.433839 -0.588599,0.682889 -0.0418,0.557603 -0.651052,0.929262 -1.10915,0.516801 0.181396,-0.641165 0.447606,-1.288374 0.659338,-1.93509 0.108456,-0.373068 0.304001,-0.746064 0.358043,-1.119177 -0.407232,-1.172781 -0.814463,-2.345563 -1.221695,-3.518344 0.774561,-0.09297 1.183974,0.450876 1.330282,1.112042 0.132911,0.348589 0.265822,0.697179 0.398733,1.045768 0.212093,-0.549827 0.424185,-1.099653 0.636278,-1.64948 0.32736,-0.05418 0.65472,-0.108357 0.98208,-0.162522 z"
           style="font-style:normal;font-variant:normal;font-weight:normal;font-stretch:normal;font-family:'Astakhov First Two Stripes';-inkscape-font-specification:'Astakhov First Two Stripes';fill:none;fill-opacity:1;stroke:#484c44;stroke-width:0.96954262;stroke-miterlimit:4;stroke-dasharray:none;stroke-opacity:1;paint-order:stroke markers fill" />
        <path
           inkscape:connector-curvature="0"
           id="path1021"
           d="m 104.83053,-73.070884 c -0.9004,0.10717 -1.42441,-0.578146 -1.49034,-1.403896 -0.23432,-0.445269 -0.3902,-1.714754 -0.67629,-1.61598 -0.10714,0.598306 -0.004,1.217244 -0.0361,1.827923 0.15624,0.596062 -0.21603,1.001426 -0.86311,0.724837 -0.25999,-0.320032 -0.0456,-0.806702 -0.11206,-1.209905 0,-0.49454 0,-0.98908 0,-1.48362 -0.98142,-0.192696 0.34996,-1.26739 -2.6e-4,-1.904516 0.11721,-0.715351 -0.42549,-2.055846 0.74898,-1.717645 0.90344,-0.175312 2.08471,0.236772 1.97973,1.339253 0.11646,0.858608 -0.0599,1.640735 -0.65824,2.272146 0.15872,0.94669 0.7161,1.884257 0.98719,2.845748 l 0.0601,0.162885 z m -2.20276,-5.868277 c 0,0.614377 0,1.228753 0,1.84313 1.10253,0.184648 1.09004,-1.990438 0,-1.84313 z"
           style="font-style:normal;font-variant:normal;font-weight:normal;font-stretch:normal;font-family:'Astakhov First Two Stripes';-inkscape-font-specification:'Astakhov First Two Stripes';fill:none;fill-opacity:1;stroke:#484c44;stroke-width:0.96954262;stroke-miterlimit:4;stroke-dasharray:none;stroke-opacity:1;paint-order:stroke markers fill" />
      </g>
      <g
         aria-label="BXR"
         style="font-style:normal;font-weight:normal;font-size:7.08204603px;line-height:125%;font-family:sans-serif;letter-spacing:0px;word-spacing:0px;fill:none;fill-opacity:1;stroke:#4c604c;stroke-width:0.96954262;stroke-linecap:butt;stroke-linejoin:miter;stroke-miterlimit:4;stroke-dasharray:none;stroke-opacity:1;paint-order:stroke markers fill"
         id="g1015"
         transform="matrix(18.623485,4.2517348,-4.2517348,18.623485,-1774.8609,932.36665)">
        <path
           inkscape:connector-curvature="0"
           id="path1009"
           d="m 93.840912,-76.176195 c 0.0028,-0.701881 0.666423,-1.251521 0.45348,-1.99682 0.107138,-0.717158 -0.412439,-2.027405 0.762417,-1.680331 0.891722,-0.15529 2.118502,0.16426 2.04547,1.284231 0.292383,0.8515 -0.506896,1.62725 -0.180782,2.379977 0.325023,0.704643 0.289613,1.717903 -0.125093,2.393503 -0.615955,0.481758 -1.60611,0.532141 -2.305894,0.293737 -0.482216,-0.587971 -0.116948,-1.399714 -0.17024,-2.091265 -0.0085,-0.280166 -0.05275,-0.793105 -0.479358,-0.583032 z m 1.428166,0 c 0,0.614377 0,1.228753 0,1.84313 0.952912,0.187318 1.253899,-1.481471 0.383504,-1.772683 -0.12036,-0.05157 -0.252346,-0.07846 -0.383504,-0.07045 z m 0,-2.762966 c 0,0.614377 0,1.228753 0,1.84313 1.136331,0.121674 1.240383,-2.052634 0,-1.84313 z"
           style="font-style:normal;font-variant:normal;font-weight:normal;font-stretch:normal;font-family:'Astakhov First Two Stripes';-inkscape-font-specification:'Astakhov First Two Stripes';fill:none;fill-opacity:1;stroke:#4c604c;stroke-width:0.96954262;stroke-miterlimit:4;stroke-dasharray:none;stroke-opacity:1;paint-order:stroke markers fill" />
        <path
           inkscape:connector-curvature="0"
           id="path1011"
           d="m 100.93679,-79.855539 c -0.37462,1.073142 -0.74924,2.146284 -1.12386,3.219426 0.41381,1.18841 0.82762,2.376819 1.24143,3.565229 -1.02164,0.1477 -1.404857,-0.969996 -1.56288,-1.757542 -0.340391,-0.530405 -0.421863,0.433839 -0.588599,0.682889 -0.0418,0.557603 -0.651052,0.929262 -1.10915,0.516801 0.181396,-0.641165 0.447606,-1.288374 0.659338,-1.93509 0.108456,-0.373068 0.304001,-0.746064 0.358043,-1.119177 -0.407232,-1.172781 -0.814463,-2.345563 -1.221695,-3.518344 0.774561,-0.09297 1.183974,0.450876 1.330282,1.112042 0.132911,0.348589 0.265822,0.697179 0.398733,1.045768 0.212093,-0.549827 0.424185,-1.099653 0.636278,-1.64948 0.32736,-0.05418 0.65472,-0.108357 0.98208,-0.162522 z"
           style="font-style:normal;font-variant:normal;font-weight:normal;font-stretch:normal;font-family:'Astakhov First Two Stripes';-inkscape-font-specification:'Astakhov First Two Stripes';fill:none;fill-opacity:1;stroke:#4c604c;stroke-width:0.96954262;stroke-miterlimit:4;stroke-dasharray:none;stroke-opacity:1;paint-order:stroke markers fill" />
        <path
           inkscape:connector-curvature="0"
           id="path1013"
           d="m 104.83053,-73.070884 c -0.9004,0.10717 -1.42441,-0.578146 -1.49034,-1.403896 -0.23432,-0.445269 -0.3902,-1.714754 -0.67629,-1.61598 -0.10714,0.598306 -0.004,1.217244 -0.0361,1.827923 0.15624,0.596062 -0.21603,1.001426 -0.86311,0.724837 -0.25999,-0.320032 -0.0456,-0.806702 -0.11206,-1.209905 0,-0.49454 0,-0.98908 0,-1.48362 -0.98142,-0.192696 0.34996,-1.26739 -2.6e-4,-1.904516 0.11721,-0.715351 -0.42549,-2.055846 0.74898,-1.717645 0.90344,-0.175312 2.08471,0.236772 1.97973,1.339253 0.11646,0.858608 -0.0599,1.640735 -0.65824,2.272146 0.15872,0.94669 0.7161,1.884257 0.98719,2.845748 l 0.0601,0.162885 z m -2.20276,-5.868277 c 0,0.614377 0,1.228753 0,1.84313 1.10253,0.184648 1.09004,-1.990438 0,-1.84313 z"
           style="font-style:normal;font-variant:normal;font-weight:normal;font-stretch:normal;font-family:'Astakhov First Two Stripes';-inkscape-font-specification:'Astakhov First Two Stripes';fill:none;fill-opacity:1;stroke:#4c604c;stroke-width:0.96954262;stroke-miterlimit:4;stroke-dasharray:none;stroke-opacity:1;paint-order:stroke markers fill" />
      </g>
      <g
         transform="matrix(18.980122,2.1601871,-2.1601871,18.980122,-1650.0208,1166.9145)"
         id="g931"
         style="font-style:normal;font-weight:normal;font-size:7.08204603px;line-height:125%;font-family:sans-serif;letter-spacing:0px;word-spacing:0px;fill:none;fill-opacity:1;stroke:#506c50;stroke-width:0.96954262;stroke-linecap:butt;stroke-linejoin:miter;stroke-miterlimit:4;stroke-dasharray:none;stroke-opacity:1;paint-order:stroke markers fill"
         aria-label="BXR">
        <path
           inkscape:connector-curvature="0"
           id="path925"
           d="m 93.840912,-76.176195 c 0.0028,-0.701881 0.666423,-1.251521 0.45348,-1.99682 0.107138,-0.717158 -0.412439,-2.027405 0.762417,-1.680331 0.891722,-0.15529 2.118502,0.16426 2.04547,1.284231 0.292383,0.8515 -0.506896,1.62725 -0.180782,2.379977 0.325023,0.704643 0.289613,1.717903 -0.125093,2.393503 -0.615955,0.481758 -1.60611,0.532141 -2.305894,0.293737 -0.482216,-0.587971 -0.116948,-1.399714 -0.17024,-2.091265 -0.0085,-0.280166 -0.05275,-0.793105 -0.479358,-0.583032 z m 1.428166,0 c 0,0.614377 0,1.228753 0,1.84313 0.952912,0.187318 1.253899,-1.481471 0.383504,-1.772683 -0.12036,-0.05157 -0.252346,-0.07846 -0.383504,-0.07045 z m 0,-2.762966 c 0,0.614377 0,1.228753 0,1.84313 1.136331,0.121674 1.240383,-2.052634 0,-1.84313 z"
           style="font-style:normal;font-variant:normal;font-weight:normal;font-stretch:normal;font-family:'Astakhov First Two Stripes';-inkscape-font-specification:'Astakhov First Two Stripes';fill:none;fill-opacity:1;stroke:#506c50;stroke-width:0.96954262;stroke-miterlimit:4;stroke-dasharray:none;stroke-opacity:1;paint-order:stroke markers fill" />
        <path
           inkscape:connector-curvature="0"
           id="path927"
           d="m 100.93679,-79.855539 c -0.37462,1.073142 -0.74924,2.146284 -1.12386,3.219426 0.41381,1.18841 0.82762,2.376819 1.24143,3.565229 -1.02164,0.1477 -1.404857,-0.969996 -1.56288,-1.757542 -0.340391,-0.530405 -0.421863,0.433839 -0.588599,0.682889 -0.0418,0.557603 -0.651052,0.929262 -1.10915,0.516801 0.181396,-0.641165 0.447606,-1.288374 0.659338,-1.93509 0.108456,-0.373068 0.304001,-0.746064 0.358043,-1.119177 -0.407232,-1.172781 -0.814463,-2.345563 -1.221695,-3.518344 0.774561,-0.09297 1.183974,0.450876 1.330282,1.112042 0.132911,0.348589 0.265822,0.697179 0.398733,1.045768 0.212093,-0.549827 0.424185,-1.099653 0.636278,-1.64948 0.32736,-0.05418 0.65472,-0.108357 0.98208,-0.162522 z"
           style="font-style:normal;font-variant:normal;font-weight:normal;font-stretch:normal;font-family:'Astakhov First Two Stripes';-inkscape-font-specification:'Astakhov First Two Stripes';fill:none;fill-opacity:1;stroke:#506c50;stroke-width:0.96954262;stroke-miterlimit:4;stroke-dasharray:none;stroke-opacity:1;paint-order:stroke markers fill" />
        <path
           inkscape:connector-curvature="0"
           id="path929"
           d="m 104.83053,-73.070884 c -0.9004,0.10717 -1.42441,-0.578146 -1.49034,-1.403896 -0.23432,-0.445269 -0.3902,-1.714754 -0.67629,-1.61598 -0.10714,0.598306 -0.004,1.217244 -0.0361,1.827923 0.15624,0.596062 -0.21603,1.001426 -0.86311,0.724837 -0.25999,-0.320032 -0.0456,-0.806702 -0.11206,-1.209905 0,-0.49454 0,-0.98908 0,-1.48362 -0.98142,-0.192696 0.34996,-1.26739 -2.6e-4,-1.904516 0.11721,-0.715351 -0.42549,-2.055846 0.74898,-1.717645 0.90344,-0.175312 2.08471,0.236772 1.97973,1.339253 0.11646,0.858608 -0.0599,1.640735 -0.65824,2.272146 0.15872,0.94669 0.7161,1.884257 0.98719,2.845748 l 0.0601,0.162885 z m -2.20276,-5.868277 c 0,0.614377 0,1.228753 0,1.84313 1.10253,0.184648 1.09004,-1.990438 0,-1.84313 z"
           style="font-style:normal;font-variant:normal;font-weight:normal;font-stretch:normal;font-family:'Astakhov First Two Stripes';-inkscape-font-specification:'Astakhov First Two Stripes';fill:none;fill-opacity:1;stroke:#506c50;stroke-width:0.96954262;stroke-miterlimit:4;stroke-dasharray:none;stroke-opacity:1;paint-order:stroke markers fill" />
      </g>
      <g
         aria-label="BXR"
         style="font-style:normal;font-weight:normal;font-size:7.08204603px;line-height:125%;font-family:sans-serif;letter-spacing:0px;word-spacing:0px;fill:none;fill-opacity:1;stroke:#4c604c;stroke-width:0.96954262;stroke-linecap:butt;stroke-linejoin:miter;stroke-miterlimit:4;stroke-dasharray:none;stroke-opacity:1;paint-order:stroke markers fill"
         id="g1039"
         transform="matrix(19.102655,0,0,19.102655,-1496.6243,1390.5353)">
        <path
           d="m 93.840912,-76.176195 0.172901,-0.919836 h 0.280101 v -2.759508 l 1.504243,0.0035 q 1.300219,0 1.300219,1.352089 v 0.968249 q 0,0.632819 -0.535994,0.89563 0.535994,0.26281 0.535994,0.89563 v 0.971706 q 0,1.348632 -1.300219,1.348632 -0.02075,0 -0.06225,0.0035 h -1.441998 v -2.759508 z m 1.428166,0 v 1.84313 h 0.428796 l 0.425338,-0.435712 v -0.971706 l -0.546369,-0.435712 z m 0,-2.762966 v 1.84313 h 0.307765 l 0.546369,-0.435712 v -0.968249 l -0.425338,-0.439169 z"
           style="font-style:normal;font-variant:normal;font-weight:normal;font-stretch:normal;font-family:'Astakhov First Two Stripes';-inkscape-font-specification:'Astakhov First Two Stripes';fill:none;fill-opacity:1;stroke:#4c604c;stroke-width:0.96954262;stroke-miterlimit:4;stroke-dasharray:none;stroke-opacity:1;paint-order:stroke markers fill"
           id="path1033"
           inkscape:connector-curvature="0" />
        <path
           d="m 100.93679,-79.855539 -1.12386,3.219426 1.24143,3.565229 -0.96825,-0.162527 -0.767678,-1.995284 -0.63282,1.649481 -0.98208,0.162527 1.12386,-3.219426 -1.237975,-3.565229 0.968248,0.162527 0.760767,1.995283 0.636278,-1.64948 z"
           style="font-style:normal;font-variant:normal;font-weight:normal;font-stretch:normal;font-family:'Astakhov First Two Stripes';-inkscape-font-specification:'Astakhov First Two Stripes';fill:none;fill-opacity:1;stroke:#4c604c;stroke-width:0.96954262;stroke-miterlimit:4;stroke-dasharray:none;stroke-opacity:1;paint-order:stroke markers fill"
           id="path1035"
           inkscape:connector-curvature="0" />
        <path
           d="m 104.83053,-73.070884 -1.08236,-0.172901 -0.99591,-3.005029 -0.12449,0.01729 v 2.641935 l -0.97517,0.172902 v -2.814837 h -0.453 l 0.1729,-0.864507 h 0.2801 v -2.759508 l 1.42125,0.0035 q 1.30022,0 1.30022,1.352089 v 0.968249 q 0,0.850675 -0.76768,1.120402 z m -2.20276,-5.868277 v 1.84313 h 0.22477 q 0.20402,0 0.2801,-0.02421 l 0.26627,-0.411506 v -0.968249 l -0.42534,-0.439169 z"
           style="font-style:normal;font-variant:normal;font-weight:normal;font-stretch:normal;font-family:'Astakhov First Two Stripes';-inkscape-font-specification:'Astakhov First Two Stripes';fill:none;fill-opacity:1;stroke:#4c604c;stroke-width:0.96954262;stroke-miterlimit:4;stroke-dasharray:none;stroke-opacity:1;paint-order:stroke markers fill"
           id="path1037"
           inkscape:connector-curvature="0" />
      </g>
      <g
         transform="matrix(19.102655,0,0,19.102655,-1496.6243,1390.5353)"
         id="text61-8"
         style="font-style:normal;font-weight:normal;font-size:7.08204603px;line-height:125%;font-family:sans-serif;letter-spacing:0px;word-spacing:0px;fill:#648c58;fill-opacity:1;stroke:none;stroke-width:0.96954262;stroke-linecap:butt;stroke-linejoin:miter;stroke-miterlimit:4;stroke-dasharray:none;stroke-opacity:1;paint-order:stroke markers fill"
         aria-label="BXR">
        <path
           inkscape:connector-curvature="0"
           id="path63-0"
           style="font-style:normal;font-variant:normal;font-weight:normal;font-stretch:normal;font-family:'Astakhov First Two Stripes';-inkscape-font-specification:'Astakhov First Two Stripes';fill:#648c58;fill-opacity:1;stroke:none;stroke-width:0.96954262;stroke-miterlimit:4;stroke-dasharray:none;stroke-opacity:1;paint-order:stroke markers fill"
           d="m 93.840912,-76.176195 0.172901,-0.919836 h 0.280101 v -2.759508 l 1.504243,0.0035 q 1.300219,0 1.300219,1.352089 v 0.968249 q 0,0.632819 -0.535994,0.89563 0.535994,0.26281 0.535994,0.89563 v 0.971706 q 0,1.348632 -1.300219,1.348632 -0.02075,0 -0.06225,0.0035 h -1.441998 v -2.759508 z m 1.428166,0 v 1.84313 h 0.428796 l 0.425338,-0.435712 v -0.971706 l -0.546369,-0.435712 z m 0,-2.762966 v 1.84313 h 0.307765 l 0.546369,-0.435712 v -0.968249 l -0.425338,-0.439169 z" />
        <path
           inkscape:connector-curvature="0"
           id="path65-5"
           style="font-style:normal;font-variant:normal;font-weight:normal;font-stretch:normal;font-family:'Astakhov First Two Stripes';-inkscape-font-specification:'Astakhov First Two Stripes';fill:#648c58;fill-opacity:1;stroke:none;stroke-width:0.96954262;stroke-miterlimit:4;stroke-dasharray:none;stroke-opacity:1;paint-order:stroke markers fill"
           d="m 100.93679,-79.855539 -1.12386,3.219426 1.24143,3.565229 -0.96825,-0.162527 -0.767678,-1.995284 -0.63282,1.649481 -0.98208,0.162527 1.12386,-3.219426 -1.237975,-3.565229 0.968248,0.162527 0.760767,1.995283 0.636278,-1.64948 z" />
        <path
           inkscape:connector-curvature="0"
           id="path67-6"
           style="font-style:normal;font-variant:normal;font-weight:normal;font-stretch:normal;font-family:'Astakhov First Two Stripes';-inkscape-font-specification:'Astakhov First Two Stripes';fill:#648c58;fill-opacity:1;stroke:none;stroke-width:0.96954262;stroke-miterlimit:4;stroke-dasharray:none;stroke-opacity:1;paint-order:stroke markers fill"
           d="m 104.83053,-73.070884 -1.08236,-0.172901 -0.99591,-3.005029 -0.12449,0.01729 v 2.641935 l -0.97517,0.172902 v -2.814837 h -0.453 l 0.1729,-0.864507 h 0.2801 v -2.759508 l 1.42125,0.0035 q 1.30022,0 1.30022,1.352089 v 0.968249 q 0,0.850675 -0.76768,1.120402 z m -2.20276,-5.868277 v 1.84313 h 0.22477 q 0.20402,0 0.2801,-0.02421 l 0.26627,-0.411506 v -0.968249 l -0.42534,-0.439169 z" />
      </g>
    </g>
  </g>
</svg>
