<?xml version="1.0" encoding="UTF-8" standalone="no"?>
<!-- Created with Inkscape (http://www.inkscape.org/) -->

<svg
   xmlns:dc="http://purl.org/dc/elements/1.1/"
   xmlns:cc="http://creativecommons.org/ns#"
   xmlns:rdf="http://www.w3.org/1999/02/22-rdf-syntax-ns#"
   xmlns:svg="http://www.w3.org/2000/svg"
   xmlns="http://www.w3.org/2000/svg"
   xmlns:sodipodi="http://sodipodi.sourceforge.net/DTD/sodipodi-0.dtd"
   xmlns:inkscape="http://www.inkscape.org/namespaces/inkscape"
   width="851.56573"
   height="498.08786"
   viewBox="0 0 248.18411 240.51008"
   version="1.1"
   id="svg8"
   sodipodi:docname="Bexolder.svg"
   inkscape:version="0.92.1 r15371"
   inkscape:export-filename="/media/mouse/GIT/hub/Bexolder/lg.png"
   inkscape:export-xdpi="130"
   inkscape:export-ydpi="130">
  <defs
     id="defs2" />
  <sodipodi:namedview
     id="base"
     pagecolor="#ffffff"
     bordercolor="#666666"
     borderopacity="1.0"
     inkscape:pageopacity="0"
     inkscape:pageshadow="2"
     inkscape:zoom="0.74385159"
     inkscape:cx="563.07283"
     inkscape:cy="253.00757"
     inkscape:document-units="px"
     inkscape:current-layer="layer1"
     showgrid="true"
     inkscape:showpageshadow="false"
     borderlayer="true"
     inkscape:pagecheckerboard="true"
     units="px"
     objecttolerance="20"
     inkscape:snap-path-clip="true"
     inkscape:snap-path-mask="true"
     gridtolerance="10"
     guidetolerance="10000"
     inkscape:snap-perpendicular="true"
     inkscape:snap-tangential="true"
     inkscape:snap-bbox="true"
     inkscape:bbox-paths="true"
     inkscape:bbox-nodes="true"
     inkscape:snap-bbox-edge-midpoints="true"
     inkscape:snap-bbox-midpoints="true"
     inkscape:object-paths="true"
     inkscape:snap-intersection-paths="true"
     inkscape:snap-midpoints="true"
     inkscape:snap-smooth-nodes="true"
     inkscape:snap-center="true"
     inkscape:snap-object-midpoints="true"
     inkscape:snap-text-baseline="true"
     inkscape:snap-page="true"
     inkscape:window-width="1280"
     inkscape:window-height="972"
     inkscape:window-x="0"
     inkscape:window-y="0"
     inkscape:window-maximized="1"
     fit-margin-top="0"
     fit-margin-left="0"
     fit-margin-right="0"
     fit-margin-bottom="0">
    <inkscape:grid
       type="xygrid"
       id="grid4485"
       spacingx="2.6458333"
       spacingy="2.6458333"
       dotted="true"
       originx="-60.791372"
       originy="-102.72688" />
  </sodipodi:namedview>
  <metadata
     id="metadata5">
    <rdf:RDF>
      <cc:Work
         rdf:about="">
        <dc:format>image/svg+xml</dc:format>
        <dc:type
           rdf:resource="http://purl.org/dc/dcmitype/StillImage" />
        <dc:title></dc:title>
        <dc:rights>
          <cc:Agent>
            <dc:title>Creative Commons 4.0</dc:title>
          </cc:Agent>
        </dc:rights>
        <dc:creator>
          <cc:Agent>
            <dc:title>Kiselev Nikolay</dc:title>
          </cc:Agent>
        </dc:creator>
        <cc:license
           rdf:resource="http://creativecommons.org/licenses/by/4.0/" />
      </cc:Work>
      <cc:License
         rdf:about="http://creativecommons.org/licenses/by/4.0/">
        <cc:permits
           rdf:resource="http://creativecommons.org/ns#Reproduction" />
        <cc:permits
           rdf:resource="http://creativecommons.org/ns#Distribution" />
        <cc:requires
           rdf:resource="http://creativecommons.org/ns#Notice" />
        <cc:requires
           rdf:resource="http://creativecommons.org/ns#Attribution" />
        <cc:permits
           rdf:resource="http://creativecommons.org/ns#DerivativeWorks" />
      </cc:License>
    </rdf:RDF>
  </metadata>
  <g
     inkscape:label="Layer 1"
     inkscape:groupmode="layer"
     id="layer1"
     transform="translate(-100.71949,46.236988)">
    <g
       aria-label="bexolder"
       transform="matrix(0.24714018,0.0944779,-0.0944779,0.24714018,101.04153,-232.11816)"
       style="font-style:normal;font-weight:normal;font-size:357.33334351px;line-height:500%;font-family:sans-serif;text-align:center;letter-spacing:0px;word-spacing:0px;text-anchor:middle;fill:#4c604c;fill-opacity:1;stroke:#484c44;stroke-width:70;stroke-linecap:butt;stroke-linejoin:miter;stroke-miterlimit:4;stroke-dasharray:none;stroke-opacity:1"
       id="g991">
      <path
         style="font-style:normal;font-variant:normal;font-weight:normal;font-stretch:normal;font-size:357.33334351px;line-height:500%;font-family:'Astakhov First Two Stripes';-inkscape-font-specification:'Astakhov First Two Stripes';text-align:center;text-anchor:middle;fill:#4c604c;stroke:#484c44;stroke-width:70;stroke-miterlimit:4;stroke-dasharray:none"
         d="m 126.60935,932.76565 c 1.13545,-38.62223 32.57088,-53.1694 22.85678,-92.87946 0,-30.92213 0,-61.84425 0,-92.76638 44.96277,4.58429 113.65567,-16.78632 135.745,36.63652 21.12837,47.80108 -7.13557,97.00748 -9.59115,138.01382 24.15803,38.98749 28.36105,115.72015 -17.1223,143.29715 -30.79972,4.3162 -100.7287,22.6307 -109.03155,-7.3772 0,-41.6415 0,-83.28297 0,-124.92445 -7.61893,0 -15.23785,0 -22.85678,0 z m 72.0599,0 c 0,30.99915 0,61.9983 0,92.99745 60.6674,11.8949 58.31729,-101.79139 0,-92.99745 z m 0,-139.40886 c 0,30.99913 0,61.99827 0,92.9974 54.43964,7.73246 60.57199,-89.95114 10.90299,-92.9974 -3.63433,0 -7.26866,0 -10.90299,0 z"
         id="path975"
         inkscape:connector-curvature="0" />
      <path
         style="font-style:normal;font-variant:normal;font-weight:normal;font-stretch:normal;font-size:357.33334351px;line-height:500%;font-family:'Astakhov First Two Stripes';-inkscape-font-specification:'Astakhov First Two Stripes';text-align:center;text-anchor:middle;fill:#4c604c;stroke:#484c44;stroke-width:70;stroke-miterlimit:4;stroke-dasharray:none"
         d="m 308.7656,932.76565 c 1.13545,-38.62223 32.57088,-53.1694 22.85678,-92.87946 0,-30.92213 0,-61.84425 0,-92.76638 48.38889,0 96.77778,0 145.16667,0 6.58728,47.66967 -29.94923,50.19134 -65.7675,46.23698 -30.36725,-8.37697 -34.40654,9.57402 -30.19605,35.77478 4.49176,22.3793 -14.89326,70.47016 24.7942,57.14738 57.16328,-18.09747 27.65439,76.5717 -16.86955,45.16076 -16.57078,36.36356 -22.19384,120.72259 44.93977,93.30849 43.74136,12.2241 21.04877,66.4571 -20.58146,47.2518 -27.16203,0 -54.32405,0 -81.48608,0 0,-46.4114 0,-92.8229 0,-139.23435 -7.61893,0 -15.23785,0 -22.85678,0 z"
         id="path977"
         inkscape:connector-curvature="0" />
      <path
         style="font-style:normal;font-variant:normal;font-weight:normal;font-stretch:normal;font-size:357.33334351px;line-height:500%;font-family:'Astakhov First Two Stripes';-inkscape-font-specification:'Astakhov First Two Stripes';text-align:center;text-anchor:middle;fill:#4c604c;stroke:#484c44;stroke-width:70;stroke-miterlimit:4;stroke-dasharray:none"
         d="m 666.79686,747.11981 c -12.21505,65.39079 -69.84972,130.76374 -44.9611,196.1691 11.26411,44.87077 48.56786,114.53599 43.69501,144.04149 -65.55548,20.0201 -58.61514,-103.19479 -84.38137,-96.35415 -1.03345,37.57105 -50.63165,108.94985 -72.82598,67.66145 11.38919,-60.93729 65.64143,-121.83919 40.32923,-182.80678 -11.2212,-44.87009 -48.45542,-114.53708 -43.55619,-144.04038 65.60379,-20.06801 58.32583,103.21579 84.05717,96.35304 17.12882,-42.27315 19.70944,-88.11001 77.64323,-81.02377 z"
         id="path979"
         inkscape:connector-curvature="0" />
      <path
         style="font-style:normal;font-variant:normal;font-weight:normal;font-stretch:normal;font-size:357.33334351px;line-height:500%;font-family:'Astakhov First Two Stripes';-inkscape-font-specification:'Astakhov First Two Stripes';text-align:center;text-anchor:middle;fill:#4c604c;stroke:#484c44;stroke-width:70;stroke-miterlimit:4;stroke-dasharray:none"
         d="m 840.75261,1009.013 c 11.9197,79.9844 -131.63952,96.741 -138.92635,17.0264 -5.71559,-70.61184 -1.0939,-141.94664 -2.27014,-212.84878 -12.89972,-81.66281 122.53805,-99.6771 139.94382,-23.90791 2.79304,73.15994 0.51184,146.50396 1.25267,219.73029 z m -75.375,-216.17964 c -30.25798,23.24979 -12.55415,66.26465 -16.92448,99.25925 0,39.03163 0,78.06326 0,117.09489 30.82401,43.4081 51.6754,-17.34626 43.09635,-46.42876 0,-50.82582 0,-101.65165 0,-152.47747 -8.35891,-6.00753 -13.34858,-20.62125 -26.17187,-17.44791 z"
         id="path981"
         inkscape:connector-curvature="0" />
      <path
         style="font-style:normal;font-variant:normal;font-weight:normal;font-stretch:normal;font-size:357.33334351px;line-height:500%;font-family:'Astakhov First Two Stripes';-inkscape-font-specification:'Astakhov First Two Stripes';text-align:center;text-anchor:middle;fill:#4c604c;stroke:#484c44;stroke-width:70;stroke-miterlimit:4;stroke-dasharray:none"
         d="m 882.80208,1072 c 0,-108.2934 0,-216.58679 0,-324.88019 45.36232,-6.26532 55.24586,24.95795 49.20313,62.22925 0,72.13801 0,144.27603 0,216.41404 23.2639,0 46.52779,0 69.79169,0 25.0701,47.2583 -12.03577,50.4243 -48.31964,46.2369 -23.55839,0 -47.11679,0 -70.67518,0 z"
         id="path983"
         inkscape:connector-curvature="0" />
      <path
         style="font-style:normal;font-variant:normal;font-weight:normal;font-stretch:normal;font-size:357.33334351px;line-height:500%;font-family:'Astakhov First Two Stripes';-inkscape-font-specification:'Astakhov First Two Stripes';text-align:center;text-anchor:middle;fill:#4c604c;stroke:#484c44;stroke-width:70;stroke-miterlimit:4;stroke-dasharray:none"
         d="m 1040.7057,747.11981 c 45.6442,4.45035 117.6203,-17.28838 136.8529,39.90712 11.7944,61.33508 0.7514,124.77046 5.3897,187.00059 13.4276,59.67348 -31.7643,113.82128 -94.3272,98.07878 -61.0604,18.5608 -47.7765,-38.7298 -47.9154,-78.22255 0,-66.84232 0,-133.68464 0,-200.52696 -33.8441,19.06609 -22.6942,-57.9929 0,-46.23698 z m 49.3777,46.23698 c 0,77.46877 0,154.93754 0,232.40631 43.506,8.1387 46.2738,-41.59783 43.0963,-71.95143 0,-46.09867 0,-92.19735 0,-138.29602 -10.531,-12.46022 -24.3298,-28.57067 -43.0963,-22.15886 z"
         id="path985"
         inkscape:connector-curvature="0" />
      <path
         style="font-style:normal;font-variant:normal;font-weight:normal;font-stretch:normal;font-size:357.33334351px;line-height:500%;font-family:'Astakhov First Two Stripes';-inkscape-font-specification:'Astakhov First Two Stripes';text-align:center;text-anchor:middle;fill:#4c604c;stroke:#484c44;stroke-width:70;stroke-miterlimit:4;stroke-dasharray:none"
         d="m 1202.099,932.76565 c 1.1354,-38.62222 32.5708,-53.16942 22.8567,-92.87946 0,-30.92213 0,-61.84425 0,-92.76638 48.3889,0 96.7778,0 145.1667,0 6.5873,47.66968 -29.9492,50.19134 -65.7675,46.23698 -30.3672,-8.37698 -34.4065,9.57403 -30.196,35.77478 4.4918,22.3793 -14.8933,70.47016 24.7942,57.14737 57.1633,-18.09749 27.6544,76.57169 -16.8695,45.16078 -16.5708,36.36353 -22.1939,120.72258 44.9397,93.30858 43.7413,12.2241 21.0488,66.457 -20.5815,47.2517 -27.162,0 -54.3241,0 -81.4861,0 0,-46.4114 0,-92.8229 0,-139.23435 -7.6189,0 -15.2378,0 -22.8567,0 z"
         id="path987"
         inkscape:connector-curvature="0" />
      <path
         style="font-style:normal;font-variant:normal;font-weight:normal;font-stretch:normal;font-size:357.33334351px;line-height:500%;font-family:'Astakhov First Two Stripes';-inkscape-font-specification:'Astakhov First Two Stripes';text-align:center;text-anchor:middle;fill:#4c604c;stroke:#484c44;stroke-width:70;stroke-miterlimit:4;stroke-dasharray:none"
         d="m 1567.4584,1089.4479 c -71.3202,11.0697 -69.9453,-68.652 -90.2024,-116.113 -4.8269,-35.16181 -26.9524,-58.11301 -21.0053,-8.20111 0.5929,32.62516 -0.2681,65.41891 0.064,98.14231 -44.7721,22.9758 -55.537,-6.2849 -49.2031,-44.7814 0,-29.50688 0,-59.0138 0,-88.52072 -54.9554,-4.0242 18.7965,-53.79957 -0.625,-85.51861 1.3974,-32.39661 0.2529,-64.89706 0.625,-97.33556 52.3578,-1.41422 141.1644,-11.23013 137.3152,67.16924 21.4241,67.18127 -64.7778,111.71609 -14.294,173.30536 12.4417,33.95119 24.8835,67.90229 37.3252,101.85349 z M 1456.3151,793.35679 c 0,30.99913 0,61.99827 0,92.9974 55.5294,13.63879 53.8228,-101.93277 0,-92.9974 z"
         id="path989"
         inkscape:connector-curvature="0" />
    </g>
    <g
       id="g973"
       style="font-style:normal;font-weight:normal;font-size:357.33334351px;line-height:500%;font-family:sans-serif;text-align:center;letter-spacing:0px;word-spacing:0px;text-anchor:middle;fill:none;fill-opacity:1;stroke:#4c604c;stroke-width:70;stroke-linecap:butt;stroke-linejoin:miter;stroke-miterlimit:4;stroke-dasharray:none;stroke-opacity:1"
       transform="matrix(0.25654901,0.06470661,-0.06470661,0.25654901,65.457262,-215.81855)"
       aria-label="bexolder">
      <path
         style="font-style:normal;font-variant:normal;font-weight:normal;font-stretch:normal;font-size:357.33334351px;line-height:500%;font-family:'Astakhov First Two Stripes';-inkscape-font-specification:'Astakhov First Two Stripes';text-align:center;text-anchor:middle;fill:none;stroke:#4c604c;stroke-width:70;stroke-miterlimit:4;stroke-dasharray:none"
         d="m 126.60935,932.76565 c 1.13545,-38.62223 32.57088,-53.1694 22.85678,-92.87946 0,-30.92213 0,-61.84425 0,-92.76638 44.96277,4.58429 113.65567,-16.78632 135.745,36.63652 21.12837,47.80108 -7.13557,97.00748 -9.59115,138.01382 24.15803,38.98749 28.36105,115.72015 -17.1223,143.29715 -30.79972,4.3162 -100.7287,22.6307 -109.03155,-7.3772 0,-41.6415 0,-83.28297 0,-124.92445 -7.61893,0 -15.23785,0 -22.85678,0 z m 72.0599,0 c 0,30.99915 0,61.9983 0,92.99745 60.6674,11.8949 58.31729,-101.79139 0,-92.99745 z m 0,-139.40886 c 0,30.99913 0,61.99827 0,92.9974 54.43964,7.73246 60.57199,-89.95114 10.90298,-92.9974 -3.63432,0 -7.26865,0 -10.90298,0 z"
         id="path957"
         inkscape:connector-curvature="0" />
      <path
         style="font-style:normal;font-variant:normal;font-weight:normal;font-stretch:normal;font-size:357.33334351px;line-height:500%;font-family:'Astakhov First Two Stripes';-inkscape-font-specification:'Astakhov First Two Stripes';text-align:center;text-anchor:middle;fill:none;stroke:#4c604c;stroke-width:70;stroke-miterlimit:4;stroke-dasharray:none"
         d="m 308.7656,932.76565 c 1.13545,-38.62223 32.57088,-53.1694 22.85678,-92.87946 0,-30.92213 0,-61.84425 0,-92.76638 48.38889,0 96.77778,0 145.16667,0 6.58728,47.66967 -29.94923,50.19134 -65.7675,46.23698 -30.36725,-8.37697 -34.40654,9.57402 -30.19605,35.77478 4.49176,22.3793 -14.89326,70.47016 24.7942,57.14738 57.16328,-18.09747 27.65439,76.5717 -16.86955,45.16076 -16.57078,36.36357 -22.19385,120.72259 44.93977,93.30849 43.74136,12.2241 21.04877,66.4571 -20.58146,47.2518 -27.16203,0 -54.32405,0 -81.48608,0 0,-46.4114 0,-92.8229 0,-139.23435 -7.61893,0 -15.23785,0 -22.85678,0 z"
         id="path959"
         inkscape:connector-curvature="0" />
      <path
         style="font-style:normal;font-variant:normal;font-weight:normal;font-stretch:normal;font-size:357.33334351px;line-height:500%;font-family:'Astakhov First Two Stripes';-inkscape-font-specification:'Astakhov First Two Stripes';text-align:center;text-anchor:middle;fill:none;stroke:#4c604c;stroke-width:70;stroke-miterlimit:4;stroke-dasharray:none"
         d="m 666.79686,747.11981 c -12.21505,65.39079 -69.84972,130.76374 -44.9611,196.1691 11.26411,44.87077 48.56786,114.53599 43.69501,144.04149 -65.55548,20.0201 -58.61514,-103.19479 -84.38137,-96.35415 -1.03345,37.57105 -50.63165,108.94985 -72.82598,67.66145 11.38919,-60.93729 65.64143,-121.83919 40.32923,-182.80678 -11.2212,-44.87009 -48.45542,-114.53708 -43.55619,-144.04038 65.60379,-20.06801 58.32583,103.21579 84.05717,96.35304 17.12882,-42.27315 19.70944,-88.11001 77.64323,-81.02377 z"
         id="path961"
         inkscape:connector-curvature="0" />
      <path
         style="font-style:normal;font-variant:normal;font-weight:normal;font-stretch:normal;font-size:357.33334351px;line-height:500%;font-family:'Astakhov First Two Stripes';-inkscape-font-specification:'Astakhov First Two Stripes';text-align:center;text-anchor:middle;fill:none;stroke:#4c604c;stroke-width:70;stroke-miterlimit:4;stroke-dasharray:none"
         d="m 840.75261,1009.013 c 11.9197,79.9844 -131.63952,96.741 -138.92635,17.0264 -5.71559,-70.61184 -1.0939,-141.94664 -2.27014,-212.84878 -12.89972,-81.66281 122.53805,-99.6771 139.94382,-23.90791 2.79304,73.15994 0.51184,146.50396 1.25267,219.73029 z m -75.375,-216.17964 c -30.25798,23.24979 -12.55415,66.26465 -16.92448,99.25925 0,39.03163 0,78.06326 0,117.09489 30.82401,43.4081 51.6754,-17.34626 43.09635,-46.42876 0,-50.82582 0,-101.65165 0,-152.47747 -8.35891,-6.00753 -13.34858,-20.62125 -26.17187,-17.44791 z"
         id="path963"
         inkscape:connector-curvature="0" />
      <path
         style="font-style:normal;font-variant:normal;font-weight:normal;font-stretch:normal;font-size:357.33334351px;line-height:500%;font-family:'Astakhov First Two Stripes';-inkscape-font-specification:'Astakhov First Two Stripes';text-align:center;text-anchor:middle;fill:none;stroke:#4c604c;stroke-width:70;stroke-miterlimit:4;stroke-dasharray:none"
         d="m 882.80208,1072 c 0,-108.2934 0,-216.58679 0,-324.88019 45.36232,-6.26532 55.24586,24.95795 49.20313,62.22925 0,72.13801 0,144.27603 0,216.41404 23.2639,0 46.52779,0 69.79169,0 25.0701,47.2583 -12.03577,50.4243 -48.31964,46.2369 -23.55839,0 -47.11679,0 -70.67518,0 z"
         id="path965"
         inkscape:connector-curvature="0" />
      <path
         style="font-style:normal;font-variant:normal;font-weight:normal;font-stretch:normal;font-size:357.33334351px;line-height:500%;font-family:'Astakhov First Two Stripes';-inkscape-font-specification:'Astakhov First Two Stripes';text-align:center;text-anchor:middle;fill:none;stroke:#4c604c;stroke-width:70;stroke-miterlimit:4;stroke-dasharray:none"
         d="m 1040.7057,747.11981 c 45.6442,4.45035 117.6203,-17.28838 136.8529,39.90712 11.7944,61.33508 0.7514,124.77046 5.3897,187.00059 13.4276,59.67348 -31.7643,113.82128 -94.3272,98.07878 -61.0604,18.5608 -47.7765,-38.7298 -47.9154,-78.22255 0,-66.84232 0,-133.68464 0,-200.52696 -33.8441,19.06609 -22.6942,-57.9929 0,-46.23698 z m 49.3777,46.23698 c 0,77.46877 0,154.93754 0,232.40631 43.506,8.1387 46.2738,-41.59783 43.0963,-71.95143 0,-46.09867 0,-92.19735 0,-138.29602 -10.531,-12.46022 -24.3298,-28.57067 -43.0963,-22.15886 z"
         id="path967"
         inkscape:connector-curvature="0" />
      <path
         style="font-style:normal;font-variant:normal;font-weight:normal;font-stretch:normal;font-size:357.33334351px;line-height:500%;font-family:'Astakhov First Two Stripes';-inkscape-font-specification:'Astakhov First Two Stripes';text-align:center;text-anchor:middle;fill:none;stroke:#4c604c;stroke-width:70;stroke-miterlimit:4;stroke-dasharray:none"
         d="m 1202.099,932.76565 c 1.1354,-38.62222 32.5708,-53.16942 22.8567,-92.87946 0,-30.92213 0,-61.84425 0,-92.76638 48.3889,0 96.7778,0 145.1667,0 6.5873,47.66968 -29.9492,50.19134 -65.7675,46.23698 -30.3672,-8.37698 -34.4065,9.57403 -30.196,35.77478 4.4918,22.3793 -14.8933,70.47016 24.7942,57.14737 57.1633,-18.09749 27.6544,76.57169 -16.8695,45.16078 -16.5708,36.36356 -22.1939,120.72258 44.9397,93.30858 43.7413,12.2241 21.0488,66.457 -20.5815,47.2517 -27.162,0 -54.3241,0 -81.4861,0 0,-46.4114 0,-92.8229 0,-139.23435 -7.6189,0 -15.2378,0 -22.8567,0 z"
         id="path969"
         inkscape:connector-curvature="0" />
      <path
         style="font-style:normal;font-variant:normal;font-weight:normal;font-stretch:normal;font-size:357.33334351px;line-height:500%;font-family:'Astakhov First Two Stripes';-inkscape-font-specification:'Astakhov First Two Stripes';text-align:center;text-anchor:middle;fill:none;stroke:#4c604c;stroke-width:70;stroke-miterlimit:4;stroke-dasharray:none"
         d="m 1567.4584,1089.4479 c -71.3202,11.0697 -69.9453,-68.652 -90.2024,-116.113 -4.8269,-35.16181 -26.9524,-58.11301 -21.0053,-8.20111 0.5929,32.62516 -0.2681,65.41891 0.064,98.14231 -44.7721,22.9758 -55.537,-6.2849 -49.2031,-44.7814 0,-29.50688 0,-59.0138 0,-88.52072 -54.9554,-4.02421 18.7965,-53.79958 -0.625,-85.51862 1.3974,-32.39661 0.2529,-64.89705 0.625,-97.33555 52.3578,-1.41422 141.1644,-11.23013 137.3152,67.16924 21.4241,67.18127 -64.7778,111.71609 -14.294,173.30536 12.4417,33.95119 24.8835,67.90229 37.3252,101.85349 z M 1456.3151,793.35679 c 0,30.99913 0,61.99827 0,92.9974 55.5294,13.63879 53.8228,-101.93277 0,-92.9974 z"
         id="path971"
         inkscape:connector-curvature="0" />
    </g>
    <g
       aria-label="bexolder"
       transform="matrix(0.26254149,0.0328071,-0.0328071,0.26254149,30.884455,-194.66675)"
       style="font-style:normal;font-weight:normal;font-size:357.33334351px;line-height:500%;font-family:sans-serif;text-align:center;letter-spacing:0px;word-spacing:0px;text-anchor:middle;fill:none;fill-opacity:1;stroke:#506c50;stroke-width:70;stroke-linecap:butt;stroke-linejoin:miter;stroke-miterlimit:4;stroke-dasharray:none;stroke-opacity:1"
       id="flowRoot8-7">
      <path
         style="font-style:normal;font-variant:normal;font-weight:normal;font-stretch:normal;font-size:357.33334351px;line-height:500%;font-family:'Astakhov First Two Stripes';-inkscape-font-specification:'Astakhov First Two Stripes';text-align:center;text-anchor:middle;fill:none;stroke:#506c50;stroke-width:70;stroke-miterlimit:4;stroke-dasharray:none"
         d="m 126.60935,932.76565 c 1.13545,-38.62223 32.57088,-53.1694 22.85678,-92.87946 0,-30.92213 0,-61.84425 0,-92.76638 44.96277,4.58429 113.65567,-16.78632 135.745,36.63652 21.12837,47.80108 -7.13557,97.00748 -9.59115,138.01382 24.15803,38.98749 28.36105,115.72015 -17.1223,143.29715 -30.79972,4.3162 -100.7287,22.6307 -109.03155,-7.3772 0,-41.6415 0,-83.28297 0,-124.92445 -7.61893,0 -15.23785,0 -22.85678,0 z m 72.0599,0 c 0,30.99915 0,61.9983 0,92.99745 60.6674,11.8949 58.31729,-101.79139 0,-92.99745 z m 0,-139.40886 c 0,30.99913 0,61.99827 0,92.9974 54.43964,7.73246 60.57199,-89.95114 10.90298,-92.9974 -3.63432,0 -7.26865,0 -10.90298,0 z"
         id="path18-0"
         inkscape:connector-curvature="0" />
      <path
         style="font-style:normal;font-variant:normal;font-weight:normal;font-stretch:normal;font-size:357.33334351px;line-height:500%;font-family:'Astakhov First Two Stripes';-inkscape-font-specification:'Astakhov First Two Stripes';text-align:center;text-anchor:middle;fill:none;stroke:#506c50;stroke-width:70;stroke-miterlimit:4;stroke-dasharray:none"
         d="m 308.7656,932.76565 c 1.13545,-38.62223 32.57088,-53.1694 22.85678,-92.87946 0,-30.92213 0,-61.84425 0,-92.76638 48.38889,0 96.77778,0 145.16667,0 6.58728,47.66967 -29.94923,50.19134 -65.7675,46.23698 -30.36725,-8.37697 -34.40654,9.57402 -30.19605,35.77478 4.49176,22.3793 -14.89326,70.47016 24.7942,57.14738 57.16328,-18.09747 27.65439,76.5717 -16.86955,45.16076 -16.57078,36.36357 -22.19385,120.72259 44.93977,93.30849 43.74136,12.2241 21.04877,66.4571 -20.58146,47.2518 -27.16203,0 -54.32405,0 -81.48608,0 0,-46.4115 0,-92.8229 0,-139.23435 -7.61893,0 -15.23785,0 -22.85678,0 z"
         id="path20-6"
         inkscape:connector-curvature="0" />
      <path
         style="font-style:normal;font-variant:normal;font-weight:normal;font-stretch:normal;font-size:357.33334351px;line-height:500%;font-family:'Astakhov First Two Stripes';-inkscape-font-specification:'Astakhov First Two Stripes';text-align:center;text-anchor:middle;fill:none;stroke:#506c50;stroke-width:70;stroke-miterlimit:4;stroke-dasharray:none"
         d="m 666.79686,747.11981 c -12.21505,65.39079 -69.84972,130.76374 -44.9611,196.1691 11.26411,44.87077 48.56786,114.53599 43.69501,144.04149 -65.55548,20.0201 -58.61514,-103.19479 -84.38137,-96.35415 -1.03345,37.57105 -50.63165,108.94985 -72.82598,67.66145 11.38919,-60.93729 65.64143,-121.83919 40.32923,-182.80678 -11.2212,-44.87009 -48.45542,-114.53708 -43.55619,-144.04038 65.60379,-20.06801 58.32583,103.21579 84.05717,96.35304 17.12882,-42.27315 19.70944,-88.11001 77.64323,-81.02377 z"
         id="path22-0"
         inkscape:connector-curvature="0" />
      <path
         style="font-style:normal;font-variant:normal;font-weight:normal;font-stretch:normal;font-size:357.33334351px;line-height:500%;font-family:'Astakhov First Two Stripes';-inkscape-font-specification:'Astakhov First Two Stripes';text-align:center;text-anchor:middle;fill:none;stroke:#506c50;stroke-width:70;stroke-miterlimit:4;stroke-dasharray:none"
         d="m 840.75261,1009.013 c 11.9197,79.9844 -131.63952,96.741 -138.92635,17.0264 -5.71559,-70.61184 -1.0939,-141.94664 -2.27014,-212.84878 -12.89972,-81.66281 122.53805,-99.6771 139.94382,-23.90791 2.79304,73.15994 0.51184,146.50396 1.25267,219.73029 z m -75.375,-216.17964 c -30.25798,23.24979 -12.55415,66.26465 -16.92448,99.25925 0,39.03163 0,78.06326 0,117.09489 30.82401,43.4081 51.6754,-17.34626 43.09635,-46.42876 0,-50.82582 0,-101.65165 0,-152.47747 -8.35891,-6.00753 -13.34858,-20.62125 -26.17187,-17.44791 z"
         id="path24-4"
         inkscape:connector-curvature="0" />
      <path
         style="font-style:normal;font-variant:normal;font-weight:normal;font-stretch:normal;font-size:357.33334351px;line-height:500%;font-family:'Astakhov First Two Stripes';-inkscape-font-specification:'Astakhov First Two Stripes';text-align:center;text-anchor:middle;fill:none;stroke:#506c50;stroke-width:70;stroke-miterlimit:4;stroke-dasharray:none"
         d="m 882.80208,1072 c 0,-108.2934 0,-216.58679 0,-324.88019 45.36232,-6.26532 55.24586,24.95795 49.20313,62.22925 0,72.13801 0,144.27603 0,216.41404 23.2639,0 46.52779,0 69.79169,0 25.0701,47.2583 -12.03577,50.4243 -48.31964,46.2369 -23.55839,0 -47.11679,0 -70.67518,0 z"
         id="path26-1"
         inkscape:connector-curvature="0" />
      <path
         style="font-style:normal;font-variant:normal;font-weight:normal;font-stretch:normal;font-size:357.33334351px;line-height:500%;font-family:'Astakhov First Two Stripes';-inkscape-font-specification:'Astakhov First Two Stripes';text-align:center;text-anchor:middle;fill:none;stroke:#506c50;stroke-width:70;stroke-miterlimit:4;stroke-dasharray:none"
         d="m 1040.7057,747.11981 c 45.6442,4.45035 117.6203,-17.28838 136.8529,39.90712 11.7944,61.33508 0.7514,124.77046 5.3897,187.00059 13.4276,59.67348 -31.7643,113.82128 -94.3272,98.07878 -61.0604,18.5608 -47.7765,-38.7298 -47.9154,-78.22255 0,-66.84232 0,-133.68464 0,-200.52696 -33.8441,19.06609 -22.6942,-57.9929 0,-46.23698 z m 49.3777,46.23698 c 0,77.46877 0,154.93754 0,232.40631 43.506,8.1387 46.2738,-41.59783 43.0963,-71.95143 0,-46.09867 0,-92.19735 0,-138.29602 -10.531,-12.46022 -24.3298,-28.57067 -43.0963,-22.15886 z"
         id="path28-3"
         inkscape:connector-curvature="0" />
      <path
         style="font-style:normal;font-variant:normal;font-weight:normal;font-stretch:normal;font-size:357.33334351px;line-height:500%;font-family:'Astakhov First Two Stripes';-inkscape-font-specification:'Astakhov First Two Stripes';text-align:center;text-anchor:middle;fill:none;stroke:#506c50;stroke-width:70;stroke-miterlimit:4;stroke-dasharray:none"
         d="m 1202.099,932.76565 c 1.1354,-38.62222 32.5708,-53.16942 22.8567,-92.87946 0,-30.92213 0,-61.84425 0,-92.76638 48.3889,0 96.7778,0 145.1667,0 6.5873,47.66968 -29.9492,50.19134 -65.7675,46.23698 -30.3672,-8.37698 -34.4065,9.57403 -30.196,35.77478 4.4918,22.3793 -14.8933,70.47016 24.7942,57.14737 57.1633,-18.09749 27.6544,76.57169 -16.8695,45.16078 -16.5708,36.36356 -22.1939,120.72258 44.9397,93.30858 43.7413,12.2241 21.0488,66.457 -20.5815,47.2517 -27.162,0 -54.3241,0 -81.4861,0 0,-46.4115 0,-92.8229 0,-139.23435 -7.6189,0 -15.2378,0 -22.8567,0 z"
         id="path30-0"
         inkscape:connector-curvature="0" />
      <path
         style="font-style:normal;font-variant:normal;font-weight:normal;font-stretch:normal;font-size:357.33334351px;line-height:500%;font-family:'Astakhov First Two Stripes';-inkscape-font-specification:'Astakhov First Two Stripes';text-align:center;text-anchor:middle;fill:none;stroke:#506c50;stroke-width:70;stroke-miterlimit:4;stroke-dasharray:none"
         d="m 1567.4584,1089.4479 c -71.3202,11.0697 -69.9453,-68.652 -90.2024,-116.113 -4.8269,-35.16181 -26.9524,-58.11301 -21.0053,-8.20111 0.5929,32.62516 -0.2681,65.41891 0.064,98.14231 -44.7721,22.9758 -55.537,-6.2849 -49.2031,-44.7814 0,-29.50688 0,-59.0138 0,-88.52072 -54.9554,-4.02421 18.7965,-53.79958 -0.625,-85.51862 1.3974,-32.39661 0.2529,-64.89705 0.625,-97.33555 52.3578,-1.41422 141.1644,-11.23013 137.3152,67.16924 21.4241,67.18127 -64.7778,111.71609 -14.294,173.30536 12.4417,33.95119 24.8835,67.90229 37.3252,101.85349 z M 1456.3151,793.35679 c 0,30.99913 0,61.99827 0,92.9974 55.5294,13.63879 53.8228,-101.93277 0,-92.9974 z"
         id="path32-2"
         inkscape:connector-curvature="0" />
    </g>
    <g
       aria-label="bexolder"
       transform="matrix(0.26458333,0,0,0.26458333,0.78479412,-168.55025)"
       style="font-style:normal;font-weight:normal;font-size:357.33334351px;line-height:500%;font-family:sans-serif;text-align:center;letter-spacing:0px;word-spacing:0px;text-anchor:middle;fill:#587448;fill-opacity:1;stroke:#4c604c;stroke-width:70;stroke-linecap:butt;stroke-linejoin:miter;stroke-miterlimit:4;stroke-dasharray:none;stroke-opacity:1"
       id="flowRoot8">
      <path
         style="font-style:normal;font-variant:normal;font-weight:normal;font-stretch:normal;font-size:357.33334351px;line-height:500%;font-family:'Astakhov First Two Stripes';-inkscape-font-specification:'Astakhov First Two Stripes';text-align:center;text-anchor:middle;fill:#587448;stroke:#4c604c;stroke-width:70;stroke-miterlimit:4;stroke-dasharray:none"
         d="m 126.60935,932.76565 c 7.58392,-14.97878 -2.13842,-50.81997 21.52809,-46.41146 3.10261,-42.15475 0.44114,-90.07358 1.32869,-134.44339 8.62011,-11.09624 37.82515,-1.56017 54.41742,-4.66589 43.32457,-7.42421 93.71904,17.91724 87.08518,68.27074 -2.04151,32.41143 9.99306,77.04829 -27.04427,94.04427 39.08435,19.18896 24.30658,67.56105 26.788,102.45888 2.24293,50.1564 -50.3427,65.3053 -90.89575,59.9812 -15.22161,-4.763 -50.49687,10.5277 -50.35058,-9.6031 0,-43.2104 0,-86.42083 0,-129.63125 -7.61893,0 -15.23785,0 -22.85678,0 z m 72.0599,0 c 0,30.99915 0,61.9983 0,92.99745 19.59019,5.3847 39.40413,-10.5516 43.09636,-28.38647 -3.01873,-18.09017 8.91371,-43.38047 -12.51337,-52.60562 -9.5715,-8.82032 -16.7857,-14.94355 -30.58299,-12.00536 z m 0,-139.40886 c 0,30.99913 0,61.99827 0,92.9974 17.3261,2.83776 39.11941,-13.00516 43.09636,-28.38644 -1.99455,-19.74523 7.51329,-44.14745 -13.36183,-56.24846 -6.69535,-12.23383 -18.25378,-7.55822 -29.73453,-8.3625 z"
         id="path18"
         inkscape:connector-curvature="0" />
      <path
         style="font-style:normal;font-variant:normal;font-weight:normal;font-stretch:normal;font-size:357.33334351px;line-height:500%;font-family:'Astakhov First Two Stripes';-inkscape-font-specification:'Astakhov First Two Stripes';text-align:center;text-anchor:middle;fill:#587448;stroke:#4c604c;stroke-width:70;stroke-miterlimit:4;stroke-dasharray:none"
         d="m 308.7656,932.76565 c 7.58392,-14.97878 -2.13842,-50.81997 21.52809,-46.41146 3.10261,-42.15475 0.44114,-90.07358 1.32869,-134.44339 8.62013,-11.11606 37.82525,-1.64712 54.41756,-4.79099 30.24971,0 60.49941,0 90.74911,0 -7.5882,14.91511 2.13573,50.71426 -21.52809,46.23698 -24.81182,0 -49.62364,0 -74.43546,0 0,30.99913 0,61.99827 0,92.9974 19.59983,0 39.19965,0 58.79948,0 -7.58392,14.97878 2.13842,50.81997 -21.52809,46.41146 -19.82141,0.0715 -46.50275,-6.717 -37.27139,22.40723 0,23.53007 0,47.06012 0,70.59022 23.26389,0 46.52778,0 69.79167,0 -1.95986,14.9151 21.2732,50.7142 -4.08017,46.2369 -38.30488,0 -76.60975,0 -114.91462,0 0,-46.4115 0,-92.8229 0,-139.23435 -7.61893,0 -15.23785,0 -22.85678,0 z"
         id="path20"
         inkscape:connector-curvature="0" />
      <path
         style="font-style:normal;font-variant:normal;font-weight:normal;font-stretch:normal;font-size:357.33334351px;line-height:500%;font-family:'Astakhov First Two Stripes';-inkscape-font-specification:'Astakhov First Two Stripes';text-align:center;text-anchor:middle;fill:#587448;stroke:#4c604c;stroke-width:70;stroke-miterlimit:4;stroke-dasharray:none"
         d="m 666.79686,747.11981 c -18.90191,54.1467 -37.80382,108.29341 -56.70573,162.44011 20.87934,59.96266 41.75868,119.92528 62.63802,179.88798 -16.39106,-6.9981 -45.58706,1.6806 -52.30252,-17.1631 -11.76201,-30.5706 -23.52401,-61.1412 -35.28602,-91.71186 -10.64323,27.74216 -21.28646,55.48436 -31.92969,83.22656 -13.38723,-2.0347 -53.23843,18.197 -46.38708,-0.866 17.84691,-51.1246 35.69381,-102.24907 53.54072,-153.37358 -20.82118,-59.96267 -41.64236,-119.92535 -62.46354,-179.88802 16.37733,7.00337 45.61723,-1.69214 52.27542,17.17351 11.65472,30.56717 23.30945,61.13433 34.96417,91.70149 10.70139,-27.74219 21.40277,-55.48438 32.10416,-83.22657 16.51736,-2.73351 33.03473,-5.46701 49.55209,-8.20052 z"
         id="path22"
         inkscape:connector-curvature="0" />
      <path
         style="font-style:normal;font-variant:normal;font-weight:normal;font-stretch:normal;font-size:357.33334351px;line-height:500%;font-family:'Astakhov First Two Stripes';-inkscape-font-specification:'Astakhov First Two Stripes';text-align:center;text-anchor:middle;fill:#587448;stroke:#4c604c;stroke-width:70;stroke-miterlimit:4;stroke-dasharray:none"
         d="m 840.75261,1009.013 c 7.0905,58.1193 -62.61024,83.552 -108.1028,61.8741 -46.95392,-23.1912 -30.21812,-80.55397 -33.39981,-122.69373 1.2933,-53.74044 -2.80687,-107.88011 2.48428,-161.33048 14.24655,-64.59133 131.82107,-60.56831 137.91148,7.21363 2.4763,71.54507 0.44651,143.30882 1.10685,214.93648 z m -75.375,-216.17964 c -19.95182,11.7528 -17.90024,32.42407 -16.92448,52.65928 0,54.56495 0,109.12991 0,163.69486 10.72605,19.8794 30.99329,22.5283 41.94502,1.1873 2.68741,-65.76434 0.38304,-133.5515 1.15133,-200.09353 -8.53754,-6.34263 -13.68302,-20.77246 -26.17187,-17.44791 z"
         id="path24"
         inkscape:connector-curvature="0" />
      <path
         style="font-style:normal;font-variant:normal;font-weight:normal;font-stretch:normal;font-size:357.33334351px;line-height:500%;font-family:'Astakhov First Two Stripes';-inkscape-font-specification:'Astakhov First Two Stripes';text-align:center;text-anchor:middle;fill:#587448;stroke:#4c604c;stroke-width:70;stroke-miterlimit:4;stroke-dasharray:none"
         d="m 882.80208,1072 c 0,-108.2934 0,-216.58679 0,-324.88019 14.81795,7.43611 49.54458,-1.81706 49.20313,18.32706 0,86.77208 0,173.54415 0,260.31623 23.2639,0 46.52779,0 69.79169,0 -1.95988,14.9151 21.2731,50.7142 -4.08023,46.2369 -38.30487,0 -76.60973,0 -114.91459,0 z"
         id="path26"
         inkscape:connector-curvature="0" />
      <path
         style="font-style:normal;font-variant:normal;font-weight:normal;font-stretch:normal;font-size:357.33334351px;line-height:500%;font-family:'Astakhov First Two Stripes';-inkscape-font-specification:'Astakhov First Two Stripes';text-align:center;text-anchor:middle;fill:#587448;stroke:#4c604c;stroke-width:70;stroke-miterlimit:4;stroke-dasharray:none"
         d="m 1040.7057,747.11981 c 38.6721,2.75488 79.9705,-6.97284 116.1568,9.76811 38.9252,30.17031 21.8997,83.38442 25.6948,125.84943 -1.7684,50.22051 4.0857,101.21516 -4.1112,150.81185 -17.0557,50.131 -75.098,36.4304 -116.0246,38.4508 -29.3181,9.2754 -21.0096,-19.0759 -21.7158,-38.4124 0,-80.07694 0,-160.15387 0,-240.23081 -30.2913,9.06496 -20.6533,-14.97009 -16.3283,-34.60087 -0.5258,-13.10007 5.4461,-12.44898 16.3283,-11.63611 z m 49.3777,46.23698 c 0,77.46877 0,154.93754 0,232.40631 19.5902,5.3847 39.4041,-10.5516 43.0963,-28.38647 0,-60.62032 0,-121.24065 0,-181.86098 -12.5175,-13.89919 -22.297,-27.51431 -43.0963,-22.15886 z"
         id="path28"
         inkscape:connector-curvature="0" />
      <path
         style="font-style:normal;font-variant:normal;font-weight:normal;font-stretch:normal;font-size:357.33334351px;line-height:500%;font-family:'Astakhov First Two Stripes';-inkscape-font-specification:'Astakhov First Two Stripes';text-align:center;text-anchor:middle;fill:#587448;stroke:#4c604c;stroke-width:70;stroke-miterlimit:4;stroke-dasharray:none"
         d="m 1202.099,932.76565 c 7.5839,-14.97878 -2.1385,-50.81998 21.528,-46.41146 3.1026,-42.15479 0.4412,-90.07358 1.3287,-134.44339 8.6201,-11.11606 37.8253,-1.64712 54.4176,-4.79099 30.2497,0 60.4994,0 90.7491,0 -7.5882,14.91511 2.1358,50.71427 -21.528,46.23698 -24.8119,0 -49.6237,0 -74.4355,0 0,30.99913 0,61.99827 0,92.9974 19.5998,0 39.1997,0 58.7995,0 -7.5839,14.97878 2.1384,50.81997 -21.5281,46.41146 -19.8214,0.0715 -46.5028,-6.717 -37.2714,22.40723 0,23.53007 0,47.06012 0,70.59022 23.2639,0 46.5277,0 69.7916,0 -1.9598,14.9151 21.2732,50.7142 -4.0801,46.2369 -38.3049,0 -76.6098,0 -114.9147,0 0,-46.4115 0,-92.8229 0,-139.23435 -7.6189,0 -15.2378,0 -22.8567,0 z"
         id="path30"
         inkscape:connector-curvature="0" />
      <path
         style="font-style:normal;font-variant:normal;font-weight:normal;font-stretch:normal;font-size:357.33334351px;line-height:500%;font-family:'Astakhov First Two Stripes';-inkscape-font-specification:'Astakhov First Two Stripes';text-align:center;text-anchor:middle;fill:#587448;stroke:#4c604c;stroke-width:70;stroke-miterlimit:4;stroke-dasharray:none"
         d="m 1567.4584,1089.4479 c -17.6975,-4.9114 -41.5614,-2.5696 -55.619,-11.7624 -16.4143,-49.528 -32.8287,-99.05594 -49.243,-148.58391 -13.965,8.09357 -2.5977,38.2443 -6.2813,55.28995 0,26.29486 0,52.58966 0,78.88456 -14.8179,-2.1815 -49.5446,19.386 -49.2031,-0.8792 0,-44.141 0,-88.28195 0,-132.42292 -30.3901,9.04573 -20.4903,-14.9383 -15.9513,-34.52758 13.0415,-9.88535 20.5597,-19.35874 15.9513,-44.30358 0,-34.67433 0,-69.34867 0,-104.02301 40.4038,3.67691 86.9006,-10.51496 120.9141,17.22982 24.8818,31.19554 14.5341,73.38261 15.7958,110.29265 -5.134,38.16692 -55.2329,42.9763 -24.9121,82.32569 16.1829,44.15993 32.3657,88.31993 48.5486,132.47993 z M 1456.3151,793.35679 c 0,30.99913 0,61.99827 0,92.9974 23.8609,7.05335 42.7941,-15.10883 38.9089,-37.98954 1.9904,-20.29162 1.3978,-39.53744 -17.8158,-51.24412 -4.328,-7.17594 -14.2099,-2.38296 -21.0931,-3.76374 z"
         id="path32"
         inkscape:connector-curvature="0" />
    </g>
    <g
       aria-label="bexolder"
       transform="matrix(0.26443915,-0.008734,0.008734,0.26443915,-8.5410293,-161.01118)"
       style="font-style:normal;font-weight:normal;font-size:357.33334351px;line-height:500%;font-family:sans-serif;text-align:center;letter-spacing:0px;word-spacing:0px;text-anchor:middle;fill:#648c58;fill-opacity:1;stroke:none;stroke-width:10;stroke-linecap:butt;stroke-linejoin:miter;stroke-miterlimit:4;stroke-dasharray:none;stroke-opacity:1"
       id="flowRoot8-6">
      <path
         inkscape:connector-curvature="0"
         d="m 126.60935,932.76565 8.72396,-46.41146 h 14.13282 V 747.11981 l 75.89844,0.17448 q 65.60416,0 65.60416,68.22136 v 48.85417 q 0,31.92968 -27.04427,45.1901 27.04427,13.26042 27.04427,45.19011 v 49.02867 q 0,68.0469 -65.60416,68.0469 -1.04688,0 -3.14063,0.1744 H 149.46613 V 932.76565 Z m 72.0599,0 v 92.99745 h 21.63542 l 21.46094,-21.9844 V 954.75003 L 214.1979,932.76565 Z m 0,-139.40886 v 92.9974 h 15.52865 l 27.56771,-21.98437 v -48.85417 l -21.46094,-22.15886 z"
         style="font-style:normal;font-variant:normal;font-weight:normal;font-stretch:normal;font-size:357.33334351px;line-height:500%;font-family:'Astakhov First Two Stripes';-inkscape-font-specification:'Astakhov First Two Stripes';text-align:center;text-anchor:middle;fill:#648c58;fill-opacity:1;stroke:none;stroke-width:10;stroke-miterlimit:4;stroke-dasharray:none;stroke-opacity:1"
         id="path18-9" />
      <path
         inkscape:connector-curvature="0"
         d="m 308.7656,932.76565 8.72396,-46.41146 h 14.13282 V 747.11981 h 145.16667 l -8.72396,46.23698 H 380.8255 v 92.9974 h 58.79948 l -8.72396,46.41146 H 380.8255 v 92.99745 h 69.79167 L 459.34113,1072 H 331.62238 V 932.76565 Z"
         style="font-style:normal;font-variant:normal;font-weight:normal;font-stretch:normal;font-size:357.33334351px;line-height:500%;font-family:'Astakhov First Two Stripes';-inkscape-font-specification:'Astakhov First Two Stripes';text-align:center;text-anchor:middle;fill:#648c58;fill-opacity:1;stroke:none;stroke-width:10;stroke-miterlimit:4;stroke-dasharray:none;stroke-opacity:1"
         id="path20-0" />
      <path
         inkscape:connector-curvature="0"
         d="m 666.79686,747.11981 -56.70573,162.44011 62.63802,179.88798 -48.85417,-8.2005 -38.73437,-100.67446 -31.92969,83.22656 -49.55209,8.2005 56.70573,-162.44008 -62.46354,-179.88802 48.85417,8.20052 38.38542,100.67448 32.10416,-83.22657 z"
         style="font-style:normal;font-variant:normal;font-weight:normal;font-stretch:normal;font-size:357.33334351px;line-height:500%;font-family:'Astakhov First Two Stripes';-inkscape-font-specification:'Astakhov First Two Stripes';text-align:center;text-anchor:middle;fill:#648c58;fill-opacity:1;stroke:none;stroke-width:10;stroke-miterlimit:4;stroke-dasharray:none;stroke-opacity:1"
         id="path22-3" />
      <path
         inkscape:connector-curvature="0"
         d="m 840.75261,1009.013 q 0,68.3959 -70.83855,68.5704 -70.66406,0 -70.66406,-68.5704 V 810.10679 q 0,-68.39583 70.66406,-68.39583 70.83855,0 70.83855,68.39583 z m -75.375,-216.17964 -16.92448,17.44791 v 198.90623 l 16.57552,17.2735 h 9.77083 l 16.75,-17.2735 V 810.28127 l -17.09896,-17.44791 z"
         style="font-style:normal;font-variant:normal;font-weight:normal;font-stretch:normal;font-size:357.33334351px;line-height:500%;font-family:'Astakhov First Two Stripes';-inkscape-font-specification:'Astakhov First Two Stripes';text-align:center;text-anchor:middle;fill:#648c58;fill-opacity:1;stroke:none;stroke-width:10;stroke-miterlimit:4;stroke-dasharray:none;stroke-opacity:1"
         id="path24-5" />
      <path
         inkscape:connector-curvature="0"
         d="M 882.80208,1072 V 747.11981 l 49.20313,8.72396 v 269.91933 h 69.79169 l 8.7239,46.2369 z"
         style="font-style:normal;font-variant:normal;font-weight:normal;font-stretch:normal;font-size:357.33334351px;line-height:500%;font-family:'Astakhov First Two Stripes';-inkscape-font-specification:'Astakhov First Two Stripes';text-align:center;text-anchor:middle;fill:#648c58;fill-opacity:1;stroke:none;stroke-width:10;stroke-miterlimit:4;stroke-dasharray:none;stroke-opacity:1"
         id="path26-5" />
      <path
         inkscape:connector-curvature="0"
         d="m 1040.7057,747.11981 76.073,0.17448 q 65.7786,0 65.7786,68.22136 v 188.26305 q 0,68.0469 -65.7786,68.0469 -1.0469,0 -3.1407,0.1744 h -72.9323 V 793.35679 h -22.8567 l 8.7239,-46.23698 z m 49.3777,46.23698 v 232.40631 h 21.6354 l 21.4609,-21.9844 V 815.51565 l -21.4609,-22.15886 z"
         style="font-style:normal;font-variant:normal;font-weight:normal;font-stretch:normal;font-size:357.33334351px;line-height:500%;font-family:'Astakhov First Two Stripes';-inkscape-font-specification:'Astakhov First Two Stripes';text-align:center;text-anchor:middle;fill:#648c58;fill-opacity:1;stroke:none;stroke-width:10;stroke-miterlimit:4;stroke-dasharray:none;stroke-opacity:1"
         id="path28-8" />
      <path
         inkscape:connector-curvature="0"
         d="m 1202.099,932.76565 8.7239,-46.41146 h 14.1328 V 747.11981 h 145.1667 l -8.7239,46.23698 h -87.2396 v 92.9974 h 58.7995 l -8.724,46.41146 h -50.0755 v 92.99745 h 69.7916 l 8.724,46.2369 H 1224.9557 V 932.76565 Z"
         style="font-style:normal;font-variant:normal;font-weight:normal;font-stretch:normal;font-size:357.33334351px;line-height:500%;font-family:'Astakhov First Two Stripes';-inkscape-font-specification:'Astakhov First Two Stripes';text-align:center;text-anchor:middle;fill:#648c58;fill-opacity:1;stroke:none;stroke-width:10;stroke-miterlimit:4;stroke-dasharray:none;stroke-opacity:1"
         id="path30-7" />
      <path
         inkscape:connector-curvature="0"
         d="m 1567.4584,1089.4479 -54.612,-8.7239 -50.25,-151.62241 -6.2813,0.87239 V 1063.2761 L 1407.112,1072 V 929.97398 h -22.8568 l 8.724,-43.61979 h 14.1328 V 747.11981 l 71.7109,0.17448 q 65.6042,0 65.6042,68.22136 v 48.85417 q 0,42.92187 -38.7344,56.53125 z M 1456.3151,793.35679 v 92.9974 h 11.3412 q 10.2942,0 14.1328,-1.22135 l 13.4349,-20.76302 v -48.85417 l -21.461,-22.15886 z"
         style="font-style:normal;font-variant:normal;font-weight:normal;font-stretch:normal;font-size:357.33334351px;line-height:500%;font-family:'Astakhov First Two Stripes';-inkscape-font-specification:'Astakhov First Two Stripes';text-align:center;text-anchor:middle;fill:#648c58;fill-opacity:1;stroke:none;stroke-width:10;stroke-miterlimit:4;stroke-dasharray:none;stroke-opacity:1"
         id="path32-1" />
    </g>
  </g>
</svg>
