<?xml version="1.0" encoding="UTF-8" standalone="no"?>
<!-- Created with Inkscape (http://www.inkscape.org/) -->

<svg
   xmlns:dc="http://purl.org/dc/elements/1.1/"
   xmlns:cc="http://creativecommons.org/ns#"
   xmlns:rdf="http://www.w3.org/1999/02/22-rdf-syntax-ns#"
   xmlns:svg="http://www.w3.org/2000/svg"
   xmlns="http://www.w3.org/2000/svg"
   xmlns:sodipodi="http://sodipodi.sourceforge.net/DTD/sodipodi-0.dtd"
   xmlns:inkscape="http://www.inkscape.org/namespaces/inkscape"
   width="150pt"
   height="150pt"
   viewBox="0 0 52.916669 52.916672"
   version="1.1"
   id="svg79"
   sodipodi:docname="douceur-sur-leau.svg"
   inkscape:version="0.92.1 r15371"
   inkscape:export-filename="/home/kn/git/ArtWorks/douceur-sur-leau.svg.png"
   inkscape:export-xdpi="1056"
   inkscape:export-ydpi="1056">
  <defs
     id="defs73">
    <marker
       inkscape:stockid="Arrow1Mstart"
       orient="auto"
       refY="0"
       refX="0"
       id="Arrow1Mstart"
       style="overflow:visible"
       inkscape:isstock="true">
      <path
         id="path4637"
         d="M 0,0 5,-5 -12.5,0 5,5 Z"
         style="fill:#788998;fill-opacity:1;fill-rule:evenodd;stroke:#111119;stroke-width:1.00000003pt;stroke-opacity:1"
         transform="matrix(0.4,0,0,0.4,4,0)"
         inkscape:connector-curvature="0" />
    </marker>
    <marker
       inkscape:stockid="Arrow1Lend"
       orient="auto"
       refY="0"
       refX="0"
       id="Arrow1Lend"
       style="overflow:visible"
       inkscape:isstock="true">
      <path
         id="path4634"
         d="M 0,0 5,-5 -12.5,0 5,5 Z"
         style="fill:#788998;fill-opacity:1;fill-rule:evenodd;stroke:none;stroke-width:1.00000003pt;stroke-opacity:1"
         transform="matrix(-0.8,0,0,-0.8,-10,0)"
         inkscape:connector-curvature="0" />
    </marker>
    <marker
       inkscape:stockid="Arrow1Lstart"
       orient="auto"
       refY="0"
       refX="0"
       id="Arrow1Lstart"
       style="overflow:visible"
       inkscape:isstock="true">
      <path
         id="path4631"
         d="M 0,0 5,-5 -12.5,0 5,5 Z"
         style="fill:#788998;fill-opacity:1;fill-rule:evenodd;stroke:none;stroke-width:1.00000003pt;stroke-opacity:1"
         transform="matrix(0.8,0,0,0.8,10,0)"
         inkscape:connector-curvature="0" />
    </marker>
  </defs>
  <sodipodi:namedview
     id="base"
     pagecolor="#ffffff"
     bordercolor="#666666"
     borderopacity="1.0"
     inkscape:pageopacity="0.0"
     inkscape:pageshadow="2"
     inkscape:zoom="1.6793786"
     inkscape:cx="92.529871"
     inkscape:cy="110.10183"
     inkscape:document-units="mm"
     inkscape:current-layer="layer1"
     showgrid="true"
     units="pt"
     inkscape:pagecheckerboard="true"
     showborder="false"
     inkscape:window-width="1366"
     inkscape:window-height="706"
     inkscape:window-x="0"
     inkscape:window-y="34"
     inkscape:window-maximized="1"
     inkscape:snap-nodes="false"
     inkscape:snap-others="false"
     inkscape:snap-bbox="true"
     inkscape:bbox-paths="true"
     inkscape:bbox-nodes="true"
     inkscape:snap-bbox-edge-midpoints="true"
     inkscape:snap-bbox-midpoints="true"
     fit-margin-top="0"
     fit-margin-left="0"
     fit-margin-right="0"
     fit-margin-bottom="0">
    <inkscape:grid
       type="xygrid"
       id="grid81"
       units="pt"
       spacingx="0.35277778"
       spacingy="0.35277778"
       originx="0"
       originy="0" />
  </sodipodi:namedview>
  <metadata
     id="metadata76">
    <rdf:RDF>
      <cc:Work
         rdf:about="">
        <dc:format>image/svg+xml</dc:format>
        <dc:type
           rdf:resource="http://purl.org/dc/dcmitype/StillImage" />
        <dc:title />
        <cc:license
           rdf:resource="http://artlibre.org/licence/lal" />
      </cc:Work>
      <cc:License
         rdf:about="http://artlibre.org/licence/lal">
        <cc:permits
           rdf:resource="http://creativecommons.org/ns#Reproduction" />
        <cc:permits
           rdf:resource="http://creativecommons.org/ns#Distribution" />
        <cc:permits
           rdf:resource="http://creativecommons.org/ns#DerivativeWorks" />
        <cc:requires
           rdf:resource="http://creativecommons.org/ns#ShareAlike" />
        <cc:requires
           rdf:resource="http://creativecommons.org/ns#Notice" />
        <cc:requires
           rdf:resource="http://creativecommons.org/ns#Attribution" />
      </cc:License>
    </rdf:RDF>
  </metadata>
  <g
     inkscape:label="Layer 1"
     inkscape:groupmode="layer"
     id="layer1"
     transform="translate(18.147215,-234.82291)">
    <circle
       style="fill:#111119;fill-opacity:1;stroke:none;stroke-width:0.61283529;stroke-opacity:1"
       id="path4602"
       cx="8.9073744"
       cy="261.79849"
       r="24.827593" />
    <path
       inkscape:connector-curvature="0"
       id="path4523"
       style="font-style:normal;font-variant:normal;font-weight:normal;font-stretch:normal;font-size:medium;line-height:1;font-family:Sunday;-inkscape-font-specification:Sunday;letter-spacing:0px;word-spacing:0px;fill:#cf4332;fill-opacity:1;stroke:#111119;stroke-width:2.06896687;stroke-miterlimit:4;stroke-dasharray:none;stroke-opacity:1;paint-order:stroke markers fill"
       d="m -17.112539,269.94563 c 0,0.5028 0.26069,1.02955 0.533793,1.53236 0.508966,0 1.315862,0 1.849655,-0.50281 h 0.508967 c 1.067584,0 1.588963,-1.02955 2.122756,-1.50844 0.794484,-2.05911 1.837244,-4.59715 1.837244,-7.6619 0.273103,-2.03519 0.111724,-3.87883 0,-5.55489 -0.136552,-1.98728 -0.42207,-3.18446 -0.78207,-4.62108 -0.248276,-1.00561 -0.521379,-2.05913 -1.055174,-2.53799 -0.273103,-0.50282 -0.782069,-1.02958 -1.055172,-1.53239 -0.111724,-0.0957 -0.235862,0.0239 -0.235862,0.0239 -0.645516,-0.19163 -0.831722,-0.0239 -1.340689,-0.0239 -0.533793,0 -1.067586,0 -1.588965,0.50281 l -0.26069,0.52676 c -0.273103,0.50282 -0.533793,0.50282 -0.533793,0.98168 0,1.55632 0.533793,0.52677 1.042759,0.52677 v 2.05912 c 0.273103,1.50843 0.273103,3.56757 0.273103,5.57883 0,1.53237 0.26069,3.56758 0.26069,6.10558 v 5.6267 c -0.26069,0 -0.26069,0.47889 -0.533793,0.47889 z m 2.892415,-20.85475 c 0.533792,0 0.806895,0 1.067584,0.47886 0.782069,1.55632 0.782069,4.09432 1.055172,6.63234 v 1.53238 c 0.26069,1.53237 0,3.04081 0,4.07038 0,2.0352 0,4.09435 -0.533793,5.60279 0,0 0,0.50281 -0.248276,0.50281 0,0 -0.273103,0 -0.273103,0.52674 -0.260689,0 -0.533792,0.50281 -0.794481,0.50281 -0.273103,-0.50281 0,-1.02955 0,-2.05914 0,-0.98166 -0.273103,-2.01126 -0.273103,-3.04081 v -5.07602 c 0,-1.53237 -0.09931,-2.44224 -0.09931,-3.56756 0,-1.02959 -0.06207,-2.05915 -0.06207,-3.56759 0,-0.69435 -0.08689,-2.05913 0.161388,-2.53799 z" />
    <path
       inkscape:connector-curvature="0"
       id="path4527"
       style="font-style:normal;font-variant:normal;font-weight:normal;font-stretch:normal;font-size:medium;line-height:1;font-family:Sunday;-inkscape-font-specification:Sunday;letter-spacing:0px;word-spacing:0px;fill:#cf4332;fill-opacity:1;stroke:#111119;stroke-width:2.06896687;stroke-miterlimit:4;stroke-dasharray:none;stroke-opacity:1;paint-order:stroke markers fill"
       d="m 1.3162707,256.81436 c -0.32633288,-1.16866 -0.40117273,-2.48463 -0.49894356,-3.95875 -0.0450521,-0.67928 -0.11973914,-1.61785 -0.19738108,-2.78845 -0.0594314,-0.89605 -0.1169427,-1.76319 -0.17637294,-2.65923 l -0.11598439,-1.74872 c 0.22664485,-0.33437 0.42180528,-0.76827 0.23497249,-0.95911 -0.37366206,-0.38165 -1.07202908,-0.21921 -1.56461662,-0.14298 -0.4801977,0.0754 -0.7679692,0.0509 -0.9965295,0.35641 0.038342,0.57809 0.7481366,0.40036 0.827397,0.84509 0.1174547,0.64543 0.076684,1.15618 0.1159832,1.7487 l 0.48789898,7.35622 c 0.30620263,0.86514 0.1960536,1.83048 0.67087714,2.61188 0.40330294,0.64098 0.93238978,1.30264 1.77187668,1.39213 0.4954841,-0.0324 0.3449108,-0.0519 0.5926402,-0.0683 1.0156994,-0.0674 1.6155624,-1.15227 1.9020722,-1.89708 0.5197153,-1.3554 0.5677823,-2.69404 0.4508408,-4.45721 0,0 -0.021091,-0.31795 -0.021091,-0.31795 l -0.1945831,-2.9338 c 0.1499601,-1.49056 -0.3986703,-3.38478 0.2632725,-4.0964 0.267638,-0.27904 0.090169,-0.89144 -0.8417009,-0.87318 -0.5593245,0.007 -1.2958001,0.15852 -1.8531983,0.19544 -0.2725134,0.0178 0.1450283,0.49845 0.1641996,0.7875 0,0 0.2477072,-0.0172 0.5165511,0.28509 0.2860729,0.56164 0.1159832,1.7487 0.1945839,2.9338 l 0.2923543,4.40792 c 0.078601,1.18508 0.2624176,3.39383 -0.6024281,4.23503 -0.5381521,0.51472 -1.1557907,0.0184 -1.42269,-0.25403 z" />
    <path
       inkscape:connector-curvature="0"
       id="path4537"
       style="font-style:normal;font-variant:normal;font-weight:normal;font-stretch:normal;font-size:medium;line-height:1;font-family:Sunday;-inkscape-font-specification:Sunday;letter-spacing:0px;word-spacing:0px;fill:#cf4332;fill-opacity:1;stroke:#111119;stroke-width:2.06896687;stroke-miterlimit:4;stroke-dasharray:none;stroke-opacity:1;paint-order:stroke markers fill"
       d="m 10.515091,257.48124 c -0.268745,0.0487 -0.5616243,-0.17606 -0.5616243,-0.17606 -0.6206368,-0.0143 -0.8303817,-0.12748 -1.3678795,-0.0306 -0.513055,0.0929 -0.7210557,0.40781 -0.9898094,0.45637 -0.4203823,0.60575 -0.7944166,1.46806 -0.4044354,2.23018 0.092693,0.51307 0.7284864,0.89018 1.2066509,1.23268 0.4781658,0.34252 0.6958476,0.29058 0.9865149,0.50297 0.3028843,0.21019 0.6201878,0.43038 1.1918258,0.59205 0.561629,0.17606 0.878933,0.39625 1.240381,0.86078 0.878249,1.99845 0.750365,4.15344 -0.672042,5.21778 -0.268749,0.0487 -0.220199,0.31729 -0.488953,0.36583 -0.818163,-0.12974 -1.3694084,-1.6448 -0.9346044,-2.24056 0.2202009,-0.31731 0.4645214,-0.36145 0.7332734,-0.40999 0.176062,-0.56163 -0.189797,-1.0506 -0.7028731,-0.9579 -0.7000121,0.45446 -1.258561,0.50491 -1.9918344,0.91491 0.044138,0.24431 0.092692,0.51307 0.4099961,0.73327 0.2443976,-0.0437 0.1957689,-0.31291 0.4645235,-0.36143 -0.081163,1.08687 0.328837,1.82019 0.6902817,2.28469 0.2928735,0.2246 1.2259552,0.85076 1.7390312,0.75809 l 1.05057,-0.18985 c 0.992022,-0.4441 1.547803,-0.99865 1.784228,-1.92441 0.199621,-0.78036 0.254704,-1.38317 0.06933,-2.40932 -0.0971,-0.53751 -0.336232,-1.16289 -0.699884,-1.63962 -0.337017,-0.46895 -0.508909,-0.65234 -0.66859,-0.83798 -0.933642,-1.11799 -2.479173,-1.15414 -3.1776334,-2.0876 -0.3658577,-0.48895 -0.5997958,-1.78386 -0.4259429,-2.35769 0.5130552,-0.0928 1.0991313,0.079 1.3898003,0.29136 0.09269,0.51304 -0.05452,1.09471 0.233933,1.29487 0.586061,0.17165 0.70135,-0.65654 0.848568,-1.23816 -0.04413,-0.2443 0.129702,-0.81816 -0.183174,-1.01393 -0.04861,-0.26873 -0.292874,-0.22462 -0.549411,-0.17826 -0.268747,0.0487 -0.220201,0.31729 -0.220201,0.31729 z" />
    <path
       inkscape:connector-curvature="0"
       id="path4539"
       style="font-style:normal;font-variant:normal;font-weight:normal;font-stretch:normal;font-size:medium;line-height:1;font-family:Sunday;-inkscape-font-specification:Sunday;letter-spacing:0px;word-spacing:0px;fill:#cf4332;fill-opacity:1;stroke:#111119;stroke-width:2.06896687;stroke-miterlimit:4;stroke-dasharray:none;stroke-opacity:1;paint-order:stroke markers fill"
       d="m 16.231008,265.91925 c -0.219842,-0.90133 -0.20885,-1.90159 -0.20885,-3.02282 0,-0.51659 -0.01103,-1.23111 -0.01103,-2.12144 0,-0.68154 0,-1.34107 0,-2.02257 v -1.33002 c 0.219838,-0.24186 0.417698,-0.56061 0.263808,-0.71451 -0.307777,-0.30775 -0.934326,-0.21985 -1.374012,-0.18688 -0.428691,0.033 -0.681507,0 -0.90135,0.21985 0,0.43968 0.637541,0.34077 0.68151,0.68154 0.06594,0.49463 0,0.87935 0,1.33002 v 5.595 c 0.21984,0.6705 0.06594,1.39597 0.439683,2.01153 0.318772,0.50562 0.747462,1.03327 1.483934,1.14318 0.439682,0 0.307776,-0.0221 0.52762,-0.0221 0.901353,0 1.494926,-0.79145 1.79171,-1.34104 0.538612,-1.00029 0.659526,-2.01155 0.659526,-3.35259 0,0 0,-0.24184 0,-0.24184 v -2.2314 c 0.219844,-1.12121 -0.153889,-2.58316 0.472661,-3.08879 0.252818,-0.19783 0.131904,-0.6705 -0.6925,-0.70347 -0.494648,-0.0221 -1.154174,0.055 -1.648817,0.055 -0.241825,0 0.09891,0.38471 0.09891,0.60455 0,0 0.219844,0 0.439685,0.24186 0.219841,0.43968 0,1.33002 0,2.23138 v 3.35259 c 0,0.90136 0.03297,2.58316 -0.780438,3.1767 -0.505637,0.36273 -1.022267,-0.044 -1.242107,-0.26379 z" />
    <path
       inkscape:connector-curvature="0"
       id="path4543"
       style="font-style:normal;font-variant:normal;font-weight:normal;font-stretch:normal;font-size:medium;line-height:1;font-family:Sunday;-inkscape-font-specification:Sunday;letter-spacing:0px;word-spacing:0px;fill:#788998;fill-opacity:1;stroke:#111119;stroke-width:2.06896687;stroke-miterlimit:4;stroke-dasharray:none;stroke-opacity:1;paint-order:stroke markers fill"
       d="m 1.025283,271.24711 c 0,-0.29794 0.049651,-0.32276 -0.19862158,-0.34759 -0.8068963,-0.0994 -1.86207022,0.0994 -2.61931172,0.0994 0,0 -0.2731032,0 -0.2731032,0 v 0.52138 c 0.2731032,0.24827 0.5213797,0.24827 0.5213797,0.49655 0.2606898,0.78207 0.2606898,1.8 0.2606898,2.59449 0,0.75724 0,1.5269 0,2.29654 v 0.27312 c 0,1.27861 0,3.07861 -0.2606898,4.36965 0,0.52138 0,0.76966 -0.2482765,1.03035 -0.2731032,0 -0.5213796,0 -0.5213796,0.24827 0,0.27311 0.2482764,0.27311 0.5213796,0.52138 1.27862119,-0.24827 2.8179333,0 4.3696577,-0.24827 0.2482764,-0.27311 0,-0.78207 0,-1.03035 0,-0.76966 0.2482764,-1.81242 -0.2482752,-2.32138 0,0 -0.2731045,-0.24828 -0.5213797,0 v 1.03034 c 0,0.52138 0,1.01794 0,1.53932 H 1.5342481 c -0.3103446,0.0124 -0.5089651,0 -0.5089651,0 -0.24827639,0 -0.23586298,0.0124 -0.49655281,0 -0.28551664,-0.0124 -0.27310323,0 -0.27310323,-0.24828 -0.24827642,-3.61242 0.27310323,-6.70345 0.27310323,-10.05518 0,-0.24828 0.24827642,-0.24828 0.49655281,-0.76966 z" />
    <path
       inkscape:connector-curvature="0"
       id="path4549"
       style="font-style:normal;font-variant:normal;font-weight:normal;font-stretch:normal;font-size:medium;line-height:1;font-family:Sunday;-inkscape-font-specification:Sunday;letter-spacing:0px;word-spacing:0px;fill:#788998;fill-opacity:1;stroke:#111119;stroke-width:2.06896687;stroke-miterlimit:4;stroke-dasharray:none;stroke-opacity:1;paint-order:stroke markers fill"
       d="m 16.152855,282.27056 c -0.273103,0 -0.695172,0.68277 -0.695172,0.95587 0,0.23586 0.422069,0.12413 0.695172,0.0994 0.533794,0 0.980691,-0.0745 1.502071,-0.0745 l 0.322758,0.0745 c 0.546207,-0.26069 0,-0.54621 0,-0.78207 v -1.58897 c -0.235862,-2.3338 -0.36,-4.65518 -0.608276,-6.71586 -0.04965,-0.42208 -0.148966,-0.90622 -0.397242,-1.40277 0,-0.53379 -0.533793,-1.56414 -1.092414,-1.83724 -0.496552,-0.28552 -1.04276,0.2731 -1.04276,0.2731 -0.521379,0.76966 -1.017931,1.56414 -1.291035,2.61931 -0.285517,0.5338 -0.546207,1.30345 -0.546207,2.08552 -0.26069,1.84966 -0.521379,4.18346 -0.769656,5.77242 0,0.27311 0,0.5338 -0.273103,0.5338 -0.235863,0 -0.533794,0.23586 -0.78207,0.50896 l 0.546207,0.52138 c 0.757243,-0.28551 1.502071,0.27311 2.296554,-0.2731 0,0 0.03724,-0.24828 0.03724,-0.52138 -0.235862,-0.23586 -0.508966,0 -0.794483,-0.23586 0,-1.35311 0,-2.61932 0.285517,-3.66208 0,-0.55862 0,-1.08 0.273104,-1.34069 0.769655,0 1.564139,0.26069 2.060691,0.26069 0.273103,1.31587 0.273103,3.1407 0.273103,4.72966 z m -1.315863,-9.70758 0.273104,-0.26069 c 0.273104,0 0.273104,0.26069 0.273104,0.26069 0.273103,0.76964 0.496552,1.86207 0.496552,2.63171 v 1.56414 c -0.496552,0 -1.291036,0 -2.060691,-0.23585 0,-0.29794 0.235862,-1.09242 0.235862,-1.32829 0.26069,-1.04275 0.533793,-1.86207 0.782069,-2.63171 z" />
    <path
       inkscape:connector-curvature="0"
       id="path4551"
       style="font-style:normal;font-variant:normal;font-weight:normal;font-stretch:normal;font-size:medium;line-height:1;font-family:Sunday;-inkscape-font-specification:Sunday;letter-spacing:0px;word-spacing:0px;fill:#788998;fill-opacity:1;stroke:#111119;stroke-width:2.06896687;stroke-linejoin:round;stroke-miterlimit:4;stroke-dasharray:none;stroke-opacity:1;paint-order:stroke markers fill"
       d="m 21.23883,281.48849 c -0.248276,-1.01793 -0.235862,-2.14758 -0.235862,-3.41379 0,-0.58345 -0.01241,-1.39035 -0.01241,-2.39587 0,-0.76964 0,-1.51447 0,-2.28413 v -1.50207 c 0.248275,-0.27311 0.471724,-0.6331 0.297931,-0.8069 -0.347587,-0.34758 -1.055174,-0.24828 -1.551725,-0.21104 -0.484139,0.0372 -0.769656,0 -1.017932,0.24828 0,0.49655 0.72,0.38483 0.769655,0.76966 0.07448,0.55862 0,0.9931 0,1.50207 v 6.31863 c 0.248277,0.75723 0.07448,1.57655 0.496553,2.27172 0.36,0.57103 0.844138,1.1669 1.675863,1.29103 0.496552,0 0.347586,-0.0249 0.595863,-0.0249 1.017931,0 1.688276,-0.89379 2.023449,-1.51448 0.608276,-1.12966 0.744828,-2.27173 0.744828,-3.78622 0,0 0,-0.2731 0,-0.2731 v -2.52 c 0.248276,-1.26621 -0.173794,-2.91724 0.533793,-3.48827 0.285518,-0.22345 0.148966,-0.75725 -0.782069,-0.79449 -0.558622,-0.0249 -1.30345,0.062 -1.862071,0.062 -0.273103,0 0.111725,0.43449 0.111725,0.68276 0,0 0.248276,0 0.496552,0.27311 0.248276,0.49655 0,1.50207 0,2.51999 v 3.78622 c 0,1.01793 0.03724,2.91724 -0.88138,3.58758 -0.571034,0.40966 -1.154483,-0.0496 -1.40276,-0.29793 z" />
    <circle
       r="2.0689669"
       cy="271.86456"
       cx="-7.5638814"
       id="circle4616"
       style="fill:#576c4e;fill-opacity:1;stroke:#111119;stroke-width:1.76388884;stroke-miterlimit:4;stroke-dasharray:none;stroke-opacity:1;paint-order:stroke markers fill" />
    <path
       inkscape:connector-curvature="0"
       id="path4525"
       style="font-style:normal;font-variant:normal;font-weight:normal;font-stretch:normal;font-size:medium;line-height:1;font-family:Sunday;-inkscape-font-specification:Sunday;letter-spacing:0px;word-spacing:0px;fill:#cf4332;fill-opacity:1;stroke:#111119;stroke-width:2.06896687;stroke-miterlimit:4;stroke-dasharray:none;stroke-opacity:1;paint-order:stroke markers fill"
       d="m -2.7715727,263.70101 c 0.433641,-1.55159 0.714455,-3.17842 0.8728562,-5.27488 0.1651855,-1.70391 0.053273,-3.22879 -0.00832,-4.4873 -0.046445,-0.94903 -0.067648,-1.38228 -0.1586377,-2.22575 -0.2300067,-2.1602 -0.9066576,-4.05039 -1.7167896,-4.85864 -0.570958,-1.25425 -1.0995084,-1.642 -2.0914257,-1.59345 -1.8066543,-0.34588 -2.1908213,2.21663 -2.8653733,3.92478 -0.2401841,0.42538 -0.1843704,1.31188 -0.264942,2.20512 0.021206,0.43326 -0.02391,1.03517 -0.057635,1.6159 -0.056059,1.14018 0.082793,1.69175 0.1241906,2.53763 0.082793,1.69175 0.1655863,3.3835 0.4943411,5.02186 0.3229789,1.2664 0.6422006,2.20208 0.91413,2.93328 0.7014492,1.88897 2.5616163,3.3283 4.1248543,1.49392 0.2120759,-0.23783 0.4844079,-0.7682 0.6327523,-1.29247 z m -1.1176439,-0.23482 c -0.147616,0.79309 -1.3817363,1.22573 -1.7974048,0.60498 -0.1877201,-0.28033 -0.069507,-0.65839 -0.3174856,-0.64625 -0.2815816,-0.42052 -0.3229789,-1.26641 -0.6123543,-2.10012 -0.3825505,-2.48366 -0.7961167,-5.85501 -0.7137252,-9.25067 -0.041397,-0.84588 -0.082793,-1.69175 0.1361879,-2.55037 0.1863899,-1.27063 0.4063797,-2.10864 0.8733402,-2.97938 0.5083601,-0.0249 0.5495916,0.0558 1.0331526,0.0321 0.5285513,0.38775 0.8092847,1.5528 1.0986595,2.38655 0.3017754,0.83314 0.3431725,1.67902 0.6325484,2.51274 0.041397,0.84588 0.1675633,1.64625 0.2089608,2.49215 0.040387,0.82523 -0.023179,1.304 0.018216,2.14986 0.061591,1.25852 0.1241906,2.53763 -0.062197,3.8083 -0.086914,1.01759 -0.3399019,2.7051 -0.4978989,3.54005 z" />
    <path
       inkscape:connector-curvature="0"
       id="path4541"
       style="font-style:normal;font-variant:normal;font-weight:normal;font-stretch:normal;font-size:medium;line-height:1;font-family:Sunday;-inkscape-font-specification:Sunday;letter-spacing:0px;word-spacing:0px;fill:#cf4332;fill-opacity:1;stroke:#111119;stroke-width:2.06896687;stroke-miterlimit:4;stroke-dasharray:none;stroke-opacity:1;paint-order:stroke markers fill"
       d="m 25.680483,263.07383 c 0.05377,-0.26776 -0.214054,-0.32147 -0.162778,-0.57708 l 0.321482,-0.21404 c 0.29226,-0.1946 0.759909,-0.56925 0.976773,-0.89293 0.433726,-0.64732 0.439121,-1.55783 0.417508,-2.08128 -0.06238,-1.58249 -2.289696,-2.09259 -3.925682,-2.14226 -0.243502,-0.0484 -0.357935,0.0802 -0.613528,0.029 -0.79114,-0.15864 -1.134391,-0.2148 -1.288197,0.5519 -0.05377,0.26778 0.362474,0.46522 0.873671,0.56777 -0.263683,1.31449 -0.269025,2.16173 -0.564309,3.25467 -0.09758,0.36024 -0.168202,0.39673 -0.221927,0.6645 0.165224,0.56489 -0.209971,1.04673 -0.312533,1.55793 l -0.891189,4.44253 c -0.267744,-0.054 -0.511192,-0.10252 -0.827796,0.0873 0.160337,0.58925 0.403764,0.63808 0.939301,0.74551 0.552737,-0.16764 1.621266,0.24927 2.132475,0.3517 0.255518,0.0517 0.25815,-0.15078 0.311867,-0.41855 0.04878,-0.24344 -0.474538,-0.34841 -0.423263,-0.60402 -0.135995,-0.58436 -0.03344,-1.09556 0.07393,-1.63108 0.207537,-1.03458 0.254714,-2.65839 0.786195,-3.91917 0.04878,-0.24346 0.292259,-0.1946 0.560031,-0.14091 0.206761,0.29472 0.474534,0.34843 0.420815,0.6162 0.214053,0.32149 0.233441,0.4773 0.372024,0.79631 0.430328,1.01059 -0.04741,2.06691 -0.087,3.08452 -0.04966,1.63601 -0.872663,1.88871 -0.439725,2.50734 0.725364,0.2341 1.759813,0.63156 1.916078,-0.14741 0.05128,-0.25561 -0.192155,-0.30443 -0.459923,-0.35814 0.10091,-1.89158 0.886421,-4.6081 0.115548,-6.13013 z m -1.706185,-4.93824 c 0.243501,0.0484 1.015106,0.17834 1.282833,0.23225 0.216496,0.30932 0.425741,0.52854 0.352494,0.89368 -0.102563,0.5112 0.0046,0.48205 -0.209983,1.04674 -0.131674,0.34078 -0.397246,0.71794 -0.450961,0.98573 -0.321485,0.21406 -1.580272,0.42999 -1.521636,0.0746 0.193122,-1.27802 0.337226,-2.18605 0.547213,-3.23277 z" />
    <circle
       style="fill:#576c4e;fill-opacity:1;stroke:#111119;stroke-width:1.76388884;stroke-miterlimit:4;stroke-dasharray:none;stroke-opacity:1;paint-order:stroke markers fill"
       id="circle4941"
       cx="1.2728488"
       cy="240.13187"
       r="2.6631193" />
    <circle
       r="1.3262763"
       cy="241.87846"
       cx="-5.7999926"
       id="circle4943"
       style="fill:#576c4e;fill-opacity:1;stroke:#111119;stroke-width:1.76388889;stroke-miterlimit:4;stroke-dasharray:none;stroke-opacity:1;paint-order:stroke markers fill" />
    <circle
       style="fill:#576c4e;fill-opacity:1;stroke:#111119;stroke-width:1.76388884;stroke-miterlimit:4;stroke-dasharray:none;stroke-opacity:1;paint-order:stroke markers fill"
       id="circle4945"
       cx="30.712507"
       cy="276.0979"
       r="1.5490835" />
    <circle
       r="2.7373884"
       cy="265.9364"
       cx="31.666002"
       id="circle4947"
       style="fill:#576c4e;fill-opacity:1;stroke:#111119;stroke-width:1.76388889;stroke-miterlimit:4;stroke-dasharray:none;stroke-opacity:1;paint-order:stroke markers fill" />
    <path
       inkscape:connector-curvature="0"
       id="path4529"
       style="font-style:normal;font-variant:normal;font-weight:normal;font-stretch:normal;font-size:medium;line-height:1;font-family:Sunday;-inkscape-font-specification:Sunday;letter-spacing:0px;word-spacing:0px;fill:#cf4332;fill-opacity:1;stroke:none;stroke-width:2.06896687;stroke-miterlimit:4;stroke-dasharray:none;stroke-opacity:1;paint-order:stroke markers fill"
       d="m 11.373531,243.72448 c -0.548003,-0.49362 -1.067879,-0.45404 -1.8665374,-0.64226 -1.2749403,0.0971 -2.2429603,0.95507 -2.7177361,1.75064 -0.2754017,0.30731 -0.2079917,0.53873 -0.4357576,0.81751 -0.3161394,1.24413 -0.336286,2.61513 -0.4858498,3.92129 0.1168301,1.53487 0.7544818,3.04255 1.1114652,4.29769 0.554474,0.74213 1.1074522,0.97394 1.665016,1.42949 1.294727,0.16288 3.6489797,0.50657 4.0718097,-0.80794 l -0.137559,-1.80717 c -0.247578,0.0183 -0.268283,-0.25349 -0.800544,-0.21298 -0.207978,0.53873 0.09894,1.29969 -0.109988,1.82604 -0.499148,0.31189 -0.987806,0.59808 -1.526526,0.39009 -1.0678909,-0.45405 -1.71201,-2.21022 -2.1020966,-3.73675 l -0.1168312,-1.53487 c -0.097988,-1.28731 -0.1573468,-2.06713 0.036763,-3.11523 0.2287206,-0.2664 0.2079919,-0.53872 0.2079919,-0.53872 0.2410945,-0.26734 0.4293004,-1.06599 0.6818258,-1.34666 0.4886579,-0.28619 1.2560981,-0.34462 2.0547561,-0.15643 0.267339,0.24109 0.09799,1.28731 0.605477,1.24867 0.272318,-0.0209 0.21485,-0.77578 0.174336,-1.30803 -0.01887,-0.24757 -0.291168,-0.22683 -0.310011,-0.47441 z" />
    <path
       inkscape:connector-curvature="0"
       id="path4531"
       style="font-style:normal;font-variant:normal;font-weight:normal;font-stretch:normal;font-size:medium;line-height:1;font-family:Sunday;-inkscape-font-specification:Sunday;letter-spacing:0px;word-spacing:0px;fill:#cf4332;fill-opacity:1;stroke:none;stroke-width:2.18036652;stroke-miterlimit:4;stroke-dasharray:none;stroke-opacity:1;paint-order:stroke markers fill"
       d="m 18.415697,244.96292 c 1.018173,-0.0285 0.500327,-0.94383 0.495895,-1.41437 -0.0023,-0.24098 -0.265183,-0.4632 -0.265183,-0.4632 l -2.532999,0.0709 c -1.016001,0.25805 -2.021751,0.28622 -3.037652,0.55572 0,0 0.0044,0.47053 0.0044,0.47053 l 1.018174,-0.0285 c 0.0065,0.68855 0.01319,1.40012 0.01979,2.10015 l 0.0088,0.92954 c 0.0089,0.94107 0.01544,1.64111 0.02218,2.35265 l 0.0044,0.47053 c 0.0134,1.42302 0.284972,2.56337 0.03741,3.97076 -0.248331,0.007 -0.757435,0.0215 -1.018171,0.0285 l 0.0044,0.47053 c 1.517107,0.19861 2.796017,0.16276 4.05011,0.1276 l 1.278917,-0.0359 c 0.246066,-0.24795 0.504653,-0.48477 0.502381,-0.72577 -0.0044,-0.47052 -0.01091,-1.15908 -0.520006,-1.14483 -0.506915,0.2438 0.0088,0.9296 -0.498154,1.17333 -0.769831,0.0216 -1.266505,0.0356 -2.026026,-0.17355 -0.0043,-0.45906 -0.08737,-1.36359 -0.09407,-2.07513 -0.0065,-0.68857 -0.201928,-1.65883 0.0521,-2.37767 0.248334,-0.007 1.018179,-0.0287 1.254082,-0.0351 l 0.0023,0.24102 c 0.0022,0.22954 0.51352,0.45628 0.51352,0.45628 0.50908,-0.0144 -0.0134,-1.42307 0.243012,-1.88941 -0.262913,-0.22222 -0.262913,-0.22222 -0.511252,-0.21524 -0.260754,0.008 -0.256315,0.47782 -0.254259,0.69587 -0.49667,0.014 -1.254084,0.035 -1.516883,-0.17574 0.256311,-0.47781 -0.0089,-0.94103 -0.01557,-1.65255 -0.0043,-0.45905 0.0297,-0.80438 0.02358,-1.45855 -0.005,-0.52787 -0.04564,-0.8826 0.213118,-1.10795 0.506818,-0.25527 1.251819,-0.27615 1.760907,-0.29042 0.261831,0.10738 0.261831,0.10738 0.511343,0.22675 0.262806,0.21075 0.0065,0.68858 0.269509,0.92228 z" />
    <circle
       style="fill:#576c4e;fill-opacity:1;stroke:#111119;stroke-width:1.76388889;stroke-miterlimit:4;stroke-dasharray:none;stroke-opacity:1;paint-order:stroke markers fill"
       id="circle4519"
       cx="-5.7999926"
       cy="280.68402"
       r="1.6233525" />
    <path
       inkscape:connector-curvature="0"
       id="path4535"
       style="font-style:normal;font-variant:normal;font-weight:normal;font-stretch:normal;font-size:medium;line-height:1;font-family:Sunday;-inkscape-font-specification:Sunday;letter-spacing:0px;word-spacing:0px;fill:#cf4332;fill-opacity:1;stroke:#111119;stroke-width:1.90636575;stroke-miterlimit:4;stroke-dasharray:none;stroke-opacity:1;paint-order:markers stroke fill"
       d="m 31.596166,249.2188 c 0.0553,-0.25815 -0.218192,-0.31666 -0.165475,-0.56308 l 0.32865,-0.19972 c 0.29877,-0.18149 0.776939,-0.5333 0.998884,-0.84173 0.443883,-0.61683 0.450636,-1.49902 0.429274,-2.00672 -0.06156,-1.53495 -2.335829,-2.08281 -4.006747,-2.17026 -0.248791,-0.052 -0.36569,0.0691 -0.626681,0.0129 -0.807848,-0.1728 -1.158332,-0.23562 -1.316502,0.5038 -0.0553,0.25814 0.369602,0.45949 0.891592,0.57116 -0.271116,1.26744 -0.277761,2.08825 -0.580775,3.14022 -0.100179,0.34673 -0.172344,0.38039 -0.22757,0.63856 0.167984,0.55137 -0.215896,1.00923 -0.321327,1.50214 l -0.916305,4.28341 c -0.273344,-0.059 -0.522014,-0.11155 -0.845622,0.0645 0.162972,0.57482 0.411537,0.62802 0.958381,0.74501 0.564793,-0.14918 1.655587,0.28066 2.177599,0.39219 0.260837,0.0566 0.263877,-0.1399 0.319105,-0.39808 0.05012,-0.23472 -0.484212,-0.34902 -0.431493,-0.59549 -0.138109,-0.56953 -0.03269,-1.06238 0.07781,-1.57874 0.213393,-0.9975 0.263841,-2.56983 0.808356,-3.7788 0.05012,-0.23468 0.298773,-0.18152 0.572196,-0.12301 0.210791,0.29054 0.48421,0.34902 0.428982,0.6072 0.218199,0.31665 0.237784,0.46812 0.378898,0.78058 0.438161,0.9896 -0.05128,2.00168 -0.09305,2.9868 -0.05292,1.58411 -0.893907,1.80919 -0.452525,2.41904 0.740548,0.24439 1.7966,0.65431 1.957266,-0.0968 0.05273,-0.24642 -0.195853,-0.29958 -0.469277,-0.35808 0.105639,-1.83056 0.911645,-4.44395 0.126357,-5.93736 z M 29.8602,244.39258 c 0.24879,0.052 1.036658,0.19674 1.309995,0.25573 0.220709,0.30492 0.434131,0.52236 0.358819,0.87444 -0.105451,0.49288 0.0041,0.46722 -0.215894,1.00922 -0.134955,0.32704 -0.406724,0.68615 -0.461952,0.94432 -0.328658,0.19972 -1.614658,0.37867 -1.554288,0.0357 0.198963,-1.2337 0.347419,-2.11013 0.563326,-3.1194 z" />
    <path
       inkscape:connector-curvature="0"
       id="path4533"
       style="font-style:normal;font-variant:normal;font-weight:normal;font-stretch:normal;font-size:medium;line-height:1;font-family:Sunday;-inkscape-font-specification:Sunday;letter-spacing:0px;word-spacing:0px;fill:#cf4332;fill-opacity:1;stroke:#111119;stroke-width:1.98490632;stroke-miterlimit:4;stroke-dasharray:none;stroke-opacity:1;paint-order:stroke markers fill"
       d="m 21.445961,252.71381 c -0.20004,-0.93741 -0.131031,-1.96261 -0.06775,-3.11247 0.02916,-0.52983 0.05695,-1.26322 0.107198,-2.17635 0.03847,-0.69893 0.07569,-1.37532 0.114156,-2.07427 l 0.07509,-1.36404 c 0.264566,-0.23499 0.508387,-0.55021 0.341433,-0.71713 -0.333914,-0.33387 -1.053994,-0.28076 -1.55769,-0.27295 -0.491155,0.008 -0.777844,-0.0404 -1.041171,0.17213 -0.02482,0.45092 0.708427,0.38719 0.739375,0.73926 0.04735,0.51119 -0.04964,0.90185 -0.07508,1.36404 l -0.315817,5.73801 c 0.21307,0.70067 -0.0035,1.4356 0.38829,2.08901 0.335288,0.53741 0.794795,1.10388 1.629165,1.26022 0.501836,0.026 0.352526,-0.004 0.603452,0.008 1.028766,0.0533 1.750915,-0.7232 2.120677,-1.26929 0.67121,-0.99398 0.866299,-2.02397 0.941994,-3.39926 0,0 0.01362,-0.24803 0.01362,-0.24803 l 0.125951,-2.28844 c 0.314205,-1.13684 -0.02983,-2.65829 0.713822,-3.13977 0.299724,-0.18795 0.188399,-0.67985 -0.75068,-0.76246 -0.563323,-0.0518 -1.320417,-0.0121 -1.884983,-0.0413 -0.276007,-0.0144 0.09119,0.40042 0.0788,0.62588 0,0 0.250924,0.013 0.488187,0.27402 0.226097,0.46393 -0.07509,1.36404 -0.125952,2.28844 l -0.18924,3.4383 c -0.05088,0.9244 -0.108175,2.65112 -1.070073,3.21176 -0.597585,0.34208 -1.164285,-0.10566 -1.402793,-0.34408 z" />
    <circle
       style="fill:#576c4e;fill-opacity:1;stroke:#111119;stroke-width:1.76388884;stroke-miterlimit:4;stroke-dasharray:none;stroke-opacity:1;paint-order:stroke markers fill"
       id="path4614"
       cx="3.0194519"
       cy="264.80902"
       r="3.1087337" />
    <path
       inkscape:connector-curvature="0"
       id="path4547"
       style="font-style:normal;font-variant:normal;font-weight:normal;font-stretch:normal;font-size:medium;line-height:1;font-family:Sunday;-inkscape-font-specification:Sunday;letter-spacing:0px;word-spacing:0px;fill:#788998;fill-opacity:1;stroke:#111119;stroke-width:2.06896687;stroke-miterlimit:4;stroke-dasharray:none;stroke-opacity:1;paint-order:stroke markers fill"
       d="m 10.237291,272.89815 c 1.017932,0 0.508966,-1.00552 0.508966,-1.51449 0,-0.26069 -0.26069,-0.50897 -0.26069,-0.50897 H 7.9531518 c -1.0179313,0.24828 -2.0234492,0.24828 -3.0413817,0.50897 0,0 0,0.50897 0,0.50897 h 1.0179325 c 0,0.74483 0,1.51448 0,2.27173 v 1.00551 c 0,1.01793 0,1.77517 0,2.54483 v 0.50897 c 0,1.53931 0.2606898,2.78068 0,4.29517 -0.2482764,0 -0.7572427,0 -1.0179325,0 v 0.50897 c 1.5144842,0.26069 2.7931053,0.26069 4.0468996,0.26069 h 1.2786213 c 0.248276,-0.26069 0.508966,-0.50897 0.508966,-0.76966 0,-0.50897 0,-1.2538 -0.508966,-1.2538 -0.5089652,0.24828 0,1.00552 -0.5089652,1.2538 -0.7696561,0 -1.2662077,0 -2.0234504,-0.24828 0,-0.49655 -0.074483,-1.47723 -0.074483,-2.24689 0,-0.74483 -0.186207,-1.8 0.074483,-2.56966 0.2482764,0 1.0179325,0 1.2537943,0 v 0.26069 c 0,0.24828 0.5089663,0.50897 0.5089663,0.50897 0.508965,0 0,-1.53932 0.2606898,-2.03587 -0.2606898,-0.24828 -0.2606898,-0.24828 -0.5089662,-0.24828 -0.2606899,0 -0.2606899,0.50897 -0.2606899,0.74483 -0.4965516,0 -1.2537943,0 -1.5144841,-0.23586 0.2606898,-0.50897 0,-1.01793 0,-1.78758 0,-0.49655 0.037241,-0.86897 0.037241,-1.57655 0,-0.57105 -0.037241,-0.95587 0.2234484,-1.19173 0.5089662,-0.26069 1.2537943,-0.26069 1.7627606,-0.26069 0.2606898,0.12414 0.2606898,0.12414 0.508965,0.26069 0.2606904,0.23586 0,0.74483 0.2606904,1.00552 z" />
    <path
       inkscape:connector-curvature="0"
       id="path4545"
       style="font-style:normal;font-variant:normal;font-weight:normal;font-stretch:normal;font-size:medium;line-height:1;font-family:Sunday;-inkscape-font-specification:Sunday;letter-spacing:0px;word-spacing:0px;fill:#788998;fill-opacity:1;stroke:none;stroke-width:2.06896687;stroke-miterlimit:4;stroke-dasharray:none;stroke-opacity:1;paint-order:stroke markers fill"
       d="m 3.9593989,273.49401 c 0.3351727,-0.33517 0.3848286,-1.00552 0.5089663,-1.32828 -0.1737936,-0.48414 0,-0.67034 -0.1737936,-0.99311 -0.1613791,-0.16137 -0.4965517,-0.33517 -0.6703453,-0.16137 -0.3351726,0 -0.3351726,0.33517 -0.4841383,0.48414 0,0.67034 0.3351727,0.9931 0.3351727,1.66345 0.1489656,0.14896 0.1489656,0.48414 0.4841382,0.33517 z" />
  </g>
</svg>
