<?xml version="1.0" encoding="UTF-8" standalone="no"?>
<!-- Created with Inkscape (http://www.inkscape.org/) -->

<svg
   xmlns:dc="http://purl.org/dc/elements/1.1/"
   xmlns:cc="http://creativecommons.org/ns#"
   xmlns:rdf="http://www.w3.org/1999/02/22-rdf-syntax-ns#"
   xmlns:svg="http://www.w3.org/2000/svg"
   xmlns="http://www.w3.org/2000/svg"
   xmlns:sodipodi="http://sodipodi.sourceforge.net/DTD/sodipodi-0.dtd"
   xmlns:inkscape="http://www.inkscape.org/namespaces/inkscape"
   width="613.27338"
   height="486.99728"
   viewBox="0 0 162.26192 128.85136"
   version="1.1"
   id="svg8"
   inkscape:version="0.92.1 r15371"
   sodipodi:docname="ink-carta.svg">
  <defs
     id="defs2" />
  <sodipodi:namedview
     id="base"
     pagecolor="#ffffff"
     bordercolor="#666666"
     borderopacity="1.0"
     inkscape:pageopacity="0.0"
     inkscape:pageshadow="2"
     inkscape:zoom="1.0375389"
     inkscape:cx="306.65604"
     inkscape:cy="249.78718"
     inkscape:document-units="mm"
     inkscape:current-layer="layer1"
     showgrid="false"
     inkscape:snap-global="false"
     fit-margin-top="0"
     fit-margin-left="0"
     fit-margin-right="0"
     fit-margin-bottom="0"
     units="px"
     inkscape:window-width="1280"
     inkscape:window-height="967"
     inkscape:window-x="0"
     inkscape:window-y="31"
     inkscape:window-maximized="1" />
  <metadata
     id="metadata5">
    <rdf:RDF>
      <cc:Work
         rdf:about="">
        <dc:format>image/svg+xml</dc:format>
        <dc:type
           rdf:resource="http://purl.org/dc/dcmitype/StillImage" />
        <dc:title></dc:title>
      </cc:Work>
    </rdf:RDF>
  </metadata>
  <g
     inkscape:label="Layer 1"
     inkscape:groupmode="layer"
     id="layer1"
     transform="translate(-31.654829,-79.467663)">
    <g
       id="g9204">
      <path
         sodipodi:nodetypes="cccccccccccccccccccccccccccccccccc"
         inkscape:connector-curvature="0"
         id="path9145"
         d="m 190.88962,190.10658 c 2.15312,-2.17222 3.13413,-4.98401 3.01791,-8.23592 -2.71362,-4.33429 -0.49944,-9.7902 -2.5648,-14.31557 -4.62511,-7.08798 -12.41469,-11.39034 -18.57147,-17.02288 -2.41293,-2.7248 -6.70142,-3.75457 -7.86249,-7.33631 -0.45002,-5.56764 -3.66053,-11.63453 -9.30145,-13.75064 -2.61424,-0.15262 -4.24984,-1.80136 -6.52727,-2.814 -3.16589,0.0668 -5.43151,-2.70287 -8.71534,-2.24105 -2.47023,-1.67693 -5.13222,-4.52474 -8.57319,-4.89719 -2.82533,0.69827 -2.93739,-2.27543 -4.46675,-3.90035 -2.45161,-1.99043 -1.59631,-6.17618 -5.04737,-7.46273 -0.8262,-5.71609 -3.30924,-11.536539 -7.07757,-16.035909 -3.91381,-4.206748 -9.67443,-1.220208 -13.30888,1.680153 -2.353017,0.395093 -5.352292,-1.450855 -7.88622,0.124957 -2.219343,0.789828 -4.50418,3.7944 -5.542518,0.147634 -2.643607,-4.495372 -6.035373,-11.847656 -12.514104,-9.850298 -1.894836,1.740559 -4.087718,1.026313 -6.406678,1.565768 -1.907392,-2.657505 -4.652432,-6.357857 -8.627281,-6.293761 -7.658213,1.26427 -14.710582,5.128578 -21.764778,8.264427 -5.520142,2.283474 -4.385413,9.044709 -2.678789,13.523349 0.209409,2.41484 2.663303,5.39023 1.333363,7.74481 -5.088178,4.14259 -8.206887,11.67174 -4.571976,17.7391 4.974121,7.81454 9.16008,16.24793 16.001558,22.73017 4.645564,5.24282 11.49419,8.82326 14.08061,15.56635 3.629706,8.80114 9.424425,16.41847 15.324093,23.62249 2.928674,5.68923 9.547052,10.03538 16.000836,7.57893 1.734915,2.11922 2.168075,6.28926 4.088188,8.88817 3.084736,5.38282 9.696076,2.81562 13.942846,0.57188 8.48401,-5.03059 18.25387,-6.55746 27.79548,-8.30902 3.69831,-0.32473 7.53898,-2.36339 11.10509,-1.88147 7.96285,2.17234 16.4261,1.57027 24.56489,2.82679 5.17928,1.76925 8.97876,-2.36895 12.09244,-5.84543 l 0.98295,-0.98295 c 0.62265,-0.43066 1.1818,-0.89822 1.67867,-1.3995 z"
         style="opacity:1;fill:#bbdefb;fill-opacity:1;stroke:none;stroke-width:5.29166651;stroke-linecap:square;stroke-linejoin:miter;stroke-miterlimit:4;stroke-dasharray:none;stroke-dashoffset:0;stroke-opacity:1" />
      <path
         inkscape:connector-curvature="0"
         id="path9003"
         d="m 150.01462,189.53318 c 2.08269,-5.04386 2.26856,-10.50449 3.95365,-15.48099 0.77979,-5.68722 -6.59385,-6.08768 -9.69091,-9.52129 -5.05324,-3.67673 -10.53729,-4.08752 -16.6069,-6.24002 -3.83276,-0.5138 -9.11011,2.38269 -9.84058,-3.13169 -1.85488,-3.12115 -7.88943,5.60416 -10.4892,-1.07925 -3.76719,-2.86573 -7.863476,-8.51817 -9.52891,-10.87606 -0.725973,0.10156 0.379073,-4.8732 -3.400137,-4.77218 -4.255871,-5.39418 -8.586419,-11.30308 -12.696166,-17.019 -5.15681,-7.70879 -11.697922,-14.68122 -14.335303,-23.779099 -1.994172,-3.672893 -2.590611,-13.236462 -7.684841,-12.639091 -6.726229,2.167172 -13.166501,5.164215 -19.648379,7.875885 -0.471449,6.478378 7.226532,14.163715 1.73058,19.665255 -5.968773,4.06972 -6.589521,10.23102 -1.328731,15.05316 3.363233,5.76758 6.54486,11.92265 11.025598,16.83337 4.979806,3.74428 9.53146,8.28307 14.081833,12.55489 1.733741,4.60841 4.746709,9.82463 6.952995,14.67996 3.577034,6.00429 9.184752,10.59214 12.531912,16.7121 1.920849,2.19057 4.699135,3.89517 8.161872,2.06314 6.768419,-3.90077 6.493008,4.95391 8.796177,8.75827 0.68987,5.07058 3.64453,3.9586 6.66418,1.84275 5.41131,-2.49598 10.49712,-6.16054 16.48121,-6.86488 8.19761,-1.49253 16.61432,-2.93439 24.87004,-4.63522 z"
         style="opacity:1;fill:#81c784;fill-opacity:1;stroke:none;stroke-width:0.30000001;stroke-linecap:square;stroke-linejoin:miter;stroke-miterlimit:4.0999999;stroke-dasharray:none;stroke-dashoffset:0;stroke-opacity:1" />
      <path
         inkscape:connector-curvature="0"
         id="path9005"
         d="m 161.91459,149.28805 c 5.5399,3.40477 10.13182,8.42973 15.36081,12.39791 3.16293,2.78805 8.58932,5.27946 9.2098,9.6581 -0.51524,4.11531 -0.61788,9.58029 1.81897,12.31807 -2.60908,3.08994 -5.51214,5.91226 -8.32246,8.81579 -8.46273,0.12865 -16.83957,-1.78841 -25.26059,-1.88258 -7.14816,-1.17337 1.05084,-9.9053 -0.0303,-13.78902 2.19863,-5.89039 2.34525,-11.99811 5.81135,-17.3686 1.87514,-3.09085 -2.97279,-9.47447 1.4124,-10.14967 z"
         style="opacity:1;fill:#81c784;fill-opacity:1;stroke:none;stroke-width:0.30000001;stroke-linecap:square;stroke-linejoin:miter;stroke-miterlimit:4.0999999;stroke-dasharray:none;stroke-dashoffset:0;stroke-opacity:1" />
      <path
         inkscape:connector-curvature="0"
         id="path9007"
         d="m 70.347592,91.102496 c 5.251516,-1.61218 6.205857,5.860113 9.214266,8.575889 3.715702,3.504535 2.879686,11.784865 -1.290864,14.642805 -4.783012,-5.6335 -8.731143,-12.24687 -9.853837,-19.61236 0.07496,-1.503825 -0.116418,-3.495229 1.930435,-3.606334 z"
         style="opacity:1;fill:#81c784;fill-opacity:1;stroke:none;stroke-width:0.30000001;stroke-linecap:square;stroke-linejoin:miter;stroke-miterlimit:4.0999999;stroke-dasharray:none;stroke-dashoffset:0;stroke-opacity:1" />
      <path
         inkscape:connector-curvature="0"
         id="path9009"
         d="m 82.912258,106.4496 c 5.479661,3.60418 -1.804288,9.25971 4.204616,13.26131 -2.811749,5.74752 -7.345604,-1.30426 -7.516201,-4.43548 1.185334,-1.67731 4.271601,-2.96733 2.454405,-5.25636 -0.951446,-1.37151 -0.380227,-2.74787 0.85718,-3.56947 z"
         style="opacity:1;fill:#81c784;fill-opacity:1;stroke:none;stroke-width:0.30000001;stroke-linecap:square;stroke-linejoin:miter;stroke-miterlimit:4.0999999;stroke-dasharray:none;stroke-dashoffset:0;stroke-opacity:1" />
      <path
         inkscape:connector-curvature="0"
         id="path9011"
         d="m 87.370807,113.29303 c 2.53633,1.01722 3.253613,4.82142 5.157531,6.78412 6.98341,5.4108 -10.928391,9.55929 -6.039589,2.07778 5.02406,-2.31219 -4.498745,-7.50308 0.882058,-8.8619 z"
         style="opacity:1;fill:#81c784;fill-opacity:1;stroke:none;stroke-width:0.30000001;stroke-linecap:square;stroke-linejoin:miter;stroke-miterlimit:4.0999999;stroke-dasharray:none;stroke-dashoffset:0;stroke-opacity:1" />
      <path
         inkscape:connector-curvature="0"
         id="path9013"
         d="m 157.70523,145.72993 c 6.46326,-1.67583 -1.99344,6.02625 1.75342,8.6832 -0.34341,4.40741 -2.28458,11.87132 -5.42858,13.91179 -3.43786,-1.32607 -10.99318,-3.02454 -9.80291,-7.72137 3.04997,-4.33564 10.63356,-5.20303 9.14715,-11.21559 1.19449,-1.47828 2.43753,-3.06546 4.33092,-3.65803 z"
         style="opacity:1;fill:#81c784;fill-opacity:1;stroke:none;stroke-width:0.30000001;stroke-linecap:square;stroke-linejoin:miter;stroke-miterlimit:4.0999999;stroke-dasharray:none;stroke-dashoffset:0;stroke-opacity:1" />
      <path
         inkscape:connector-curvature="0"
         id="path9015"
         d="m 77.632948,89.048344 c 4.548926,2.741388 6.399759,11.480326 10.087832,14.326216 4.040199,-0.10171 8.000285,-7.470052 11.621522,-3.765819 4.330668,3.154519 11.256428,-10.341574 13.202508,-0.684246 3.9293,5.605355 6.70233,12.355825 -1.77774,14.609455 -5.01088,4.15361 -11.548559,6.78815 -17.12253,5.15422 -5.923065,-8.73124 -11.626418,-17.61701 -17.654696,-26.272725 0.429211,-1.006324 0.02538,-3.245486 1.643104,-3.367101 z"
         style="opacity:1;fill:#81c784;fill-opacity:1;stroke:none;stroke-width:0.30000001;stroke-linecap:square;stroke-linejoin:miter;stroke-miterlimit:4.0999999;stroke-dasharray:none;stroke-dashoffset:0;stroke-opacity:1" />
      <path
         inkscape:connector-curvature="0"
         id="path9017"
         d="m 99.821381,142.99888 c 5.404319,-0.81425 12.360139,-11.61181 15.680339,-4.18939 8.17891,4.7371 -8.16433,7.53276 -1.07303,12.41198 2.12545,3.55153 -6.16208,5.54179 -7.31234,0.9738 -1.68435,-2.70079 -8.380625,-6.83575 -7.294969,-9.19639 z"
         style="opacity:1;fill:#81c784;fill-opacity:1;stroke:none;stroke-width:0.30000001;stroke-linecap:square;stroke-linejoin:miter;stroke-miterlimit:4.0999999;stroke-dasharray:none;stroke-dashoffset:0;stroke-opacity:1" />
      <path
         inkscape:connector-curvature="0"
         id="path9019"
         d="m 106.78795,125.75402 c 2.12925,1.53549 8.08108,7.20936 3.72149,9.63573 -3.65711,3.21774 -9.89365,7.10688 -10.865055,-0.49145 -0.13487,-2.97138 5.424405,-6.50427 7.143565,-9.14428 z"
         style="opacity:1;fill:#81c784;fill-opacity:1;stroke:none;stroke-width:0.30000001;stroke-linecap:square;stroke-linejoin:miter;stroke-miterlimit:4.0999999;stroke-dasharray:none;stroke-dashoffset:0;stroke-opacity:1" />
      <path
         inkscape:connector-curvature="0"
         id="path9021"
         d="m 118.62877,130.94696 c 4.47186,-4.21368 9.66295,-8.92758 15.7026,-4.23718 6.54695,3.50722 -8.89911,7.51528 -7.10477,12.56787 4.83117,4.01761 -2.0856,6.53495 -4.98077,8.8519 -2.79321,4.67705 -8.81972,4.49839 -6.72399,-1.69936 7.695,-2.92025 0.007,-7.99678 -0.18816,-12.45786 1.01281,-1.0995 2.18442,-2.03062 3.29509,-3.02537 z"
         style="opacity:1;fill:#81c784;fill-opacity:1;stroke:none;stroke-width:0.30000001;stroke-linecap:square;stroke-linejoin:miter;stroke-miterlimit:4.0999999;stroke-dasharray:none;stroke-dashoffset:0;stroke-opacity:1" />
      <path
         inkscape:connector-curvature="0"
         id="path9023"
         d="m 120.22408,116.58009 c 2.44344,0.97763 5.90791,6.8312 2.92499,8.90421 -3.97078,1.89631 -9.06072,12.66491 -11.49506,4.07996 -3.69889,-3.19098 2.01947,-5.35675 3.70721,-8.01306 1.71453,-1.52432 2.98061,-3.70199 4.86289,-4.97108 z"
         style="opacity:1;fill:#a5d6a7;fill-opacity:1;stroke:none;stroke-width:0.30000001;stroke-linecap:square;stroke-linejoin:miter;stroke-miterlimit:4;stroke-dasharray:none;stroke-dashoffset:0;stroke-opacity:1" />
      <path
         inkscape:connector-curvature="0"
         id="path9025"
         d="m 139.35422,145.50546 c 4.7562,1.63892 4.94106,-7.54544 9.50778,-8.81193 3.28385,-8.70188 14.87975,6.20018 6.93909,8.24365 -3.77636,1.27983 -4.80827,3.82105 -3.78219,6.81693 -4.3615,2.63095 -7.20824,8.89826 -12.63564,8.54201 -4.34799,-1.55705 -15.25822,-2.73086 -7.09851,-7.8311 3.16069,-1.60745 4.50109,-4.89439 7.06946,-6.95958 z"
         style="opacity:1;fill:#81c784;fill-opacity:1;stroke:none;stroke-width:0.30000001;stroke-linecap:square;stroke-linejoin:miter;stroke-miterlimit:4.0999999;stroke-dasharray:none;stroke-dashoffset:0;stroke-opacity:1" />
      <path
         sodipodi:nodetypes="ccccc"
         inkscape:connector-curvature="0"
         id="path9027"
         d="m 130.23423,135.82247 c 2.36799,-3.04964 12.81499,-9.75259 12.78889,-3.94788 -0.3094,0.73117 -4.14079,5.21001 -7.18198,7.76986 0.31602,4.77136 -7.33558,6.11985 -7.64896,5.87171 3.65549,-6.8519 -2.02127,-5.01951 2.04205,-9.69369 z"
         style="opacity:1;fill:#81c784;fill-opacity:1;stroke:none;stroke-width:0.30000001;stroke-linecap:square;stroke-linejoin:miter;stroke-miterlimit:4.0999999;stroke-dasharray:none;stroke-dashoffset:0;stroke-opacity:1" />
      <path
         inkscape:connector-curvature="0"
         id="path9029"
         d="m 111.79555,123.38162 c 2.25528,-3.1678 7.67985,-6.26241 7.90376,-9.91424 -4.46,-4.70173 -11.1505,4.79097 -16.24807,6.23184 -3.38386,2.81871 -8.440815,10.50839 -4.91359,12.97332 3.51685,-2.52192 5.68701,-10.71733 11.09667,-7.30242 l 1.16805,-1.01871 z"
         style="opacity:1;fill:#81c784;fill-opacity:1;stroke:none;stroke-width:0.30000001;stroke-linecap:square;stroke-linejoin:miter;stroke-miterlimit:4.0999999;stroke-dasharray:none;stroke-dashoffset:0;stroke-opacity:1" />
      <path
         inkscape:connector-curvature="0"
         id="path9113"
         d="m 90.979916,126.77086 c 6.91041,-4.85427 5.631879,4.00266 4.757662,8.0056 4.396942,-2.04924 6.821662,9.99604 2.884416,5.80046 -3.773518,-3.96253 -7.683302,-7.79644 -10.662852,-12.39153 0.964967,-0.48175 2.020734,-0.94215 3.020774,-1.41453 z"
         style="opacity:1;fill:#81c784;fill-opacity:1;stroke:none;stroke-width:0.30000001;stroke-linecap:square;stroke-linejoin:miter;stroke-miterlimit:4.0999999;stroke-dasharray:none;stroke-dashoffset:0;stroke-opacity:1" />
      <path
         inkscape:connector-curvature="0"
         id="path9115"
         d="m 121.88596,152.26012 c 4.54157,-3.03328 8.9272,-8.16193 14.32451,-8.54391 -0.50494,-5.04132 5.07644,-8.97123 9.93728,-12.05829 7.67386,1.94325 -4.82863,8.58598 -5.30212,12.63483 -4.06081,-0.76093 -6.978,8.2218 -11.6616,9.65096 -2.74255,2.09898 -6.04449,4.47652 -9.43352,1.80917 0.15157,-1.38917 0.79108,-2.85488 2.13545,-3.49276 z"
         style="opacity:1;fill:#81c784;fill-opacity:1;stroke:none;stroke-width:0.30000001;stroke-linecap:square;stroke-linejoin:miter;stroke-miterlimit:4.0999999;stroke-dasharray:none;stroke-dashoffset:0;stroke-opacity:1" />
      <path
         inkscape:connector-curvature="0"
         id="path9117"
         d="m 96.620087,120.34577 c 8.081323,-2.13475 -0.883258,10.91227 -1.370622,2.02938 l 0.703014,-1.40072 z"
         style="opacity:1;fill:#a5d6a7;fill-opacity:1;stroke:none;stroke-width:0.30000001;stroke-linecap:square;stroke-linejoin:miter;stroke-miterlimit:4;stroke-dasharray:none;stroke-dashoffset:0;stroke-opacity:1" />
    </g>
  </g>
</svg>
