<?xml version="1.0" encoding="UTF-8" standalone="no"?>
<!-- Created with Inkscape (http://www.inkscape.org/) -->

<svg
   xmlns:dc="http://purl.org/dc/elements/1.1/"
   xmlns:cc="http://creativecommons.org/ns#"
   xmlns:rdf="http://www.w3.org/1999/02/22-rdf-syntax-ns#"
   xmlns:svg="http://www.w3.org/2000/svg"
   xmlns="http://www.w3.org/2000/svg"
   xmlns:xlink="http://www.w3.org/1999/xlink"
   xmlns:sodipodi="http://sodipodi.sourceforge.net/DTD/sodipodi-0.dtd"
   xmlns:inkscape="http://www.inkscape.org/namespaces/inkscape"
   width="1800"
   height="1800"
   viewBox="0 0 476.24999 476.25002"
   version="1.1"
   id="svg8"
   sodipodi:docname="jot.svg"
   inkscape:version="0.92.1 r15371"
   inkscape:export-filename="/home/mouse/git/JOT.png"
   inkscape:export-xdpi="68"
   inkscape:export-ydpi="68">
  <defs
     id="defs2">
    <linearGradient
       inkscape:collect="always"
       id="linearGradient4561">
      <stop
         style="stop-color:#344b3a;stop-opacity:1"
         offset="0"
         id="stop4557" />
      <stop
         style="stop-color:#858b62;stop-opacity:1"
         offset="1"
         id="stop4559" />
    </linearGradient>
    <linearGradient
       inkscape:collect="always"
       id="linearGradient4551">
      <stop
         style="stop-color:#344b3a;stop-opacity:1"
         offset="0"
         id="stop4547" />
      <stop
         style="stop-color:#858b62;stop-opacity:1"
         offset="1"
         id="stop4549" />
    </linearGradient>
    <linearGradient
       inkscape:collect="always"
       id="linearGradient4543">
      <stop
         style="stop-color:#858b62;stop-opacity:1"
         offset="0"
         id="stop4539" />
      <stop
         style="stop-color:#344b3a;stop-opacity:1"
         offset="1"
         id="stop4541" />
    </linearGradient>
    <linearGradient
       inkscape:collect="always"
       xlink:href="#linearGradient4543"
       id="linearGradient4545"
       x1="804.29297"
       y1="837.76752"
       x2="896.58435"
       y2="859.19531"
       gradientUnits="userSpaceOnUse"
       gradientTransform="matrix(3.2359283,0,0,3.2359283,-2525.814,-2662.741)" />
    <linearGradient
       inkscape:collect="always"
       xlink:href="#linearGradient4551"
       id="linearGradient4553"
       x1="237.18193"
       y1="74.537048"
       x2="236.68887"
       y2="74.585365"
       gradientUnits="userSpaceOnUse"
       gradientTransform="matrix(12.230281,0,0,12.230281,-2464.9562,-785.05937)" />
    <linearGradient
       inkscape:collect="always"
       xlink:href="#linearGradient4561"
       id="linearGradient4860"
       gradientUnits="userSpaceOnUse"
       gradientTransform="matrix(16.896437,0,0,16.896437,-3574.5717,-1132.2598)"
       x1="223.3876"
       y1="70.454712"
       x2="223.29057"
       y2="73.753563" />
    <linearGradient
       inkscape:collect="always"
       xlink:href="#linearGradient4561"
       id="linearGradient4862"
       gradientUnits="userSpaceOnUse"
       gradientTransform="matrix(16.896437,0,0,16.896437,-3574.5717,-1132.2598)"
       x1="223.3876"
       y1="70.454712"
       x2="223.29057"
       y2="73.753563" />
    <linearGradient
       inkscape:collect="always"
       xlink:href="#linearGradient4561"
       id="linearGradient4864"
       gradientUnits="userSpaceOnUse"
       gradientTransform="matrix(16.896437,0,0,16.896437,-3574.5717,-1132.2598)"
       x1="223.3876"
       y1="70.454712"
       x2="223.29057"
       y2="73.753563" />
    <linearGradient
       inkscape:collect="always"
       xlink:href="#linearGradient4561"
       id="linearGradient4866"
       gradientUnits="userSpaceOnUse"
       gradientTransform="matrix(16.896437,0,0,16.896437,-3574.5717,-1132.2598)"
       x1="223.3876"
       y1="70.454712"
       x2="223.29057"
       y2="73.753563" />
    <linearGradient
       inkscape:collect="always"
       xlink:href="#linearGradient4561"
       id="linearGradient4868"
       gradientUnits="userSpaceOnUse"
       gradientTransform="matrix(16.896437,0,0,16.896437,-3574.5717,-1132.2598)"
       x1="223.3876"
       y1="70.454712"
       x2="223.29057"
       y2="73.753563" />
    <linearGradient
       inkscape:collect="always"
       xlink:href="#linearGradient4561"
       id="linearGradient4870"
       gradientUnits="userSpaceOnUse"
       gradientTransform="matrix(16.896437,0,0,16.896437,-3574.5717,-1132.2598)"
       x1="223.3876"
       y1="70.454712"
       x2="223.29057"
       y2="73.753563" />
    <linearGradient
       inkscape:collect="always"
       xlink:href="#linearGradient4561"
       id="linearGradient4872"
       gradientUnits="userSpaceOnUse"
       gradientTransform="matrix(16.896437,0,0,16.896437,-3574.5717,-1132.2598)"
       x1="223.3876"
       y1="70.454712"
       x2="223.29057"
       y2="73.753563" />
    <linearGradient
       inkscape:collect="always"
       xlink:href="#linearGradient4561"
       id="linearGradient4874"
       gradientUnits="userSpaceOnUse"
       gradientTransform="matrix(16.896437,0,0,16.896437,-3574.5717,-1132.2598)"
       x1="223.3876"
       y1="70.454712"
       x2="223.29057"
       y2="73.753563" />
    <linearGradient
       inkscape:collect="always"
       xlink:href="#linearGradient4561"
       id="linearGradient4876"
       gradientUnits="userSpaceOnUse"
       gradientTransform="matrix(16.896437,0,0,16.896437,-3574.5717,-1132.2598)"
       x1="223.3876"
       y1="70.454712"
       x2="223.29057"
       y2="73.753563" />
    <linearGradient
       inkscape:collect="always"
       xlink:href="#linearGradient4561"
       id="linearGradient4878"
       gradientUnits="userSpaceOnUse"
       gradientTransform="matrix(16.896437,0,0,16.896437,-3574.5717,-1132.2598)"
       x1="223.3876"
       y1="70.454712"
       x2="223.29057"
       y2="73.753563" />
    <linearGradient
       inkscape:collect="always"
       xlink:href="#linearGradient4561"
       id="linearGradient4880"
       gradientUnits="userSpaceOnUse"
       gradientTransform="matrix(16.896437,0,0,16.896437,-3574.5717,-1132.2598)"
       x1="223.3876"
       y1="70.454712"
       x2="223.29057"
       y2="73.753563" />
    <linearGradient
       inkscape:collect="always"
       xlink:href="#linearGradient4561"
       id="linearGradient4882"
       gradientUnits="userSpaceOnUse"
       gradientTransform="matrix(16.896437,0,0,16.896437,-3574.5717,-1132.2598)"
       x1="223.3876"
       y1="70.454712"
       x2="223.29057"
       y2="73.753563" />
    <linearGradient
       inkscape:collect="always"
       xlink:href="#linearGradient4561"
       id="linearGradient4884"
       gradientUnits="userSpaceOnUse"
       gradientTransform="matrix(16.896437,0,0,16.896437,-3574.5717,-1132.2598)"
       x1="223.3876"
       y1="70.454712"
       x2="223.29057"
       y2="73.753563" />
    <linearGradient
       inkscape:collect="always"
       xlink:href="#linearGradient4561"
       id="linearGradient4886"
       gradientUnits="userSpaceOnUse"
       gradientTransform="matrix(16.896437,0,0,16.896437,-3574.5717,-1132.2598)"
       x1="223.3876"
       y1="70.454712"
       x2="223.29057"
       y2="73.753563" />
    <linearGradient
       inkscape:collect="always"
       xlink:href="#linearGradient4561"
       id="linearGradient4888"
       gradientUnits="userSpaceOnUse"
       gradientTransform="matrix(16.896437,0,0,16.896437,-3574.5717,-1132.2598)"
       x1="223.3876"
       y1="70.454712"
       x2="223.29057"
       y2="73.753563" />
  </defs>
  <sodipodi:namedview
     id="base"
     pagecolor="#ffffff"
     bordercolor="#666666"
     borderopacity="1.0"
     inkscape:pageopacity="0"
     inkscape:pageshadow="2"
     inkscape:zoom="0.44"
     inkscape:cx="900"
     inkscape:cy="900"
     inkscape:document-units="px"
     inkscape:current-layer="layer1"
     showgrid="false"
     inkscape:showpageshadow="false"
     borderlayer="true"
     inkscape:pagecheckerboard="true"
     units="px"
     objecttolerance="20"
     inkscape:snap-path-clip="true"
     inkscape:snap-path-mask="true"
     gridtolerance="10"
     guidetolerance="10000"
     inkscape:snap-perpendicular="true"
     inkscape:snap-tangential="true"
     inkscape:snap-bbox="true"
     inkscape:bbox-paths="true"
     inkscape:bbox-nodes="true"
     inkscape:snap-bbox-edge-midpoints="true"
     inkscape:snap-bbox-midpoints="true"
     inkscape:object-paths="true"
     inkscape:snap-intersection-paths="true"
     inkscape:snap-midpoints="true"
     inkscape:snap-smooth-nodes="true"
     inkscape:snap-center="true"
     inkscape:snap-object-midpoints="true"
     inkscape:snap-text-baseline="true"
     inkscape:snap-page="true"
     inkscape:window-width="1280"
     inkscape:window-height="1003"
     inkscape:window-x="0"
     inkscape:window-y="0"
     inkscape:window-maximized="1"
     inkscape:snap-grids="true"
     inkscape:snap-global="true"
     fit-margin-top="0"
     fit-margin-left="0"
     fit-margin-right="0"
     fit-margin-bottom="0">
    <inkscape:grid
       type="xygrid"
       id="grid4485"
       spacingx="2.6458333"
       spacingy="2.6458333"
       dotted="true"
       originx="13.229166"
       originy="-145.52084" />
  </sodipodi:namedview>
  <metadata
     id="metadata5">
    <rdf:RDF>
      <cc:Work
         rdf:about="">
        <dc:format>image/svg+xml</dc:format>
        <dc:type
           rdf:resource="http://purl.org/dc/dcmitype/StillImage" />
        <dc:title></dc:title>
        <dc:rights>
          <cc:Agent>
            <dc:title>Creative Commons 4.0</dc:title>
          </cc:Agent>
        </dc:rights>
        <dc:creator>
          <cc:Agent>
            <dc:title>Kiselev Nikolay</dc:title>
          </cc:Agent>
        </dc:creator>
        <cc:license
           rdf:resource="http://creativecommons.org/licenses/by/4.0/" />
      </cc:Work>
      <cc:License
         rdf:about="http://creativecommons.org/licenses/by/4.0/">
        <cc:permits
           rdf:resource="http://creativecommons.org/ns#Reproduction" />
        <cc:permits
           rdf:resource="http://creativecommons.org/ns#Distribution" />
        <cc:requires
           rdf:resource="http://creativecommons.org/ns#Notice" />
        <cc:requires
           rdf:resource="http://creativecommons.org/ns#Attribution" />
        <cc:permits
           rdf:resource="http://creativecommons.org/ns#DerivativeWorks" />
      </cc:License>
    </rdf:RDF>
  </metadata>
  <g
     inkscape:label="Layer 1"
     inkscape:groupmode="layer"
     id="layer1"
     transform="translate(13.229166,324.77085)">
    <g
       id="g908"
       transform="translate(-0.7937139,-169.59794)">
      <text
         id="text3680"
         y="-2594.8157"
         x="-2233.417"
         style="font-style:normal;font-weight:normal;font-size:65.56756592px;line-height:125%;font-family:sans-serif;letter-spacing:0px;word-spacing:0px;fill:#000000;fill-opacity:1;stroke:#000000;stroke-width:0.70555556;stroke-linecap:round;stroke-linejoin:round;stroke-miterlimit:4;stroke-dasharray:none;stroke-opacity:1;paint-order:markers fill stroke"
         xml:space="preserve"><tspan
           style="font-style:normal;font-variant:normal;font-weight:normal;font-stretch:normal;font-family:'Sevilla Decor';-inkscape-font-specification:'Sevilla Decor';stroke:#000000;stroke-width:0.70555556;stroke-linecap:round;stroke-linejoin:round;stroke-miterlimit:4;stroke-dasharray:none;paint-order:markers fill stroke"
           y="-2536.8037"
           x="-2233.417"
           id="tspan3678"
           sodipodi:role="line" /></text>
      <g
         style="stroke:#000000;stroke-width:0.70555556;stroke-linecap:round;stroke-linejoin:round;stroke-miterlimit:4;stroke-dasharray:none;paint-order:markers fill stroke"
         transform="translate(1.3289673e-5,4.8821478e-6)"
         id="g4920">
        <path
           inkscape:connector-curvature="0"
           id="path4784"
           style="font-style:normal;font-variant:normal;font-weight:normal;font-stretch:normal;font-size:medium;line-height:125%;font-family:'Sevilla Decor';-inkscape-font-specification:'Sevilla Decor';letter-spacing:0px;word-spacing:0.67057735px;fill:url(#linearGradient4860);fill-opacity:1;stroke:#000000;stroke-width:0.70555556;stroke-linecap:round;stroke-linejoin:round;stroke-miterlimit:4;stroke-dasharray:none;stroke-opacity:1;paint-order:markers fill stroke"
           d="m 78.515425,99.21764 q 0,3.9379 -3.265572,6.56316 -3.233557,2.62526 -7.299514,2.62526 -8.324008,0 -14.695075,-8.00385 -0.384185,0.28814 -2.337125,3.23356 -1.600771,2.20906 -3.041464,2.20906 -0.76837,0 -1.376663,-0.70434 -0.576277,-0.67232 -0.576277,-1.44069 0,-2.75333 5.058435,-7.075409 l -1.248601,-2.497202 q -0.288139,0.128062 -4.546189,2.561233 -3.009449,1.696817 -4.642235,1.696817 -0.992478,0 -1.696817,-0.608293 -0.800385,-0.576277 -0.800385,-1.504724 0,-1.88891 4.450142,-3.713788 3.105496,-0.992478 6.178975,-2.048987 0,-1.056508 -0.256123,-2.881387 l -0.35217,-0.192092 q -3.777818,0.320154 -7.587653,0.576277 -4.578204,0.416201 -7.619668,0.416201 -1.312632,0 -2.337125,-0.544262 -1.312632,-0.640309 -1.312632,-1.824879 0,-2.817356 3.937896,-2.817356 2.817356,0 7.139437,0.320154 6.403083,0.448216 7.139437,0.512246 l 0.704339,-0.192092 q 0,0 0.416201,-2.753326 -3.233557,-0.896431 -6.371068,-1.824878 -4.514173,-1.568755 -4.514173,-3.745803 0,-1.952941 2.561233,-1.952941 1.824879,0 4.770297,1.760848 2.881387,1.760848 4.32208,2.016971 l 1.248602,-2.465187 q -5.634713,-3.809834 -5.698744,-7.011375 0.128062,-0.672324 0.640308,-1.152555 0.544262,-0.512247 1.056509,-0.960462 1.664801,0 3.425649,2.016971 1.248601,1.664801 2.561233,3.297587 6.883314,-8.067884 14.534998,-8.067884 4.129988,0 7.555637,2.625264 3.681773,2.881387 3.681773,6.819283 0,3.521695 -3.169526,6.146959 -3.201542,2.689295 -6.883314,2.689295 -7.715715,0 -15.015229,-4.770297 -0.384185,0.704339 -1.056508,2.30511 9.732685,5.154482 21.194203,5.506651 1.248601,-1.376663 2.497202,-1.376663 0.896432,0 1.53674,0.800386 0.672324,0.76837 0.672324,1.728832 0,2.369141 -2.465187,2.369141 -1.376663,0 -2.369141,-1.376663 -10.629117,0.864416 -21.066141,6.435098 l 0.992477,2.016971 q 9.124393,-5.154482 15.687553,-5.154482 3.841849,0 6.755252,2.753326 2.881387,2.817356 2.881387,6.659206 z M 75.890161,72.356708 q 0,-2.689294 -2.881387,-4.930373 -2.689295,-2.016971 -5.570682,-2.016971 -2.113017,0 -2.817356,1.18457 -0.224108,0.448216 -0.416201,0.896431 -0.320154,0.736355 -0.640308,0.736355 -1.120539,0 -1.632786,-1.632786 -1.440693,0.448216 -4.194019,2.817356 -3.041464,2.561233 -3.041464,3.713788 0,1.440694 4.738281,3.681773 4.386112,2.113017 6.146959,2.113017 -1.632786,-1.984956 -1.632786,-3.745803 0,-1.312632 0.992478,-2.497203 0.896432,-1.18457 2.145033,-1.18457 0.928447,0 1.792863,0.544262 0.76837,0.576278 0.76837,1.504725 0,1.312631 -0.960463,1.504724 -1.056508,0.256123 -2.048986,0.384185 0.512246,2.36914 3.329603,2.36914 2.241079,0 4.065957,-1.632786 1.856894,-1.664801 1.856894,-3.809834 z M 61.931441,84.49055 51.494417,81.737224 q -0.06403,0.320154 -0.192093,1.024493 -0.128062,0.800386 -0.192092,1.184571 0.704339,0.544262 4.770296,0.544262 z m 0.256123,2.337125 -10.821209,0.352169 v 1.312632 q 0,0.192093 0.128062,0.512247 0.128061,0.320154 0.128061,0.512247 z m 14.022751,11.557564 q 0,-2.177048 -2.016971,-3.809834 -2.113017,-1.632786 -4.354096,-1.632786 -1.888909,0 -2.529217,2.30511 h 0.384185 q 2.881387,0 2.881387,2.016971 0,2.305109 -2.433172,2.305109 -1.504724,0 -2.561233,-1.312632 -1.120539,-1.248601 -1.120539,-2.753325 0,-1.984956 1.248601,-3.169526 h -0.448216 q -2.113017,0 -5.44262,2.241079 -2.625264,1.760848 -4.706266,3.937896 0.128062,1.248601 3.265572,3.617739 2.625264,2.01697 4.450143,2.81736 0,-0.064 0,-0.12806 0,-0.73636 0.672323,-1.2486 0.640309,-0.54427 1.440694,-0.54427 h 0.192092 q 1.312632,2.6893 3.937896,2.6893 2.945418,0 5.02642,-2.17705 2.113017,-2.20906 2.113017,-5.154481 z" />
        <path
           inkscape:connector-curvature="0"
           id="path4786"
           style="font-style:normal;font-variant:normal;font-weight:normal;font-stretch:normal;font-size:medium;line-height:125%;font-family:'Sevilla Decor';-inkscape-font-specification:'Sevilla Decor';letter-spacing:0px;word-spacing:0.67057735px;fill:url(#linearGradient4862);fill-opacity:1;stroke:#000000;stroke-width:0.70555556;stroke-linecap:round;stroke-linejoin:round;stroke-miterlimit:4;stroke-dasharray:none;stroke-opacity:1;paint-order:markers fill stroke"
           d="m 116.32388,101.58678 q 0,12.32593 -12.38996,12.32593 -4.001928,0 -6.627192,-2.94541 -2.689295,-2.94542 -2.689295,-6.94735 0,-3.61774 2.497202,-6.371065 2.401156,-2.753326 5.954865,-2.753326 2.56124,0 4.45014,1.920925 1.8569,1.888909 1.8569,4.450146 0,1.44069 -1.05651,3.00945 -1.12054,1.56875 -2.43317,1.56875 -3.61774,0 -3.61774,-2.75333 0,-0.76837 0.67232,-1.50472 0.64031,-0.64031 1.50472,-0.64031 1.18458,0 1.82488,1.88891 0.35217,-0.86441 0.35217,-1.56875 0,-1.440697 -1.12054,-2.369144 -1.18457,-0.896432 -2.68929,-0.896432 -2.30511,0 -3.745805,1.696817 -1.440693,1.696819 -1.440693,4.001929 0,2.88138 2.016971,5.09045 2.048987,2.30511 4.866347,2.30511 3.87386,0 6.243,-2.88139 2.20906,-2.62526 2.20906,-6.62719 -0.064,0 -3.20154,-8.259976 0,0 0,-31.215028 -2.81735,0 -4.86634,2.30511 -2.01697,2.30511 -2.01697,5.122466 0,2.561233 1.31263,4.706266 1.4407,2.36914 3.71379,3.073479 -3.07348,-0.448216 -5.50665,-2.753325 -2.401158,-2.273095 -2.401158,-5.282543 0,-4.61022 2.945418,-7.6837 2.94542,-3.073479 7.52362,-3.073479 h 4.67425 q -2.04898,3.937896 -2.04898,6.467113 l 0.064,26.572793 q 0,1.824879 1.56875,5.058435 1.60077,3.265572 1.60077,4.962389 z" />
        <path
           inkscape:connector-curvature="0"
           id="path4788"
           style="font-style:normal;font-variant:normal;font-weight:normal;font-stretch:normal;font-size:medium;line-height:125%;font-family:'Sevilla Decor';-inkscape-font-specification:'Sevilla Decor';letter-spacing:0px;word-spacing:0.67057735px;fill:url(#linearGradient4864);fill-opacity:1;stroke:#000000;stroke-width:0.70555556;stroke-linecap:round;stroke-linejoin:round;stroke-miterlimit:4;stroke-dasharray:none;stroke-opacity:1;paint-order:markers fill stroke"
           d="m 125.57634,95.023621 q -3.74581,0 -5.89084,-2.529218 -2.11302,-2.369141 -2.11302,-6.178975 0,-8.9323 8.00386,-8.9323 3.52169,0 5.69874,2.241079 2.11302,2.241079 2.11302,5.826805 0,4.194019 -1.79287,6.691222 -2.01697,2.881387 -6.01889,2.881387 z m -0.1921,-15.143291 q -4.93037,0 -4.93037,6.114944 0,2.561233 1.50472,4.450143 1.4407,1.888909 4.00193,1.888909 2.04899,0 3.42565,-2.145033 1.2486,-1.824878 1.2486,-3.937895 0,-6.371068 -5.25053,-6.371068 z" />
        <path
           inkscape:connector-curvature="0"
           id="path4790"
           style="font-style:normal;font-variant:normal;font-weight:normal;font-stretch:normal;font-size:medium;line-height:125%;font-family:'Sevilla Decor';-inkscape-font-specification:'Sevilla Decor';letter-spacing:0px;word-spacing:0.67057735px;fill:url(#linearGradient4866);fill-opacity:1;stroke:#000000;stroke-width:0.70555556;stroke-linecap:round;stroke-linejoin:round;stroke-miterlimit:4;stroke-dasharray:none;stroke-opacity:1;paint-order:markers fill stroke"
           d="m 151.2527,94.767497 -2.88139,-0.06403 q 0,-0.256124 0,-0.576278 0,-0.672324 -0.064,-1.376663 -1.37666,2.209064 -4.38611,2.209064 -1.44069,0 -3.29759,-0.832401 -1.50472,-0.736354 -3.07348,-1.440693 0.86442,-0.928447 1.12054,-3.48968 0,-11.397488 0,-11.397488 l 2.56123,0.06403 v 13.574535 q 1.4407,0.896432 2.75333,0.896432 1.31263,0 3.00945,-0.960462 1.63279,-0.928447 1.63279,-2.177048 V 78.055452 h 2.62526 z" />
        <path
           inkscape:connector-curvature="0"
           id="path4792"
           style="font-style:normal;font-variant:normal;font-weight:normal;font-stretch:normal;font-size:medium;line-height:125%;font-family:'Sevilla Decor';-inkscape-font-specification:'Sevilla Decor';letter-spacing:0px;word-spacing:0.67057735px;fill:url(#linearGradient4868);fill-opacity:1;stroke:#000000;stroke-width:0.70555556;stroke-linecap:round;stroke-linejoin:round;stroke-miterlimit:4;stroke-dasharray:none;stroke-opacity:1;paint-order:markers fill stroke"
           d="m 165.17941,82.377533 q -1.76085,-2.081002 -2.56124,-2.081002 -1.82488,0 -2.81735,1.248601 -1.05651,1.280616 -1.05651,3.009449 0,0.384185 0.064,0.76837 v 9.316485 h -2.75333 V 77.991421 l 2.75333,0.06403 q -0.064,0 -0.064,0.448216 0,0.544262 0.064,1.504724 1.56875,-2.465187 3.36162,-2.465187 3.07348,0 3.07348,2.945418 0,0.128062 0,0.256123 z" />
        <path
           inkscape:connector-curvature="0"
           id="path4794"
           style="font-style:normal;font-variant:normal;font-weight:normal;font-stretch:normal;font-size:medium;line-height:125%;font-family:'Sevilla Decor';-inkscape-font-specification:'Sevilla Decor';letter-spacing:0px;word-spacing:0.67057735px;fill:url(#linearGradient4870);fill-opacity:1;stroke:#000000;stroke-width:0.70555556;stroke-linecap:round;stroke-linejoin:round;stroke-miterlimit:4;stroke-dasharray:none;stroke-opacity:1;paint-order:markers fill stroke"
           d="m 183.17207,103.50771 q -1.44069,-1.37667 -1.44069,-7.491612 V 83.818226 q -0.064,-0.512246 -0.064,-0.992478 0,-0.960462 0.32015,-1.504724 0.44822,-0.76837 0.92845,-1.440694 -3.87387,-2.273094 -6.88331,-2.273094 -2.75333,0 -4.61022,2.145033 0,-1.440694 -0.12807,-1.696817 -0.76837,0.128061 -1.44069,0.128061 -0.64031,0 -1.18457,-0.128061 l -0.064,16.583984 q 0.60829,-0.06403 1.18457,-0.06403 0.86442,0 1.56875,0.128062 v -11.58958 q 0,-1.120539 1.63279,-2.048986 1.37666,-0.76837 2.43317,-0.76837 0.12806,0 0.25613,0 2.43317,0.256123 2.97743,0.8324 0.44821,0.608293 0.44821,2.689295 v 9.444547 q 0,4.578204 0.32016,5.698743 0.60829,2.177043 3.48968,4.738283 z" />
        <path
           inkscape:connector-curvature="0"
           id="path4796"
           style="font-style:normal;font-variant:normal;font-weight:normal;font-stretch:normal;font-size:medium;line-height:125%;font-family:'Sevilla Decor';-inkscape-font-specification:'Sevilla Decor';letter-spacing:0px;word-spacing:0.67057735px;fill:url(#linearGradient4872);fill-opacity:1;stroke:#000000;stroke-width:0.70555556;stroke-linecap:round;stroke-linejoin:round;stroke-miterlimit:4;stroke-dasharray:none;stroke-opacity:1;paint-order:markers fill stroke"
           d="m 200.17225,94.703467 q 0,0 -2.68929,0 -0.064,0 -0.064,0 l -0.064,-2.145033 h -0.064 q -2.36914,2.337125 -4.70626,2.337125 -2.49721,0 -4.22604,-1.696817 -1.69681,-1.632786 -1.69681,-4.065957 0,-2.016971 1.50472,-3.649757 1.50472,-1.664802 3.48968,-1.664802 3.45766,0 4.5782,3.169526 l -0.064,-0.09605 q -0.99247,-1.376663 -4.12998,-1.376663 -2.62527,0 -2.62527,3.361618 0,1.312632 1.05651,2.369141 0.99248,1.024493 2.24108,1.024493 3.39363,-0.06403 4.25805,-1.504724 0.57628,-1.12054 0.57628,-5.44262 0,-3.329603 -0.57628,-4.129989 -0.80039,-1.120539 -4.00193,-1.120539 -3.07348,0 -5.44262,1.984955 -0.12806,-0.128061 -0.12806,-0.320154 0,-1.440693 2.68929,-2.817356 2.2731,-1.18457 4.00193,-1.18457 1.63279,0 3.84185,0.960462 2.24108,0.992478 2.97743,0.992478 -0.73635,1.312632 -0.73635,9.124393 0,5.890836 0,5.890836 z" />
        <path
           inkscape:connector-curvature="0"
           id="path4798"
           style="font-style:normal;font-variant:normal;font-weight:normal;font-stretch:normal;font-size:medium;line-height:125%;font-family:'Sevilla Decor';-inkscape-font-specification:'Sevilla Decor';letter-spacing:0px;word-spacing:0.67057735px;fill:url(#linearGradient4874);fill-opacity:1;stroke:#000000;stroke-width:0.70555556;stroke-linecap:round;stroke-linejoin:round;stroke-miterlimit:4;stroke-dasharray:none;stroke-opacity:1;paint-order:markers fill stroke"
           d="m 208.04805,94.831528 q -0.57628,-0.128061 -1.50473,-0.128061 -0.57628,0 -1.37666,0.06403 V 58.846204 q 0.67232,0.06403 1.37666,0.06403 0.73636,0 1.50473,-0.06403 z" />
        <path
           inkscape:connector-curvature="0"
           id="path4800"
           style="font-style:normal;font-variant:normal;font-weight:normal;font-stretch:normal;font-size:medium;line-height:125%;font-family:'Sevilla Decor';-inkscape-font-specification:'Sevilla Decor';letter-spacing:0px;word-spacing:0.67057735px;fill:url(#linearGradient4876);fill-opacity:1;stroke:#000000;stroke-width:0.70555556;stroke-linecap:round;stroke-linejoin:round;stroke-miterlimit:4;stroke-dasharray:none;stroke-opacity:1;paint-order:markers fill stroke"
           d="m 230.87329,95.023621 q -3.74581,0 -5.89084,-2.529218 -2.11302,-2.369141 -2.11302,-6.178975 0,-8.9323 8.00386,-8.9323 3.52169,0 5.69874,2.241079 2.11302,2.241079 2.11302,5.826805 0,4.194019 -1.79287,6.691222 -2.01697,2.881387 -6.01889,2.881387 z m -0.1921,-15.143291 q -4.93037,0 -4.93037,6.114944 0,2.561233 1.50473,4.450143 1.44069,1.888909 4.00192,1.888909 2.04899,0 3.42565,-2.145033 1.2486,-1.824878 1.2486,-3.937895 0,-6.371068 -5.25053,-6.371068 z" />
        <path
           inkscape:connector-curvature="0"
           id="path4802"
           style="font-style:normal;font-variant:normal;font-weight:normal;font-stretch:normal;font-size:medium;line-height:125%;font-family:'Sevilla Decor';-inkscape-font-specification:'Sevilla Decor';letter-spacing:0px;word-spacing:0.67057735px;fill:url(#linearGradient4878);fill-opacity:1;stroke:#000000;stroke-width:0.70555556;stroke-linecap:round;stroke-linejoin:round;stroke-miterlimit:4;stroke-dasharray:none;stroke-opacity:1;paint-order:markers fill stroke"
           d="m 252.61176,62.656038 q 0,0.06403 0,0.128062 0,1.312632 -0.80039,2.36914 -0.86442,1.088524 -2.01697,1.088524 -0.064,0 -0.12806,0 -1.12054,-0.06403 -1.18457,-0.128061 -0.12806,0 -1.05651,-0.832401 -0.064,-0.480231 -0.064,-0.800385 0,-0.320154 0.064,-0.512247 0.38418,-0.608293 0.76837,-1.120539 l 1.85689,0.128061 0.064,-0.384185 q -0.19209,-2.177048 -2.43317,-2.177048 -1.44069,0 -2.46518,1.12054 -0.99248,1.120539 -0.99248,2.625264 0,0.192092 0.064,0.672323 0.064,0.448216 0.064,0.704339 2.62526,2.369141 3.20154,6.56316 l 3.20154,0.06403 v 2.081002 h -3.13751 v 34.416573 q 0,0 -2.94542,0 l -0.064,-34.352543 -4.00192,-0.06403 v -2.369141 q 4.06595,0.09605 4.06595,0.09605 0,-3.48968 -3.20154,-6.307036 -0.28814,-1.248601 -0.35217,-1.248601 0,0 0,0.128061 0,-2.561233 1.69682,-4.386111 1.72883,-1.824879 4.29006,-1.984956 0.25613,0 0.44822,0 2.11302,0 3.39363,1.12054 1.47271,1.248601 1.66481,3.361618 z" />
        <path
           inkscape:connector-curvature="0"
           id="path4804"
           style="font-style:normal;font-variant:normal;font-weight:normal;font-stretch:normal;font-size:medium;line-height:125%;font-family:'Sevilla Decor';-inkscape-font-specification:'Sevilla Decor';letter-spacing:0px;word-spacing:0.67057735px;fill:url(#linearGradient4880);fill-opacity:1;stroke:#000000;stroke-width:0.70555556;stroke-linecap:round;stroke-linejoin:round;stroke-miterlimit:4;stroke-dasharray:none;stroke-opacity:1;paint-order:markers fill stroke"
           d="m 293.17353,102.77135 q 0,4.45014 -4.00193,7.81176 -4.06596,3.3296 -8.58013,3.3296 -7.6837,0 -12.06981,-7.52362 -3.61774,-6.30703 -3.61774,-14.567011 0,-7.683699 5.25052,-16.808091 5.25053,-9.156409 11.94175,-12.550042 h -12.13384 q -0.99248,0 -1.63278,0.8324 -0.73636,0.928447 -0.73636,1.920925 0,1.568755 1.53674,1.568755 l 1.08852,-0.672323 v -1.12054 q 2.36915,0.736355 2.36915,1.792863 0,1.184571 -1.08853,1.984956 -1.05651,0.76837 -2.30511,0.76837 -4.54619,0 -4.54619,-4.738281 0,-6.14696 7.29952,-6.14696 0.76837,0 1.37666,0.06403 h 18.66499 l 0.064,3.265572 q -0.064,0 -0.12807,0 -5.09045,0 -10.69314,5.37859 -4.89836,4.866343 -8.38804,12.00578 -3.45767,7.203468 -3.45767,12.197872 0,6.499129 2.49721,11.717645 3.20154,6.62719 8.96431,6.62719 2.94542,0 5.82681,-2.40116 2.81735,-2.36914 2.81735,-5.25053 0,-2.881384 -1.63278,-5.122463 -1.63279,-2.241079 -4.45014,-2.241079 -2.17705,0 -3.74581,1.120539 -1.82488,1.248602 -1.82488,3.297588 0,1.504725 0.99248,2.593245 0.89643,1.18457 2.33713,1.18457 1.44069,0 2.36914,-0.8324 -2.36914,-0.54426 -2.36914,-2.24107 l 2.30511,-2.081008 q 1.18457,0.06403 2.04898,0.960463 0.76837,0.992477 0.76837,2.241075 0,2.08101 -1.44069,3.39364 -1.44069,1.31263 -3.55371,1.31263 -2.65728,0 -4.57821,-2.081 -1.95294,-2.11302 -1.95294,-4.802315 0,-2.881387 2.20907,-5.09045 2.04898,-2.048987 4.9944,-2.849372 -4.00193,-3.457665 -4.00193,-7.203468 0,-2.497202 1.88891,-4.514173 1.92093,-2.048987 4.41813,-2.048987 1.37666,0 2.46519,1.056509 1.12054,1.056509 1.12054,2.433171 0,2.689295 -2.01697,2.689295 -1.69682,0 -1.69682,-1.696817 0,-0.800385 0.32015,-1.792863 h -0.19209 q -1.44069,0 -2.36914,1.248601 -0.92845,1.248601 -0.92845,2.753326 0,2.241079 3.16953,4.930373 4.96239,4.194019 5.89084,5.250528 3.13751,3.713788 3.13751,8.644162 z" />
        <path
           inkscape:connector-curvature="0"
           id="path4806"
           style="font-style:normal;font-variant:normal;font-weight:normal;font-stretch:normal;font-size:medium;line-height:125%;font-family:'Sevilla Decor';-inkscape-font-specification:'Sevilla Decor';letter-spacing:0px;word-spacing:0.67057735px;fill:url(#linearGradient4882);fill-opacity:1;stroke:#000000;stroke-width:0.70555556;stroke-linecap:round;stroke-linejoin:round;stroke-miterlimit:4;stroke-dasharray:none;stroke-opacity:1;paint-order:markers fill stroke"
           d="m 307.67652,94.703467 q 0,0 -2.68929,0 -0.064,0 -0.064,0 l -0.064,-2.145033 h -0.064 q -2.36915,2.337125 -4.70627,2.337125 -2.4972,0 -4.22603,-1.696817 -1.69682,-1.632786 -1.69682,-4.065957 0,-2.016971 1.50472,-3.649757 1.50473,-1.664802 3.48968,-1.664802 3.45767,0 4.57821,3.169526 l -0.064,-0.09605 q -0.99248,-1.376663 -4.12999,-1.376663 -2.62527,0 -2.62527,3.361618 0,1.312632 1.05651,2.369141 0.99248,1.024493 2.24108,1.024493 3.39364,-0.06403 4.25805,-1.504724 0.57628,-1.12054 0.57628,-5.44262 0,-3.329603 -0.57628,-4.129989 -0.80038,-1.120539 -4.00193,-1.120539 -3.07348,0 -5.44262,1.984955 -0.12806,-0.128061 -0.12806,-0.320154 0,-1.440693 2.6893,-2.817356 2.27309,-1.18457 4.00192,-1.18457 1.63279,0 3.84185,0.960462 2.24108,0.992478 2.97744,0.992478 -0.73636,1.312632 -0.73636,9.124393 0,5.890836 0,5.890836 z" />
        <path
           inkscape:connector-curvature="0"
           id="path4808"
           style="font-style:normal;font-variant:normal;font-weight:normal;font-stretch:normal;font-size:medium;line-height:125%;font-family:'Sevilla Decor';-inkscape-font-specification:'Sevilla Decor';letter-spacing:0px;word-spacing:0.67057735px;fill:url(#linearGradient4884);fill-opacity:1;stroke:#000000;stroke-width:0.70555556;stroke-linecap:round;stroke-linejoin:round;stroke-miterlimit:4;stroke-dasharray:none;stroke-opacity:1;paint-order:markers fill stroke"
           d="m 315.42424,94.575405 h -2.88139 V 78.183513 h 3.07348 v 2.241079 q 3.16953,-2.561233 5.12247,-2.561233 3.42565,0 5.25053,2.625264 1.18457,-0.864416 2.36914,-1.696817 1.12054,-0.864416 2.88139,-0.864416 1.76084,0 3.80983,0.864416 1.76085,0.76837 3.5217,1.632786 -1.18458,1.248601 -1.18458,1.88891 v 18.568938 q 0,0.8324 1.66481,2.56123 v 0.1921 h -0.12807 q -0.16007,0 -0.35216,0 -0.89644,0 -2.08101,-0.6083 -1.92092,-1.0565 -1.92092,-3.265568 V 82.249471 q -1.02449,-1.440694 -3.07348,-1.440694 -2.4972,0 -3.5217,1.312632 -0.92844,1.056509 -1.05651,3.681773 -0.12806,1.696817 -0.12806,4.514173 0,1.824879 0.064,4.194019 H 323.9083 V 82.569625 q 0,-2.081002 -4.3541,-2.081002 -1.08852,0 -2.52922,0.896432 -1.60077,0.928447 -1.60077,1.984955 0,0.06403 0,0.128062 z" />
        <path
           inkscape:connector-curvature="0"
           id="path4810"
           style="font-style:normal;font-variant:normal;font-weight:normal;font-stretch:normal;font-size:medium;line-height:125%;font-family:'Sevilla Decor';-inkscape-font-specification:'Sevilla Decor';letter-spacing:0px;word-spacing:0.67057735px;fill:url(#linearGradient4886);fill-opacity:1;stroke:#000000;stroke-width:0.70555556;stroke-linecap:round;stroke-linejoin:round;stroke-miterlimit:4;stroke-dasharray:none;stroke-opacity:1;paint-order:markers fill stroke"
           d="m 358.64505,89.51697 q 0,2.625264 -2.4972,4.25805 -2.24108,1.472709 -4.9944,1.472709 -3.26557,0 -5.76278,-2.753326 -2.4972,-2.689295 -2.4972,-5.986882 0,-3.745804 2.11302,-6.21099 2.01697,-2.497203 5.69874,-2.497203 5.69875,0 7.52362,5.506652 -1.95294,1.568755 -11.14136,6.62719 1.72883,2.753326 4.48216,2.753326 3.71379,0 6.88331,-4.001927 0.19209,0.576277 0.19209,0.832401 z m -4.06595,-6.819283 q 0,-0.896432 -1.37667,-1.696817 -1.44069,-0.76837 -2.4972,-0.76837 -2.17705,0 -3.55371,1.824878 -1.37666,1.88891 -1.37666,4.129989 0,1.120539 0.12806,1.696817 h 0.064 q 2.97743,-1.824879 8.61215,-5.186497 z" />
        <path
           inkscape:connector-curvature="0"
           id="path4812"
           style="font-style:normal;font-variant:normal;font-weight:normal;font-stretch:normal;font-size:medium;line-height:125%;font-family:'Sevilla Decor';-inkscape-font-specification:'Sevilla Decor';letter-spacing:0px;word-spacing:0.67057735px;fill:url(#linearGradient4888);fill-opacity:1;stroke:#000000;stroke-width:0.70555556;stroke-linecap:round;stroke-linejoin:round;stroke-miterlimit:4;stroke-dasharray:none;stroke-opacity:1;paint-order:markers fill stroke"
           d="m 372.21784,99.21764 q 0,3.9379 3.3296,6.62719 3.16953,2.56123 7.20347,2.56123 8.35602,0 14.69507,-8.00385 0.4162,0.28814 2.36914,3.23356 1.56876,2.20906 3.00945,2.20906 0.80039,0 1.37667,-0.70434 0.60829,-0.67232 0.60829,-1.44069 0,-2.75333 -5.05844,-7.075409 l 1.2486,-2.497202 q 0.25613,0.128062 4.51418,2.561233 3.00945,1.696817 4.67425,1.696817 0.96046,0 1.76085,-0.608293 0.70433,-0.576277 0.70433,-1.504724 0,-1.88891 -4.45014,-3.713788 -3.07348,-0.992478 -6.14696,-2.048987 0,-1.056508 0.25613,-2.881387 l 0.32015,-0.192092 q 3.80983,0.320154 7.61967,0.576277 4.5782,0.416201 7.58765,0.416201 1.31263,0 2.36914,-0.544262 1.31263,-0.640309 1.31263,-1.824879 0,-2.817356 -3.93789,-2.817356 -2.81736,0 -7.13944,0.320154 -6.4351,0.448216 -7.13944,0.512246 l -0.73635,-0.192092 q 0,0 -0.38419,-2.753326 3.20155,-0.896431 6.33906,-1.824878 4.54618,-1.568755 4.54618,-3.745803 0,-1.952941 -2.56123,-1.952941 -1.92092,0 -4.67425,1.696817 -3.00945,1.824879 -4.45014,2.081002 l -1.2486,-2.465187 q 5.63471,-3.809834 5.69874,-7.011375 -0.12806,-0.672324 -0.64031,-1.152555 -0.51224,-0.512247 -1.05651,-0.960462 -1.63278,0 -3.39363,2.016971 -1.2486,1.664801 -2.56123,3.297587 -6.88332,-8.067884 -14.56702,-8.067884 -4.12998,0 -7.52362,2.625264 -3.68177,2.881387 -3.68177,6.819283 0,3.521695 3.20154,6.146959 3.16953,2.689295 6.81928,2.689295 7.74773,0 15.01523,-4.770297 0.4162,0.704339 1.05651,2.30511 -9.70067,5.154482 -21.16219,5.506651 -1.2486,-1.376663 -2.4972,-1.376663 -0.92845,0 -1.60077,0.800386 -0.64031,0.76837 -0.64031,1.728832 0,2.369141 2.49721,2.369141 1.37666,0 2.36914,-1.376663 10.5971,0.864416 21.03412,6.435098 l -0.99248,2.016971 q -9.09237,-5.154482 -15.65553,-5.154482 -3.87387,0 -6.75525,2.753326 -2.88139,2.817356 -2.88139,6.659206 z m 2.62526,-26.860932 q 0,-2.689294 2.88139,-4.930373 2.68929,-2.016971 5.57068,-2.016971 2.081,0 2.81736,1.18457 0.19209,0.448216 0.38418,0.896431 0.32016,0.736355 0.67233,0.736355 1.12054,0 1.63278,-1.632786 1.4407,0.448216 4.19402,2.817356 3.00945,2.561233 3.00945,3.713788 0,1.440694 -4.70627,3.681773 -4.38611,2.113017 -6.17897,2.113017 1.63279,-1.984956 1.63279,-3.745803 0,-1.312632 -0.89644,-2.497203 -0.99247,-1.18457 -2.24108,-1.18457 -0.92844,0 -1.69681,0.544262 -0.86442,0.576278 -0.86442,1.504725 0,1.312631 1.05651,1.504724 0.99248,0.256123 1.95294,0.384185 -0.51225,2.36914 -3.3296,2.36914 -2.24108,0 -4.06596,-1.632786 -1.82488,-1.664801 -1.82488,-3.809834 z m 13.95872,12.133842 10.43703,-2.753326 q 0.064,0.320154 0.19209,1.024493 0.12806,0.800386 0.19209,1.184571 -0.73635,0.544262 -4.80231,0.544262 z m -0.25612,2.337125 10.82121,0.352169 v 1.312632 q 0,0.192093 -0.16008,0.512247 -0.12806,0.320154 -0.12806,0.512247 z m -14.05477,11.557564 q 0,-2.177048 2.11302,-3.809834 2.01697,-1.632786 4.25805,-1.632786 1.88891,0 2.56123,2.30511 h -0.38418 q -2.88139,0 -2.88139,2.016971 0,2.305109 2.40116,2.305109 1.50472,0 2.62526,-1.312632 1.05651,-1.248601 1.05651,-2.753325 0,-1.984956 -1.2486,-3.169526 h 0.44821 q 2.11302,0 5.44262,2.241079 2.62527,1.760848 4.73828,3.937896 -0.12806,1.248601 -3.26557,3.617739 -2.62526,2.01697 -4.48216,2.81736 0,-0.064 0,-0.12806 0,-0.73636 -0.57627,-1.2486 -0.73636,-0.54427 -1.50473,-0.54427 h -0.19209 q -1.31263,2.6893 -3.9379,2.6893 -2.94541,0 -5.05843,-2.17705 -2.11302,-2.20906 -2.11302,-5.154481 z" />
      </g>
      <path
         id="path4533"
         d="m 17.319917,29.703613 -0.0064,3.84e-4 c -1.54493,0 -2.935206,0.506351 -4.171072,1.510428 -1.235995,0.988834 -1.851939,2.230351 -1.851939,3.72894 0,2.649871 0.518362,7.016631 0.821795,9.448594 v 35.114922 c -0.497374,0.232624 -0.983334,0.457931 -1.364547,0.629159 0.701845,0.753918 1.15667,2.171213 1.364547,4.25112 v 1.545589 39.099671 c -0.501601,1.81829 -1.575906,4.87951 -3.2927931,4.87951 -0.8651571,0 -1.6303674,-0.34752 -2.2944445,-1.04286 -0.6959187,-0.66433 -1.0428614,-1.41925 -1.0428614,-2.269 0,-1.71485 0.6952774,-2.57238 2.0857229,-2.57238 0.417176,0 0.8480955,0.11576 1.2957219,0.34751 -0.8964819,0.24723 -1.346219,0.74752 -1.346219,1.50444 0,1.08148 0.5429848,1.62414 1.6241402,1.62414 0.5403355,0 1.014635,-0.22818 1.415793,-0.67628 0.386466,-0.40169 0.575295,-0.86872 0.575295,-1.40945 0,-1.20503 -0.440564,-2.08217 -1.321158,-2.62285 -0.6334001,-0.33991 -1.3789003,-0.51208 -2.2435731,-0.51208 -0.1860647,0 -0.3902312,0.0195 -0.6067151,0.0504 0.7878837,-1.32864 1.5760201,-2.63955 2.3636448,-3.93729 0.9269304,-1.59127 1.3907304,-3.03792 1.3907304,-4.33564 0,-1.09692 -0.314728,-2.10664 -0.9482252,-3.03358 -0.6334001,-0.88063 -1.4772771,-1.32115 -2.5278539,-1.32115 -0.6025951,0 -1.1020562,0.18544 -1.5044435,0.55622 -0.4475938,0.41714 -0.66993,0.92691 -0.66993,1.5295 0,1.11242 0.4541228,1.66866 1.3652957,1.66866 h 0.1009942 c 0.4488555,-0.0324 0.7755069,-0.28593 0.9919902,-0.76495 v -0.18964 c 0,-0.26243 -0.059623,-0.49771 -0.1829124,-0.71407 -0.09287,-0.15435 -0.2187713,-0.27993 -0.3729314,-0.37293 0.061157,-0.23136 0.1870607,-0.3475 0.3729314,-0.3475 0.3546907,0 0.7487002,0.26835 1.1816356,0.80908 0.4182763,0.57159 0.6257919,1.1607 0.6257912,1.76329 0,1.48312 -0.9632567,3.50893 -2.8944265,6.07349 -1.9317843,2.56463 -2.9011596,4.76621 -2.9011596,6.60468 0,1.82295 0.4864017,3.25963 1.4599311,4.31021 0.9875081,1.04926 2.4057953,1.57238 4.2410197,1.57365 3.0038804,-0.007 4.8909484,-3.64382 5.7132944,-5.65645 h 70.317596 c 0.23262,0.49739 0.457929,0.98339 0.62916,1.36454 0.753921,-0.70179 2.170841,-1.15665 4.250745,-1.36454 h 1.545959 287.875634 c 0.23263,0.49739 0.45831,0.98334 0.62955,1.36454 0.75392,-0.70184 2.17082,-1.15665 4.25074,-1.36454 h 1.54559 53.10774 v -17.13949 c 0.24206,-1.54387 0.65225,-2.63669 1.23588,-3.26362 -0.34786,-0.15624 -0.78413,-0.35806 -1.23588,-0.56894 V 44.29058 c 0,0 -3.5707,-4.487875 -3.5707,-6.326367 0,-1.390414 0.48294,-2.605181 1.44085,-3.64029 0.94294,-1.050577 2.10471,-1.574017 3.49515,-1.574017 1.48319,0 2.7544,0.486562 3.80487,1.459932 1.05058,0.957866 1.57365,2.16304 1.57365,3.615227 0,0.695305 -0.31472,1.45019 -0.94824,2.26901 -0.63351,0.803382 -1.28219,1.20707 -1.94655,1.20707 -0.69471,0 -1.31721,-0.194942 -1.85794,-0.58128 -0.62372,-0.395753 -0.93333,-0.902235 -0.94187,-1.523145 0.0366,-0.01295 0.085,-0.202223 0.17694,-0.606716 l 1.2325,0.903714 c 0.3865,0 0.71033,-0.152615 0.97328,-0.461583 0.27764,-0.324466 0.41709,-0.681682 0.41709,-1.067922 0,-0.525289 -0.19593,-1.011924 -0.58129,-1.45993 -0.37058,-0.447984 -0.82447,-0.669931 -1.3653,-0.669931 -0.78763,0 -1.46955,0.314354 -2.0412,0.947852 -0.57114,0.633401 -0.85958,1.361912 -0.85958,2.180733 0,1.328638 0.44019,2.407667 1.32078,3.241921 0.89648,0.849756 2.00836,1.277019 3.33693,1.277019 1.57586,0 2.89354,-0.575865 3.94403,-1.719149 1.00409,-1.127754 1.50406,-2.498779 1.50406,-4.120949 0,-1.900266 -0.56989,-3.426185 -1.71279,-4.569439 0.98819,-0.247224 1.51164,-0.826292 1.57364,-1.737854 -0.35465,-0.169886 -1.59339,-0.405507 -3.70986,-0.71444 -2.11658,-0.324468 -3.42748,-0.486645 -3.93728,-0.486645 -2.24012,0 -4.10409,0.824623 -5.58725,2.477731 -1.52938,1.683913 -2.29407,3.643759 -2.29407,5.883864 0,1.604113 1.67803,4.263057 2.6988,5.795584 H 300.70454 c -0.23265,-0.49741 -0.45834,-0.983303 -0.62953,-1.364547 -0.75394,0.701848 -2.17085,1.156673 -4.25076,1.364547 h -87.98413 c -0.21405,-0.458409 -0.41912,-0.90189 -0.57754,-1.254575 -0.64253,0.598156 -1.77127,1.015217 -3.37696,1.254575 H 62.767428 c -0.232622,-0.497369 -0.45793,-0.983334 -0.629157,-1.364547 -0.753921,0.701848 -2.171214,1.156673 -4.251119,1.364547 H 15.190056 c -0.462997,-2.894918 -0.960504,-6.298575 -0.960569,-8.399373 0,-0.988834 0.321813,-1.892758 0.95421,-2.711514 0.60295,-0.818818 1.390717,-1.226146 2.364019,-1.226146 0.896449,0 1.68758,0.334385 2.382721,0.998722 0.694689,0.664368 1.042488,1.43253 1.042488,2.313146 0,0.540692 -0.221009,1.027321 -0.66993,1.459932 -0.447625,0.478949 -0.934417,0.720428 -1.459932,0.720428 l -0.442131,-0.139148 c 0,-0.09287 0.03348,-0.139147 0.09464,-0.139147 l 0.0505,0.04451 c 0.479434,-0.695174 0.720427,-1.0893 0.720427,-1.182011 0,-0.417078 -0.174927,-0.778063 -0.530783,-1.086999 -0.339998,-0.324465 -0.734384,-0.486643 -1.182009,-0.486643 -0.339999,0 -0.706891,0.268361 -1.093358,0.809076 -0.370579,0.540823 -0.556218,1.00051 -0.556218,1.371281 0,0.695273 0.296913,1.311184 0.885011,1.851939 0.60295,0.571661 1.251304,0.859575 1.946574,0.859575 1.405883,0 2.485348,-0.413719 3.242297,-1.232505 0.726466,-0.81882 1.087,-1.931052 1.087,-3.336932 0,-1.421349 -0.583291,-2.61649 -1.75693,-3.589792 -1.174028,-0.988802 -2.504971,-1.485368 -3.988159,-1.485368 z m -1.959292,17.816921 h 65.57683 1.545965 c 2.079905,0.207879 3.496825,0.662699 4.250746,1.364547 0.171223,-0.381213 0.396532,-0.867172 0.62916,-1.364547 H 403.51479 c 2.0799,0.207879 3.49683,0.662699 4.25075,1.364547 0.17123,-0.381213 0.39653,-0.867172 0.62914,-1.364547 h 27.276 v 26.666175 c -0.49737,0.23262 -0.98334,0.458304 -1.36455,0.629532 0.70185,0.75392 1.15667,2.170839 1.36455,4.250744 v 1.54559 27.054395 4.19763 11.43631 h -241.14687 -1.54596 c -2.07991,-0.20787 -3.49683,-0.6627 -4.25075,-1.36455 -0.17122,0.38121 -0.39653,0.86718 -0.62915,1.36455 H 15.360625 Z"
         style="color:#000000;font-style:normal;font-variant:normal;font-weight:normal;font-stretch:normal;font-size:medium;line-height:normal;font-family:sans-serif;font-variant-ligatures:normal;font-variant-position:normal;font-variant-caps:normal;font-variant-numeric:normal;font-variant-alternates:normal;font-feature-settings:normal;text-indent:0;text-align:start;text-decoration:none;text-decoration-line:none;text-decoration-style:solid;text-decoration-color:#000000;letter-spacing:normal;word-spacing:normal;text-transform:none;writing-mode:lr-tb;direction:ltr;text-orientation:mixed;dominant-baseline:auto;baseline-shift:baseline;text-anchor:start;white-space:normal;shape-padding:0;clip-rule:nonzero;display:inline;overflow:visible;visibility:visible;opacity:1;isolation:auto;mix-blend-mode:normal;color-interpolation:sRGB;color-interpolation-filters:linearRGB;solid-color:#000000;solid-opacity:1;vector-effect:none;fill:url(#linearGradient4545);fill-opacity:1;fill-rule:evenodd;stroke:#000000;stroke-width:0.70555556;stroke-linecap:round;stroke-linejoin:round;stroke-miterlimit:4;stroke-dasharray:none;stroke-dashoffset:0;stroke-opacity:1;paint-order:markers fill stroke;color-rendering:auto;image-rendering:auto;shape-rendering:auto;text-rendering:auto;enable-background:accumulate"
         inkscape:connector-curvature="0"
         sodipodi:nodetypes="cccsccccccscsscsscscsccscscssccsccscscsccccccccccccccccscscscscccccscscscscscccscscccccccccccccscscccccscscscscsccccccccccccccccccccccccc" />
      <path
         sodipodi:nodetypes="ccscccscscccscscscscscsscccscsccscsccscccsccc"
         inkscape:connector-curvature="0"
         id="path3692"
         d="m 424.2754,118.07991 c -0.0612,0 -0.52458,0.0929 -1.39036,0.27793 0.54057,1.08139 0.80833,1.68417 0.80833,1.80779 0,0.57163 -0.48677,1.61419 -1.45992,3.12821 -0.002,0.002 -0.003,0.005 -0.004,0.007 h 3.55539 c 0.63316,-0.40871 1.38249,-0.61383 2.2458,-0.61383 0.94174,0 1.79025,0.32094 2.54731,0.95423 0.72648,0.61798 1.087,1.38617 1.087,2.31314 0,1.63765 -0.74083,2.62087 -2.22448,2.9453 l -0.41709,-0.27793 0.92952,-1.5295 c 0,-0.94246 -0.53331,-1.41579 -1.59907,-1.41579 -0.54058,0 -0.99068,0.20507 -1.34623,0.60672 -0.33999,0.44799 -0.50533,0.95788 -0.50533,1.52949 0,0.81881 0.32788,1.52732 0.99199,2.12987 0.6641,0.60258 1.42561,0.90409 2.27536,0.90409 1.236,0 2.27883,-0.54299 3.1286,-1.62451 0.80352,-0.97329 1.20107,-2.10878 1.20107,-3.40651 0,-1.5295 -0.6031,-2.84039 -1.80779,-3.93729 -1.23587,-1.11234 -2.62614,-1.66866 -4.17108,-1.66866 -0.26294,0 -1.02751,0.12564 -2.29445,0.37295 0.0367,-0.18543 0.049,-0.37082 0.049,-0.55622 0,-1.29775 -0.53333,-1.94658 -1.59908,-1.94658 z m 11.92368,7.31417 c -0.77198,-0.0256 -0.3536,1.15511 -0.3536,1.15511 0,0 0.10637,2.91026 -1.00195,4.43631 -1.29775,1.90028 -3.0824,2.85029 -5.35345,2.85029 -1.57575,0 -2.95282,-0.5892 -4.12692,-1.76329 -1.20469,-1.1741 -1.80743,-2.54473 -1.80743,-4.12057 0,-0.48947 0.0491,-0.95688 0.14587,-1.40271 h -2.93708 c -0.0397,0.23508 -0.0606,0.46272 -0.0606,0.68229 0,2.44098 0.66153,4.49361 1.99073,6.16214 -0.63354,0.38624 -0.94787,0.91566 -0.94787,1.58001 v 0.0954 l 0.049,1.13151 c 0.69469,-0.54071 1.52621,-0.80908 2.48409,-0.80908 0.6641,0 1.6412,0.12893 2.93894,0.39163 1.26682,0.278 2.23645,0.41745 2.90079,0.41745 2.71916,-5e-5 4.92398,-1.10265 6.62337,-3.31188 1.46776,-1.90028 2.18521,-5.1006 2.17661,-6.33908 -0.002,-0.27535 -1.81862,-1.05314 -2.16953,-1.06478 z"
         style="font-style:normal;font-variant:normal;font-weight:normal;font-stretch:normal;font-size:medium;line-height:125%;font-family:'Sevilla Decor';-inkscape-font-specification:'Sevilla Decor';letter-spacing:0px;word-spacing:0px;fill:url(#linearGradient4553);fill-opacity:1;stroke:#000000;stroke-width:0.70555556;stroke-linecap:round;stroke-linejoin:round;stroke-miterlimit:4;stroke-dasharray:none;stroke-opacity:1;paint-order:markers fill stroke" />
      <path
         sodipodi:nodetypes="ccccscc"
         inkscape:connector-curvature="0"
         id="rect884"
         d="m 435.36806,126.19182 c -1.28547,0.0727 -0.15366,-1.47474 -0.15366,-1.47474 l 3.35655,-0.28063 -0.006,2.23182 c 0,0 -2.42842,1.30824 -2.36297,0.0779 0.016,-0.30137 -0.26313,-0.56426 -0.83392,-0.54967 z"
         style="opacity:1;fill:#344b3a;fill-opacity:1;stroke:none;stroke-width:0.70555556;stroke-linecap:butt;stroke-linejoin:round;stroke-miterlimit:4;stroke-dasharray:16.93333363, 0.70555557;stroke-dashoffset:0;stroke-opacity:1;paint-order:markers fill stroke" />
    </g>
  </g>
</svg>
