<?xml version="1.0" encoding="UTF-8" standalone="no"?>
<svg
   xmlns:dc="http://purl.org/dc/elements/1.1/"
   xmlns:cc="http://creativecommons.org/ns#"
   xmlns:rdf="http://www.w3.org/1999/02/22-rdf-syntax-ns#"
   xmlns:svg="http://www.w3.org/2000/svg"
   xmlns="http://www.w3.org/2000/svg"
   xmlns:sodipodi="http://sodipodi.sourceforge.net/DTD/sodipodi-0.dtd"
   xmlns:inkscape="http://www.inkscape.org/namespaces/inkscape"
   height="70.556"
   width="70.556"
   version="1.1"
   viewBox="0 0 70.556003 70.556"
   id="svg48"
   sodipodi:docname="logo.art.svg"
   inkscape:version="0.92.1 r15371"
   inkscape:export-filename="/media/mouse/GIT/ArtWorks/logo.art.svg.png"
   inkscape:export-xdpi="1904.8699"
   inkscape:export-ydpi="1904.8699">
  <metadata
     id="metadata54">
    <rdf:RDF>
      <cc:Work
         rdf:about="">
        <dc:format>image/svg+xml</dc:format>
        <dc:type
           rdf:resource="http://purl.org/dc/dcmitype/StillImage" />
        <dc:title />
      </cc:Work>
    </rdf:RDF>
  </metadata>
  <defs
     id="defs52" />
  <sodipodi:namedview
     pagecolor="#ffffff"
     bordercolor="#666666"
     borderopacity="1"
     objecttolerance="10"
     gridtolerance="10"
     guidetolerance="10"
     inkscape:pageopacity="0"
     inkscape:pageshadow="2"
     inkscape:window-width="1280"
     inkscape:window-height="972"
     id="namedview50"
     showgrid="false"
     fit-margin-top="0"
     fit-margin-left="0"
     fit-margin-right="0"
     fit-margin-bottom="0"
     inkscape:zoom="10.272216"
     inkscape:cx="15.418379"
     inkscape:cy="37.050332"
     inkscape:window-x="0"
     inkscape:window-y="0"
     inkscape:window-maximized="1"
     inkscape:current-layer="svg48" />
  <g
     transform="translate(-6.7002e-7,-229.976)"
     id="g46">
    <path
       style="fill:#da2200;paint-order:markers fill stroke"
       d="M 6.7002e-7,226.44 H 70.556001 v 68.792 l -35.278,5.3 L 6.7002e-7,295.242 Z"
       id="path2"
       inkscape:connector-curvature="0" />
    <g
       aria-label="The. FirstAugust. Art."
       transform="matrix(0.26458,0,0,0.26458,-3.4905,250.07)"
       id="g44"
       style="fill:#000000;stroke:#000000;stroke-width:1px">
      <path
         d="m 124.9,4.5563 v 1.5466 h -9.12 v 38.453 h -1.76 V 6.1029 h -9.2267 V 4.5562 Z"
         id="path4"
         inkscape:connector-curvature="0" />
      <path
         d="m 130.93,44.556 h -1.7067 V 4.61 h 1.7067 v 20.586 q 2.6667,-5.2267 9.2267,-5.2267 4.48,0 7.52,3.0933 3.0933,3.0933 3.0933,7.52 v 13.973 h -1.7067 v -13.973 q 0,-3.7333 -2.6133,-6.4 -2.6133,-2.72 -6.2933,-2.72 -3.68,0 -6.4533,2.72 -2.7733,2.72 -2.7733,6.4 z"
         id="path6"
         inkscape:connector-curvature="0" />
      <path
         d="m 168.62,45.196 h -0.48 q -5.0667,0 -8.8533,-3.7867 -3.7333,-3.84 -3.7333,-8.9067 0,-5.0667 3.7333,-8.7467 3.7333,-3.7333 9.2267,-3.7333 5.4933,0 9.44,4.3733 l -16.747,16.533 q 3.4667,2.7733 6.6667,2.7733 3.2,0 5.7067,-1.44 2.56,-1.4933 4.2133,-3.9467 v 2.72 q -3.7867,4.16 -9.1733,4.16 z m -0.59,-23.68 q -4.2133,0 -7.52,3.3067 -3.2533,3.2533 -3.2533,7.52 0,4.2667 2.8267,7.4667 l 15.52,-15.413 q -3.3067,-2.88 -7.5733,-2.88 z"
         id="path8"
         inkscape:connector-curvature="0" />
      <path
         d="m 183.45,44.93 q -1.8133,0 -1.8133,-1.6533 0,-1.6533 1.8133,-1.6533 1.8667,0 1.8667,1.6533 0,1.6533 -1.8667,1.6533 z"
         id="path10"
         inkscape:connector-curvature="0" />
      <path
         d="m 27.159,64.556 h 14.24 v 1.547 h -12.48 v 21.653 h 10.4 v 1.5467 h -10.4 v 15.253 h -1.76 z"
         id="path12"
         inkscape:connector-curvature="0" />
      <path
         d="m 48.342,80.61 v 23.95 H 46.635 V 80.61 Z m -0.853,-5.867 q -1.5467,0 -1.5467,-1.44 0,-1.44 1.5467,-1.44 1.5467,0 1.5467,1.44 0,1.44 -1.5467,1.44 z"
         id="path14"
         inkscape:connector-curvature="0" />
      <path
         d="m 69.448,83.81 q -2.3467,-2.3467 -5.1733,-2.3467 -2.8267,0 -5.0133,2.1333 -2.1333,2.1333 -2.1333,4.96 v 16.003 h -1.707 v -24.004 h 1.7067 v 3.5733 q 0.96,-1.8133 2.9867,-2.9867 2.0267,-1.1733 4.5333,-1.1733 2.5067,0 4.8,1.7067 z"
         id="path16"
         inkscape:connector-curvature="0" />
      <path
         d="m 79.189,81.41 q -1.3867,0 -2.4533,0.90667 -1.0667,0.90667 -1.0667,2.24 0,1.33333 1.1733,2.4533 1.2267,1.12 2.88,2.08 1.7067,0.90667 3.4133,1.9733 1.7067,1.0667 2.88,2.72 1.2267,1.6533 1.2267,3.7867 0,3.1467 -2.4,5.3867 -2.3467,2.1867 -5.7067,2.1867 -2.1333,0 -4,-0.90667 -1.8133,-0.96 -2.6667,-2.5067 v -2.56 q 2.0267,4.48 6.5067,4.48 2.7733,0 4.64,-1.7067 1.92,-1.7067 1.92,-3.7867 0,-2.1333 -1.2267,-3.5733 -1.1733,-1.44 -2.88,-2.4533 -1.7067,-1.0133 -3.4133,-1.9733 -1.6533,-1.0133 -2.88,-2.4 -1.1733,-1.44 -1.1733,-3.3067 0,-1.92 1.4933,-3.2 1.5467,-1.3333 3.9467,-1.3333 2.4,0 4.1067,1.8667 v 2.1867 q -1.7067,-2.56 -4.32,-2.56 z"
         id="path18"
         inkscape:connector-curvature="0" />
      <path
         d="m 100.88,103.38 v 1.4933 q -3.7867,0 -6.4533,-2.5067 -2.664,-2.55 -2.664,-6.497 v -24.96 h 1.7067 v 9.7067 h 7.36 v 1.4933 h -7.36 v 13.76 q 0,3.2533 2.1333,5.3867 2.1867,2.1333 5.28,2.1333 z"
         id="path20"
         inkscape:connector-curvature="0" />
      <path
         d="m 123.46,63.596 20,40.96 h -1.8667 L 134.02,89.303 h -21.387 l -7.4667,15.253 h -1.6533 z m -0.16,3.68 -9.9733,20.48 h 20.053 z"
         id="path22"
         inkscape:connector-curvature="0" />
      <path
         d="m 167.54,80.556 h 1.7067 v 24 H 167.54 v -4.8533 q -2.72,5.44 -9.28,5.44 -4.48,0 -7.52,-3.0933 -3.04,-3.0933 -3.04,-7.52 v -13.978 h 1.7067 v 13.973 q 0,3.68 2.56,6.4 2.6133,2.72 6.2933,2.72 3.68,0 6.4533,-2.72 2.8267,-2.72 2.8267,-6.4 z"
         id="path24"
         inkscape:connector-curvature="0" />
      <path
         d="m 197.4,80.556 h 1.7067 v 21.76 q 0,6.1867 -3.4133,9.76 -3.4133,3.5733 -8.96,3.5733 -3.04,0 -5.92,-1.3867 -2.88,-1.3867 -4.48,-3.6267 v -2.4533 q 1.3867,2.56 4.32,4.2667 2.9867,1.7067 6.08,1.7067 4.6933,0 7.68,-3.2 2.9867,-3.1467 2.9867,-8.64 v -3.5733 q -1.44,2.9333 -4.5333,4.6933 -3.0933,1.76 -6.4,1.76 -5.2267,0 -8.96,-3.68 -3.7333,-3.7333 -3.7333,-8.9067 0,-5.1733 3.7333,-8.8533 3.7333,-3.7333 8.96,-3.7333 3.4667,0 6.4533,1.76 3.04,1.7067 4.48,4.7467 z m -21.92,12.053 q 0,4.5333 3.2533,7.84 3.3067,3.2533 7.7867,3.2533 4.5333,0 7.7333,-3.2533 3.2,-3.3067 3.2,-7.84 0,-4.5333 -3.2,-7.7867 -3.2,-3.3067 -7.7333,-3.3067 -4.48,0 -7.7867,3.3067 -3.2533,3.2533 -3.2533,7.7867 z"
         id="path26"
         inkscape:connector-curvature="0" />
      <path
         d="m 224.83,80.556 h 1.7067 v 24 H 224.83 v -4.8533 q -2.72,5.44 -9.28,5.44 -4.48,0 -7.52,-3.0933 -3.04,-3.0933 -3.04,-7.52 v -13.978 h 1.7067 v 13.973 q 0,3.68 2.56,6.4 2.6133,2.72 6.2933,2.72 3.68,0 6.4533,-2.72 2.8267,-2.72 2.8267,-6.4 z"
         id="path28"
         inkscape:connector-curvature="0" />
      <path
         d="m 237.63,81.41 q -1.3867,0 -2.4533,0.90667 -1.0667,0.90667 -1.0667,2.24 0,1.33333 1.1733,2.4533 1.2267,1.12 2.88,2.08 1.7067,0.90667 3.4133,1.9733 1.7067,1.0667 2.88,2.72 1.2267,1.6533 1.2267,3.7867 0,3.1467 -2.4,5.3867 -2.3467,2.1867 -5.7067,2.1867 -2.1333,0 -4,-0.90667 -1.8133,-0.96 -2.6667,-2.5067 v -2.56 q 2.0267,4.48 6.5067,4.48 2.7733,0 4.64,-1.7067 1.92,-1.7067 1.92,-3.7867 0,-2.1333 -1.2267,-3.5733 -1.1733,-1.44 -2.88,-2.4533 -1.7067,-1.0133 -3.4133,-1.9733 -1.6533,-1.0133 -2.88,-2.4 -1.1733,-1.44 -1.1733,-3.3067 0,-1.92 1.4933,-3.2 1.5467,-1.3333 3.9467,-1.3333 2.4,0 4.1067,1.8667 v 2.1867 q -1.7067,-2.56 -4.32,-2.56 z"
         id="path30"
         inkscape:connector-curvature="0" />
      <path
         d="m 259.32,103.38 v 1.4933 q -3.7867,0 -6.4533,-2.5067 -2.6667,-2.56 -2.6667,-6.5067 v -24.954 h 1.7067 v 9.7067 h 7.36 v 1.4933 h -7.36 v 13.76 q 0,3.2533 2.1333,5.3867 2.1867,2.1333 5.28,2.1333 z"
         id="path32"
         inkscape:connector-curvature="0" />
      <path
         d="m 264.03,104.93 q -1.8133,0 -1.8133,-1.6533 0,-1.6533 1.8133,-1.6533 1.8667,0 1.8667,1.6533 0,1.6533 -1.8667,1.6533 z"
         id="path34"
         inkscape:connector-curvature="0" />
      <path
         d="m 126.06,123.6 20,40.96 h -1.8667 L 136.62,149.307 h -21.387 l -7.4667,15.253 h -1.6533 z m -0.16,3.68 -9.9733,20.48 h 20.053 z"
         id="path36"
         inkscape:connector-curvature="0" />
      <path
         d="m 164.86,143.81 q -2.3467,-2.3467 -5.1733,-2.3467 -2.8267,0 -5.0133,2.1333 -2.1333,2.1333 -2.1333,4.96 v 16 h -1.7067 v -24 h 1.7067 v 3.5733 q 0.96,-1.8133 2.9867,-2.9867 2.0267,-1.1733 4.5333,-1.1733 2.5067,0 4.8,1.7067 z"
         id="path38"
         inkscape:connector-curvature="0" />
      <path
         d="m 177.97,163.38 v 1.4933 q -3.7867,0 -6.4533,-2.5067 -2.6667,-2.56 -2.6667,-6.5067 v -24.96 h 1.7067 v 9.7067 h 7.36 v 1.4933 h -7.36 v 13.76 q 0,3.2533 2.1333,5.3867 2.1867,2.1333 5.28,2.1333 z"
         id="path40"
         inkscape:connector-curvature="0" />
      <path
         d="m 182.67,164.93 q -1.8133,0 -1.8133,-1.6533 0,-1.6533 1.8133,-1.6533 1.8667,0 1.8667,1.6533 0,1.6533 -1.8667,1.6533 z"
         id="path42"
         inkscape:connector-curvature="0" />
    </g>
  </g>
</svg>
