<?xml version="1.0" encoding="UTF-8" standalone="no"?>
<!-- Created with Inkscape (http://www.inkscape.org/) -->

<svg
   xmlns:dc="http://purl.org/dc/elements/1.1/"
   xmlns:cc="http://creativecommons.org/ns#"
   xmlns:rdf="http://www.w3.org/1999/02/22-rdf-syntax-ns#"
   xmlns:svg="http://www.w3.org/2000/svg"
   xmlns="http://www.w3.org/2000/svg"
   xmlns:sodipodi="http://sodipodi.sourceforge.net/DTD/sodipodi-0.dtd"
   xmlns:inkscape="http://www.inkscape.org/namespaces/inkscape"
   width="1200"
   height="1200"
   viewBox="0 0 1200 1200"
   id="svg2"
   version="1.1"
   inkscape:version="0.91 r13725"
   sodipodi:docname="team.svg"
   inkscape:export-filename="/home/kn/Pictures/team.svg.png"
   inkscape:export-xdpi="150"
   inkscape:export-ydpi="150">
  <defs
     id="defs4" />
  <sodipodi:namedview
     id="base"
     pagecolor="#dcdcc8"
     bordercolor="#666666"
     borderopacity="1.0"
     inkscape:pageopacity="0"
     inkscape:pageshadow="2"
     inkscape:zoom="0.35355339"
     inkscape:cx="187.22892"
     inkscape:cy="734.30852"
     inkscape:document-units="px"
     inkscape:current-layer="layer1"
     showgrid="true"
     inkscape:showpageshadow="false"
     borderlayer="true"
     units="px"
     inkscape:window-width="1366"
     inkscape:window-height="742"
     inkscape:window-x="0"
     inkscape:window-y="0"
     inkscape:window-maximized="1"
     objecttolerance="20"
     inkscape:snap-path-clip="true"
     inkscape:snap-path-mask="true"
     gridtolerance="10"
     inkscape:snap-perpendicular="true"
     inkscape:snap-tangential="true"
     inkscape:snap-bbox="true"
     inkscape:bbox-paths="true"
     inkscape:bbox-nodes="true"
     inkscape:snap-bbox-edge-midpoints="true"
     inkscape:snap-bbox-midpoints="true"
     inkscape:object-paths="true"
     inkscape:snap-smooth-nodes="true"
     inkscape:snap-intersection-paths="true"
     inkscape:object-nodes="true"
     inkscape:snap-midpoints="true"
     inkscape:snap-object-midpoints="true"
     inkscape:snap-center="true"
     inkscape:snap-text-baseline="true"
     inkscape:snap-global="true"
     inkscape:snap-nodes="true">
    <inkscape:grid
       type="xygrid"
       id="grid3338"
       color="#ffffff"
       opacity="0.1254902"
       empcolor="#ffffff"
       empopacity="0.25098039"
       spacingx="10"
       spacingy="10" />
  </sodipodi:namedview>
  <metadata
     id="metadata7">
    <rdf:RDF>
      <cc:Work
         rdf:about="">
        <dc:format>image/svg+xml</dc:format>
        <dc:type
           rdf:resource="http://purl.org/dc/dcmitype/StillImage" />
        <dc:title />
      </cc:Work>
    </rdf:RDF>
  </metadata>
  <g
     inkscape:label="Layer 1"
     inkscape:groupmode="layer"
     id="layer1"
     transform="translate(0,147.63784)">
    <path
       style="fill:#8c9eff;fill-opacity:1;stroke:none"
       d="m 0,-147.63784 1200,0 0,1200.00004 -1200,0 z"
       id="rect3344"
       inkscape:connector-curvature="0"
       sodipodi:nodetypes="ccccc" />
    <path
       style="fill:#1e88e5;fill-opacity:1;stroke:none"
       d="m 1202.7405,2.36216 0,750 c -0.822,-15.75425 -12.6703,-28.25071 -27.1712,-28.25071 -0.013,0 -0.026,0.002 -0.039,0.002 -0.01,-2e-5 -0.015,-0.002 -0.022,-0.002 -15.0338,0 -26.4455,13.44958 -27.2201,30 l -2.2582,48.25071 c -0.7745,16.55042 -12.1883,30 -27.2221,30 -15.0338,0 -27.2201,-13.43146 -27.2201,-30 l 0,-180 c 0,-16.56853 -12.1883,-30 -27.2222,-30 -15.0338,0 -27.2201,13.43147 -27.2201,30 l 0,60 c 0,16.56854 -12.1883,30 -27.2221,30 -15.03386,0 -27.22013,-13.43146 -27.22013,-30 0,-16.56854 -12.18831,-30 -27.22214,-30 -15.03384,0 -27.22012,13.43146 -27.22012,30 l 0,60 c 0,16.56854 -12.18831,30 -27.22214,30 -15.03384,0 -27.22011,-13.43146 -27.22011,-30 l 0,-90 c 0,-33.13708 -24.3746,-60 -54.44225,-60 -30.06768,0 -54.44225,26.86292 -54.44225,60 l 0,120 c 0,16.56854 -12.18831,30 -27.22215,30 -15.03384,0 -27.2201,-13.43146 -27.2201,-30 l 0,-90 c 0,-16.56854 -12.18831,-30 -27.22215,-30 -15.03384,0 -27.22011,13.43147 -27.22011,30 l 0,60 0,150 c 0,16.56852 -12.18833,30 -27.22215,30 -15.03382,0 -27.22011,-13.43148 -27.22011,-30 l 0,-150 c 0,-16.56854 -12.18832,-30 -27.22214,-30 -15.03382,0 -27.22215,13.43146 -27.22215,30 l 0,60 c 0,16.56854 -12.18629,30 -27.22011,30 -15.03381,0 -27.22215,-13.43146 -27.22215,-30 l 0,-180 c 0,-16.56853 -12.18629,-30 -27.22011,-30 -15.03382,0 -27.22214,13.43147 -27.22214,30 l 0,60 c 0,16.56854 -12.18619,30 -27.2201,30 -15.03381,0 -27.22216,-13.43146 -27.22216,-30 0,-16.56854 -12.18619,-30 -27.2201,-30 -15.03381,0 -27.54034,13.43517 -27.22215,30 l 2.30502,120 c 0.31819,16.56483 -12.1863,30 -27.22011,30 -15.03391,0 -26.84034,-13.43628 -27.22214,-30 l -2.30502,-100 c -0.76359,-33.12744 -24.37452,-60 -54.44226,-60 -30.06764,0 -54.44224,26.8635 -54.44224,60 l 0,150 c 0,16.56825 -12.1861,30 -27.22,30 -15.0339,0 -27.2222,-13.43189 -27.2222,-30 l 0,-150 c 0,-16.56811 -12.186395,-30 -27.220195,-30 -15.0339,0 -27.2221,13.43146 -27.2221,30 l 0,100 c 0,16.56854 -12.1863,30 -27.2201,30 -15.034,0 -27.2222,-13.43146 -27.2222,-30 l 0,-800 z m -465.02853,830 c 15.03384,0 27.22215,13.43148 27.22215,30 0,16.56855 -12.18831,30 -27.22215,30 -15.03384,0 -27.2201,-13.43145 -27.2201,-30 0,-16.56852 12.18626,-30 27.2201,-30 z m -598.86464,80 c 15.0339,0 27.22,13.43148 27.22,30 0,16.56855 -12.1861,30 -27.22,30 -15.0339,0 -27.2222,-13.43145 -27.2222,-30 0,-16.56852 12.1883,-30 27.2222,-30 z"
       id="path4255-3"
       inkscape:connector-curvature="0"
       sodipodi:nodetypes="ccscssssssssssssssssssssssssscssssssssssssssssssssssssssssssssccssssssssss" />
    <path
       style="fill:#3f51b5;fill-opacity:1;stroke:none"
       d="m 0,-147.63784 -1.6e-5,400 c 0.822036,-15.75425 12.670244,-28.25071 27.171196,-28.25071 0.013,0 0.02572,0.002 0.03872,0.002 0.0075,-2e-5 0.01491,-0.002 0.02241,-0.002 15.033809,0 26.445542,13.44958 27.220109,30 l 2.258156,48.25071 c 0.774567,16.55042 12.188338,30 27.222145,30 15.03381,0 27.22011,-13.43146 27.22011,-30 l 0,-180 c 0,-16.56853 12.18833,-30 27.22214,-30 15.03381,0 27.2201,13.43147 27.2201,30 l 0,60 c 0,16.56854 12.18831,30 27.22216,30 15.03383,0 27.2201,-13.43146 27.2201,-30 0,-16.56854 12.18831,-30 27.22214,-30 15.03384,0 27.22012,13.43146 27.22012,30 l 0,60 c 0,16.56854 12.18831,30 27.22214,30 15.03384,0 27.22011,-13.43146 27.22011,-30 l 0,-90 c 0,-33.13708 24.3746,-60 54.44226,-60 30.06768,0 54.44225,26.86292 54.44225,60 l 0,120 c 0,16.56854 12.18831,30 27.22215,30 15.03384,0 27.2201,-13.43146 27.2201,-30 l 0,-90 c 0,-16.56854 12.18831,-30 27.22215,-30 15.03384,0 27.22011,13.43147 27.22011,30 l 0,60 0,150 c 0,16.56852 12.18833,30 27.22215,30 15.03382,0 27.22011,-13.43148 27.22011,-30 l 0,-150 c 0,-16.56854 12.18832,-30 27.22214,-30 15.03382,0 27.22215,13.43146 27.22215,30 l 0,60 c 0,16.56854 12.18629,30 27.22011,30 15.03381,0 27.22215,-13.43146 27.22215,-30 l 0,-180 c 0,-16.56853 12.18629,-30 27.22011,-30 15.03382,0 27.22214,13.43147 27.22214,30 l 0,60 c 0,16.56854 12.18619,30 27.2201,30 15.03381,0 27.22216,-13.43146 27.22216,-30 0,-16.56854 12.18619,-30 27.2201,-30 15.03381,0 27.54034,13.43517 27.22215,30 l -2.30502,120 c -0.31819,16.56483 12.1863,30 27.22011,30 15.03391,0 26.84034,-13.43628 27.22214,-30 l 2.30502,-100 c 0.76359,-33.12744 24.37452,-60 54.44226,-60 30.06766,0 54.44226,26.8635 54.44226,60 l 0,150 c 0,16.56825 12.1861,30 27.22,30 15.0339,0 27.2222,-13.43189 27.2222,-30 l 0,-150 c 0,-16.56811 12.1864,-30 27.2202,-30 15.0339,0 27.2221,13.43146 27.2221,30 l 0,100 c 0,16.56854 12.1863,30 27.2201,30 15.034,0 27.2222,-13.43146 27.2222,-30 l 0,-450 z m 465.02851,480 c -15.03384,0 -27.22215,13.43148 -27.22215,30 0,16.56855 12.18831,30 27.22215,30 15.03384,0 27.2201,-13.43145 27.2201,-30 0,-16.56852 -12.18626,-30 -27.2201,-30 z m 598.86469,80 c -15.0339,0 -27.22,13.43148 -27.22,30 0,16.56855 12.1861,30 27.22,30 15.0339,0 27.2222,-13.43145 27.2222,-30 0,-16.56852 -12.1883,-30 -27.2222,-30 z"
       id="path4255"
       inkscape:connector-curvature="0"
       sodipodi:nodetypes="ccscssssssssssssssssssssssssscssssssssssssssssssssssssssssssssccssssssssss" />
  </g>
</svg>
